<svg width="24" height="24" viewBox="0 0 24 24" fill="none" xmlns="http://www.w3.org/2000/svg">
<g clip-path="url(#clip0_860_62507)">
<path d="M5.5 18H19L18 16.25V14.5L17.5 10.5L14.5 7.5L11.5 6.5L8 8L6 12V16.5L5.5 18Z" fill="#3682F9"/>
<path d="M19.0497 18.7449H4.94969C4.83118 18.7449 4.71494 18.7125 4.61353 18.6512C4.51211 18.5899 4.42939 18.502 4.3743 18.397C4.31921 18.2921 4.29386 18.1741 4.30098 18.0558C4.3081 17.9376 4.34741 17.8235 4.41469 17.7259L5.41469 16.2759V12.6199C5.43603 10.8893 6.13851 9.23662 7.3699 8.02032C8.60129 6.80402 10.2624 6.12201 11.9932 6.12201C13.724 6.12201 15.3851 6.80402 16.6165 8.02032C17.8479 9.23662 18.5504 10.8893 18.5717 12.6199V15.0689C18.5717 15.2413 18.5032 15.4066 18.3813 15.5285C18.2594 15.6504 18.0941 15.7189 17.9217 15.7189C17.7493 15.7189 17.584 15.6504 17.4621 15.5285C17.3402 15.4066 17.2717 15.2413 17.2717 15.0689V12.6199C17.2526 11.2326 16.6881 9.90847 15.7002 8.93414C14.7124 7.95981 13.3807 7.41351 11.9932 7.41351C10.6057 7.41351 9.27398 7.95981 8.28615 8.93414C7.29831 9.90847 6.73379 11.2326 6.71469 12.6199V16.478C6.71466 16.6098 6.67456 16.7384 6.5997 16.8469L6.1877 17.447H19.0497C19.2221 17.447 19.3874 17.5154 19.5093 17.6373C19.6312 17.7592 19.6997 17.9245 19.6997 18.0969C19.6997 18.2693 19.6312 18.4347 19.5093 18.5566C19.3874 18.6785 19.2221 18.7469 19.0497 18.7469V18.7449Z" fill="#313131"/>
<path d="M13.4883 7.50897C13.3159 7.50897 13.1506 7.44044 13.0287 7.31854C12.9068 7.19664 12.8383 7.03134 12.8383 6.85895V4.8399C12.8383 4.72986 12.8166 4.6209 12.7745 4.51923C12.7324 4.41756 12.6707 4.32519 12.5928 4.24738C12.515 4.16956 12.4227 4.10785 12.321 4.06573C12.2193 4.02362 12.1104 4.00201 12.0003 4.00201C11.8903 4.00201 11.7813 4.02362 11.6796 4.06573C11.5779 4.10785 11.4856 4.16956 11.4077 4.24738C11.3299 4.32519 11.2682 4.41756 11.2261 4.51923C11.184 4.6209 11.1623 4.72986 11.1623 4.8399V6.8609H9.8623V4.8399C9.8623 4.27287 10.0876 3.72914 10.4885 3.32819C10.8895 2.92723 11.4333 2.70197 12.0003 2.70197C12.5673 2.70197 13.1111 2.92723 13.5121 3.32819C13.9131 3.72914 14.1383 4.27287 14.1383 4.8399V6.8609C14.1378 7.03294 14.0691 7.19781 13.9472 7.31927C13.8254 7.44074 13.6603 7.50897 13.4883 7.50897Z" fill="#313131"/>
<path d="M12.0176 21.312H11.9816C11.1541 21.3451 10.347 21.0495 9.73662 20.4897C9.12622 19.9299 8.76206 19.1513 8.72363 18.3239C8.72363 18.1515 8.79212 17.9862 8.91402 17.8643C9.03592 17.7424 9.20125 17.6739 9.37364 17.6739C9.54603 17.6739 9.71135 17.7424 9.83325 17.8643C9.95515 17.9862 10.0236 18.1515 10.0236 18.3239C10.0625 18.8062 10.2898 19.2538 10.6562 19.5698C11.0227 19.8857 11.4989 20.0445 11.9816 20.0119H12.0176C12.5004 20.0445 12.9765 19.8857 13.343 19.5698C13.7095 19.2538 13.9368 18.8062 13.9756 18.3239C13.9756 18.1515 14.0441 17.9862 14.166 17.8643C14.2879 17.7424 14.4532 17.6739 14.6256 17.6739C14.798 17.6739 14.9634 17.7424 15.0853 17.8643C15.2072 17.9862 15.2756 18.1515 15.2756 18.3239C15.2372 19.1513 14.8731 19.9299 14.2627 20.4897C13.6523 21.0495 12.8452 21.3451 12.0176 21.312Z" fill="#313131"/>
<circle cx="17" cy="6" r="2" fill="#F86D6D"/>
</g>
<defs>
<clipPath id="clip0_860_62507">
<rect width="15.401" height="18.611" fill="white" transform="translate(4.2998 2.70001)"/>
</clipPath>
</defs>
</svg>
