<svg width="180" height="322" viewBox="0 0 180 322" fill="none" xmlns="http://www.w3.org/2000/svg">
<rect y="134" width="180" height="188" rx="14" fill="#F1F8FE"/>
<path d="M58.42 180.64H52.1L50.96 183.8H47.2L53.52 167.5H57.3L63.62 183.8H59.56L58.42 180.64ZM57.3 177.48L55.26 171.8L53.22 177.48H57.3ZM65.2564 167.5H71.5164C72.9164 167.5 74.1164 167.747 75.1164 168.24C76.1297 168.733 76.9031 169.427 77.4364 170.32C77.9697 171.213 78.2364 172.26 78.2364 173.46C78.2364 174.673 77.9697 175.733 77.4364 176.64C76.9031 177.533 76.1297 178.227 75.1164 178.72C74.1164 179.213 72.9164 179.46 71.5164 179.46H68.8964V183.8H65.2564V167.5ZM71.3564 176.24C72.3831 176.24 73.1764 176 73.7364 175.52C74.3097 175.04 74.5964 174.353 74.5964 173.46C74.5964 172.567 74.3097 171.887 73.7364 171.42C73.1764 170.953 72.3831 170.72 71.3564 170.72H68.8964V176.24H71.3564ZM83.8378 167.5V183.8H80.1978V167.5H83.8378ZM98.1867 177.58L95.9667 180.14V183.8H92.3267V167.5H95.9667V175.18L102.487 167.5H106.947L100.547 174.88L107.287 183.8H102.747L98.1867 177.58ZM113.02 184.08C111.846 184.08 110.793 183.813 109.86 183.28C108.94 182.76 108.22 182.033 107.7 181.1C107.18 180.167 106.92 179.113 106.92 177.94C106.92 176.767 107.18 175.713 107.7 174.78C108.22 173.847 108.94 173.12 109.86 172.6C110.793 172.067 111.846 171.8 113.02 171.8C114.193 171.8 115.24 172.067 116.16 172.6C117.093 173.12 117.82 173.847 118.34 174.78C118.86 175.713 119.12 176.767 119.12 177.94C119.12 178.327 119.093 178.707 119.04 179.08H110.46C110.593 179.76 110.886 180.287 111.34 180.66C111.793 181.033 112.353 181.22 113.02 181.22C113.526 181.22 113.973 181.14 114.36 180.98C114.76 180.807 115.033 180.58 115.18 180.3H118.76C118.56 181.047 118.186 181.7 117.64 182.26C117.093 182.833 116.42 183.28 115.62 183.6C114.82 183.92 113.953 184.08 113.02 184.08ZM115.64 176.78C115.493 176.073 115.193 175.54 114.74 175.18C114.286 174.807 113.713 174.62 113.02 174.62C112.326 174.62 111.76 174.807 111.32 175.18C110.88 175.54 110.586 176.073 110.44 176.78H115.64ZM132.146 172.08L125.406 188.68H121.906L124.026 183.48L119.406 172.08H123.346L125.886 179.32L128.446 172.08H132.146Z" fill="#313131"/>
<path d="M35.1983 211.996H33.9383V202.384H35.1983V211.996ZM40.6624 206.224H39.1384V211.996H37.9024V206.224H36.5464V205.132H37.9024V203.968C37.9024 203.384 38.0624 202.916 38.3824 202.564C38.7104 202.212 39.1624 202.036 39.7384 202.036C40.0584 202.036 40.3264 202.06 40.5424 202.108V203.152C40.4304 203.128 40.2344 203.116 39.9544 203.116C39.6984 203.116 39.4984 203.196 39.3544 203.356C39.2104 203.508 39.1384 203.724 39.1384 204.004V205.132H40.6624V206.224ZM51.63 205.132L47.346 214.912H46.098L47.454 211.852L44.514 205.132H45.87L48.078 210.532L50.346 205.132H51.63ZM55.6436 204.964C56.3076 204.964 56.9076 205.12 57.4436 205.432C57.9796 205.744 58.3956 206.176 58.6916 206.728C58.9956 207.272 59.1476 207.884 59.1476 208.564C59.1476 209.244 58.9956 209.86 58.6916 210.412C58.3956 210.956 57.9796 211.384 57.4436 211.696C56.9076 212.008 56.3076 212.164 55.6436 212.164C54.9716 212.164 54.3676 212.008 53.8316 211.696C53.3036 211.384 52.8876 210.956 52.5836 210.412C52.2796 209.86 52.1276 209.244 52.1276 208.564C52.1276 207.884 52.2796 207.272 52.5836 206.728C52.8876 206.176 53.3036 205.744 53.8316 205.432C54.3676 205.12 54.9716 204.964 55.6436 204.964ZM55.6436 206.056C55.1956 206.056 54.7956 206.168 54.4436 206.392C54.0996 206.608 53.8276 206.908 53.6276 207.292C53.4356 207.668 53.3396 208.092 53.3396 208.564C53.3396 209.036 53.4356 209.464 53.6276 209.848C53.8276 210.224 54.0996 210.524 54.4436 210.748C54.7956 210.964 55.1956 211.072 55.6436 211.072C56.0836 211.072 56.4796 210.964 56.8316 210.748C57.1836 210.524 57.4556 210.224 57.6476 209.848C57.8396 209.464 57.9356 209.036 57.9356 208.564C57.9356 208.092 57.8396 207.668 57.6476 207.292C57.4556 206.908 57.1836 206.608 56.8316 206.392C56.4796 206.168 56.0836 206.056 55.6436 206.056ZM65.6579 211.996V210.952C65.4819 211.264 65.1899 211.544 64.7819 211.792C64.3819 212.04 63.8979 212.164 63.3299 212.164C62.7939 212.164 62.3139 212.04 61.8899 211.792C61.4739 211.544 61.1499 211.196 60.9179 210.748C60.6859 210.292 60.5699 209.76 60.5699 209.152V205.132H61.8059V208.936C61.8059 209.624 61.9619 210.156 62.2739 210.532C62.5939 210.9 63.0339 211.084 63.5939 211.084C63.9859 211.084 64.3379 210.976 64.6499 210.76C64.9619 210.536 65.2059 210.24 65.3819 209.872C65.5659 209.504 65.6579 209.108 65.6579 208.684V205.132H66.8939V211.996H65.6579ZM82.5066 205.132L80.0826 211.996H78.8346L77.0226 206.74L75.2226 211.996H73.9746L71.5506 205.132H72.8346L74.6346 210.46L76.4226 205.132H77.6706L79.4706 210.496L81.2826 205.132H82.5066ZM86.4025 212.164C85.7625 212.164 85.1825 212.008 84.6625 211.696C84.1505 211.384 83.7465 210.952 83.4505 210.4C83.1545 209.848 83.0065 209.236 83.0065 208.564C83.0065 207.892 83.1545 207.28 83.4505 206.728C83.7465 206.176 84.1505 205.744 84.6625 205.432C85.1825 205.12 85.7625 204.964 86.4025 204.964C86.9865 204.964 87.4905 205.08 87.9145 205.312C88.3385 205.544 88.6465 205.824 88.8385 206.152V205.132H90.0745V211.996H88.8385V210.976C88.6465 211.304 88.3385 211.584 87.9145 211.816C87.4905 212.048 86.9865 212.164 86.4025 212.164ZM86.5105 211.072C86.9665 211.072 87.3705 210.964 87.7225 210.748C88.0825 210.524 88.3625 210.224 88.5625 209.848C88.7625 209.464 88.8625 209.036 88.8625 208.564C88.8625 208.092 88.7625 207.668 88.5625 207.292C88.3625 206.908 88.0825 206.608 87.7225 206.392C87.3705 206.168 86.9665 206.056 86.5105 206.056C86.0625 206.056 85.6625 206.164 85.3105 206.38C84.9665 206.596 84.6985 206.896 84.5065 207.28C84.3145 207.664 84.2185 208.092 84.2185 208.564C84.2185 209.036 84.3145 209.464 84.5065 209.848C84.6985 210.232 84.9665 210.532 85.3105 210.748C85.6625 210.964 86.0625 211.072 86.5105 211.072ZM93.251 205.132V206.176C93.427 205.864 93.715 205.584 94.115 205.336C94.523 205.088 95.011 204.964 95.579 204.964C96.115 204.964 96.591 205.088 97.007 205.336C97.431 205.584 97.759 205.936 97.991 206.392C98.223 206.84 98.339 207.368 98.339 207.976V211.996H97.103V208.192C97.103 207.504 96.943 206.976 96.623 206.608C96.311 206.232 95.875 206.044 95.315 206.044C94.923 206.044 94.571 206.156 94.259 206.38C93.947 206.596 93.699 206.888 93.515 207.256C93.339 207.624 93.251 208.02 93.251 208.444V211.996H92.015V205.132H93.251ZM103.584 206.224H102.06V211.996H100.824V206.224H99.2997V205.132H100.824V203.044H102.06V205.132H103.584V206.224ZM111.822 206.224H110.298V211.996H109.062V206.224H107.538V205.132H109.062V203.044H110.298V205.132H111.822V206.224ZM116.03 204.964C116.694 204.964 117.294 205.12 117.83 205.432C118.366 205.744 118.782 206.176 119.078 206.728C119.382 207.272 119.534 207.884 119.534 208.564C119.534 209.244 119.382 209.86 119.078 210.412C118.782 210.956 118.366 211.384 117.83 211.696C117.294 212.008 116.694 212.164 116.03 212.164C115.358 212.164 114.754 212.008 114.218 211.696C113.69 211.384 113.274 210.956 112.97 210.412C112.666 209.86 112.514 209.244 112.514 208.564C112.514 207.884 112.666 207.272 112.97 206.728C113.274 206.176 113.69 205.744 114.218 205.432C114.754 205.12 115.358 204.964 116.03 204.964ZM116.03 206.056C115.582 206.056 115.182 206.168 114.83 206.392C114.486 206.608 114.214 206.908 114.014 207.292C113.822 207.668 113.726 208.092 113.726 208.564C113.726 209.036 113.822 209.464 114.014 209.848C114.214 210.224 114.486 210.524 114.83 210.748C115.182 210.964 115.582 211.072 116.03 211.072C116.47 211.072 116.866 210.964 117.218 210.748C117.57 210.524 117.842 210.224 118.034 209.848C118.226 209.464 118.322 209.036 118.322 208.564C118.322 208.092 118.226 207.668 118.034 207.292C117.842 206.908 117.57 206.608 117.218 206.392C116.866 206.168 116.47 206.056 116.03 206.056ZM127.176 204.964C127.728 204.964 128.228 205.052 128.676 205.228C129.124 205.396 129.48 205.632 129.744 205.936C130.016 206.232 130.16 206.572 130.176 206.956H128.964C128.94 206.668 128.756 206.432 128.412 206.248C128.068 206.064 127.644 205.972 127.14 205.972C126.644 205.972 126.232 206.06 125.904 206.236C125.584 206.412 125.424 206.628 125.424 206.884C125.424 207.18 125.572 207.416 125.868 207.592C126.172 207.768 126.728 207.912 127.536 208.024C128.536 208.16 129.252 208.392 129.684 208.72C130.116 209.048 130.332 209.488 130.332 210.04C130.332 210.472 130.192 210.848 129.912 211.168C129.64 211.488 129.268 211.732 128.796 211.9C128.324 212.076 127.8 212.164 127.224 212.164C126.624 212.164 126.096 212.072 125.64 211.888C125.184 211.712 124.824 211.464 124.56 211.144C124.304 210.832 124.16 210.476 124.128 210.076H125.34C125.38 210.372 125.564 210.628 125.892 210.844C126.228 211.052 126.684 211.156 127.26 211.156C127.796 211.156 128.24 211.06 128.592 210.868C128.944 210.668 129.12 210.416 129.12 210.112C129.12 209.824 128.956 209.596 128.628 209.428C128.308 209.252 127.748 209.112 126.948 209.008C126.004 208.88 125.312 208.656 124.872 208.336C124.432 208.008 124.212 207.548 124.212 206.956C124.212 206.564 124.34 206.216 124.596 205.912C124.86 205.608 125.216 205.376 125.664 205.216C126.112 205.048 126.616 204.964 127.176 204.964ZM134.978 212.164C134.322 212.164 133.73 212.008 133.202 211.696C132.682 211.384 132.274 210.956 131.978 210.412C131.682 209.86 131.534 209.244 131.534 208.564C131.534 207.884 131.682 207.272 131.978 206.728C132.274 206.176 132.682 205.744 133.202 205.432C133.73 205.12 134.322 204.964 134.978 204.964C135.634 204.964 136.222 205.12 136.742 205.432C137.27 205.744 137.678 206.176 137.966 206.728C138.262 207.272 138.41 207.884 138.41 208.564C138.41 208.788 138.402 208.956 138.386 209.068H132.77C132.834 209.668 133.066 210.16 133.466 210.544C133.874 210.928 134.378 211.12 134.978 211.12C135.434 211.12 135.834 211.028 136.178 210.844C136.53 210.652 136.77 210.412 136.898 210.124H138.158C137.966 210.724 137.582 211.212 137.006 211.588C136.43 211.972 135.754 212.164 134.978 212.164ZM137.198 208.06C137.126 207.452 136.89 206.96 136.49 206.584C136.09 206.2 135.586 206.008 134.978 206.008C134.37 206.008 133.866 206.2 133.466 206.584C133.066 206.96 132.834 207.452 132.77 208.06H137.198ZM143.064 212.164C142.408 212.164 141.816 212.008 141.288 211.696C140.768 211.384 140.36 210.956 140.064 210.412C139.768 209.86 139.62 209.244 139.62 208.564C139.62 207.884 139.768 207.272 140.064 206.728C140.36 206.176 140.768 205.744 141.288 205.432C141.816 205.12 142.408 204.964 143.064 204.964C143.72 204.964 144.308 205.12 144.828 205.432C145.356 205.744 145.764 206.176 146.052 206.728C146.348 207.272 146.496 207.884 146.496 208.564C146.496 208.788 146.488 208.956 146.472 209.068H140.856C140.92 209.668 141.152 210.16 141.552 210.544C141.96 210.928 142.464 211.12 143.064 211.12C143.52 211.12 143.92 211.028 144.264 210.844C144.616 210.652 144.856 210.412 144.984 210.124H146.244C146.052 210.724 145.668 211.212 145.092 211.588C144.516 211.972 143.84 212.164 143.064 212.164ZM145.284 208.06C145.212 207.452 144.976 206.96 144.576 206.584C144.176 206.2 143.672 206.008 143.064 206.008C142.456 206.008 141.952 206.2 141.552 206.584C141.152 206.96 140.92 207.452 140.856 208.06H145.284ZM44.5681 224.224H43.0441V229.996H41.8081V224.224H40.2841V223.132H41.8081V221.044H43.0441V223.132H44.5681V224.224ZM47.0791 220.084V224.176C47.2551 223.864 47.5431 223.584 47.9431 223.336C48.3511 223.088 48.8391 222.964 49.4071 222.964C49.9431 222.964 50.4191 223.088 50.8351 223.336C51.2591 223.584 51.5871 223.936 51.8191 224.392C52.0511 224.84 52.1671 225.368 52.1671 225.976V229.996H50.9311V226.192C50.9311 225.504 50.7711 224.976 50.4511 224.608C50.1391 224.232 49.7031 224.044 49.1431 224.044C48.7511 224.044 48.3991 224.156 48.0871 224.38C47.7751 224.596 47.5271 224.888 47.3431 225.256C47.1671 225.624 47.0791 226.02 47.0791 226.444V229.996H45.8431V220.084H47.0791ZM57.0365 230.164C56.3805 230.164 55.7885 230.008 55.2605 229.696C54.7405 229.384 54.3325 228.956 54.0365 228.412C53.7405 227.86 53.5925 227.244 53.5925 226.564C53.5925 225.884 53.7405 225.272 54.0365 224.728C54.3325 224.176 54.7405 223.744 55.2605 223.432C55.7885 223.12 56.3805 222.964 57.0365 222.964C57.6925 222.964 58.2805 223.12 58.8005 223.432C59.3285 223.744 59.7365 224.176 60.0245 224.728C60.3205 225.272 60.4685 225.884 60.4685 226.564C60.4685 226.788 60.4605 226.956 60.4445 227.068H54.8285C54.8925 227.668 55.1245 228.16 55.5245 228.544C55.9325 228.928 56.4365 229.12 57.0365 229.12C57.4925 229.12 57.8925 229.028 58.2365 228.844C58.5885 228.652 58.8285 228.412 58.9565 228.124H60.2165C60.0245 228.724 59.6405 229.212 59.0645 229.588C58.4885 229.972 57.8125 230.164 57.0365 230.164ZM59.2565 226.06C59.1845 225.452 58.9485 224.96 58.5485 224.584C58.1485 224.2 57.6445 224.008 57.0365 224.008C56.4285 224.008 55.9245 224.2 55.5245 224.584C55.1245 224.96 54.8925 225.452 54.8285 226.06H59.2565ZM68.7617 233.08C67.8337 233.08 67.0897 232.848 66.5297 232.384C65.9777 231.928 65.6377 231.348 65.5097 230.644H66.7697C66.8497 231.044 67.0537 231.372 67.3817 231.628C67.7177 231.884 68.1777 232.012 68.7617 232.012C69.3937 232.012 69.9017 231.812 70.2857 231.412C70.6777 231.02 70.8737 230.492 70.8737 229.828V228.88C70.6817 229.208 70.3737 229.488 69.9497 229.72C69.5257 229.952 69.0217 230.068 68.4377 230.068C67.7977 230.068 67.2177 229.912 66.6977 229.6C66.1857 229.296 65.7817 228.876 65.4857 228.34C65.1897 227.796 65.0417 227.192 65.0417 226.528C65.0417 225.864 65.1897 225.26 65.4857 224.716C65.7817 224.172 66.1857 223.744 66.6977 223.432C67.2177 223.12 67.7977 222.964 68.4377 222.964C69.0217 222.964 69.5257 223.08 69.9497 223.312C70.3737 223.544 70.6817 223.824 70.8737 224.152V223.132H72.1097V229.84C72.1097 230.464 71.9657 231.02 71.6777 231.508C71.3977 232.004 71.0017 232.388 70.4897 232.66C69.9857 232.94 69.4097 233.08 68.7617 233.08ZM68.5457 229C69.0017 229 69.4057 228.892 69.7577 228.676C70.1177 228.46 70.3977 228.164 70.5977 227.788C70.7977 227.412 70.8977 226.992 70.8977 226.528C70.8977 226.064 70.7977 225.644 70.5977 225.268C70.3977 224.892 70.1177 224.596 69.7577 224.38C69.4057 224.164 69.0017 224.056 68.5457 224.056C68.0977 224.056 67.6977 224.164 67.3457 224.38C67.0017 224.596 66.7337 224.892 66.5417 225.268C66.3497 225.644 66.2537 226.064 66.2537 226.528C66.2537 226.992 66.3497 227.412 66.5417 227.788C66.7337 228.164 67.0017 228.46 67.3457 228.676C67.6977 228.892 68.0977 229 68.5457 229ZM78.9821 229.996V228.952C78.8061 229.264 78.5141 229.544 78.1061 229.792C77.7061 230.04 77.2221 230.164 76.6541 230.164C76.1181 230.164 75.6381 230.04 75.2141 229.792C74.7981 229.544 74.4741 229.196 74.2421 228.748C74.0101 228.292 73.8941 227.76 73.8941 227.152V223.132H75.1301V226.936C75.1301 227.624 75.2861 228.156 75.5981 228.532C75.9181 228.9 76.3581 229.084 76.9181 229.084C77.3101 229.084 77.6621 228.976 77.9741 228.76C78.2861 228.536 78.5301 228.24 78.7061 227.872C78.8901 227.504 78.9821 227.108 78.9821 226.684V223.132H80.2181V229.996H78.9821ZM82.7715 219.964C83.0115 219.964 83.2075 220.044 83.3595 220.204C83.5195 220.356 83.5995 220.548 83.5995 220.78C83.5995 221.012 83.5195 221.208 83.3595 221.368C83.2075 221.52 83.0115 221.596 82.7715 221.596C82.5395 221.596 82.3435 221.52 82.1835 221.368C82.0315 221.208 81.9555 221.012 81.9555 220.78C81.9555 220.548 82.0315 220.356 82.1835 220.204C82.3435 220.044 82.5395 219.964 82.7715 219.964ZM82.1595 230.008V223.132H83.3955V230.008H82.1595ZM88.3713 230.164C87.7313 230.164 87.1513 230.008 86.6313 229.696C86.1193 229.384 85.7153 228.952 85.4193 228.4C85.1233 227.848 84.9753 227.236 84.9753 226.564C84.9753 225.892 85.1233 225.28 85.4193 224.728C85.7153 224.176 86.1193 223.744 86.6313 223.432C87.1513 223.12 87.7313 222.964 88.3713 222.964C88.9553 222.964 89.4593 223.08 89.8833 223.312C90.3073 223.544 90.6153 223.824 90.8073 224.152V220.084H92.0433V229.996H90.8073V228.976C90.6153 229.304 90.3073 229.584 89.8833 229.816C89.4593 230.048 88.9553 230.164 88.3713 230.164ZM88.4793 229.072C88.9353 229.072 89.3393 228.964 89.6913 228.748C90.0513 228.524 90.3313 228.224 90.5313 227.848C90.7313 227.464 90.8313 227.036 90.8313 226.564C90.8313 226.092 90.7313 225.668 90.5313 225.292C90.3313 224.908 90.0513 224.608 89.6913 224.392C89.3393 224.168 88.9353 224.056 88.4793 224.056C88.0313 224.056 87.6313 224.164 87.2793 224.38C86.9353 224.596 86.6673 224.896 86.4753 225.28C86.2833 225.664 86.1873 226.092 86.1873 226.564C86.1873 227.036 86.2833 227.464 86.4753 227.848C86.6673 228.232 86.9353 228.532 87.2793 228.748C87.6313 228.964 88.0313 229.072 88.4793 229.072ZM97.0677 230.164C96.4117 230.164 95.8197 230.008 95.2917 229.696C94.7717 229.384 94.3637 228.956 94.0677 228.412C93.7717 227.86 93.6237 227.244 93.6237 226.564C93.6237 225.884 93.7717 225.272 94.0677 224.728C94.3637 224.176 94.7717 223.744 95.2917 223.432C95.8197 223.12 96.4117 222.964 97.0677 222.964C97.7237 222.964 98.3117 223.12 98.8317 223.432C99.3597 223.744 99.7677 224.176 100.056 224.728C100.352 225.272 100.5 225.884 100.5 226.564C100.5 226.788 100.492 226.956 100.476 227.068H94.8597C94.9237 227.668 95.1557 228.16 95.5557 228.544C95.9637 228.928 96.4677 229.12 97.0677 229.12C97.5237 229.12 97.9237 229.028 98.2677 228.844C98.6197 228.652 98.8597 228.412 98.9877 228.124H100.248C100.056 228.724 99.6717 229.212 99.0957 229.588C98.5197 229.972 97.8437 230.164 97.0677 230.164ZM99.2877 226.06C99.2157 225.452 98.9797 224.96 98.5797 224.584C98.1797 224.2 97.6757 224.008 97.0677 224.008C96.4597 224.008 95.9557 224.2 95.5557 224.584C95.1557 224.96 94.9237 225.452 94.8597 226.06H99.2877ZM102.742 231.208H101.758L102.142 228.496H103.342L102.742 231.208ZM114.735 227.668C114.551 228.42 114.163 229.024 113.571 229.48C112.987 229.936 112.299 230.164 111.507 230.164C110.835 230.164 110.231 230.008 109.695 229.696C109.159 229.384 108.739 228.956 108.435 228.412C108.131 227.86 107.979 227.244 107.979 226.564C107.979 225.884 108.127 225.272 108.423 224.728C108.727 224.176 109.147 223.744 109.683 223.432C110.219 223.12 110.819 222.964 111.483 222.964C112.011 222.964 112.499 223.072 112.947 223.288C113.403 223.496 113.783 223.788 114.087 224.164C114.391 224.54 114.599 224.964 114.711 225.436H113.451C113.307 225.02 113.063 224.688 112.719 224.44C112.375 224.184 111.963 224.056 111.483 224.056C111.035 224.056 110.635 224.168 110.283 224.392C109.939 224.608 109.671 224.908 109.479 225.292C109.287 225.668 109.191 226.092 109.191 226.564C109.191 227.036 109.287 227.464 109.479 227.848C109.671 228.224 109.939 228.524 110.283 228.748C110.635 228.964 111.035 229.072 111.483 229.072C111.963 229.072 112.379 228.944 112.731 228.688C113.083 228.432 113.331 228.092 113.475 227.668H114.735ZM116.249 229.996V220.084H117.485V229.996H116.249ZM120.037 219.964C120.277 219.964 120.473 220.044 120.625 220.204C120.785 220.356 120.865 220.548 120.865 220.78C120.865 221.012 120.785 221.208 120.625 221.368C120.473 221.52 120.277 221.596 120.037 221.596C119.805 221.596 119.609 221.52 119.449 221.368C119.297 221.208 119.221 221.012 119.221 220.78C119.221 220.548 119.297 220.356 119.449 220.204C119.609 220.044 119.805 219.964 120.037 219.964ZM119.425 230.008V223.132H120.661V230.008H119.425ZM128.997 227.668C128.813 228.42 128.425 229.024 127.833 229.48C127.249 229.936 126.561 230.164 125.769 230.164C125.097 230.164 124.493 230.008 123.957 229.696C123.421 229.384 123.001 228.956 122.697 228.412C122.393 227.86 122.241 227.244 122.241 226.564C122.241 225.884 122.389 225.272 122.685 224.728C122.989 224.176 123.409 223.744 123.945 223.432C124.481 223.12 125.081 222.964 125.745 222.964C126.273 222.964 126.761 223.072 127.209 223.288C127.665 223.496 128.045 223.788 128.349 224.164C128.653 224.54 128.861 224.964 128.973 225.436H127.713C127.569 225.02 127.325 224.688 126.981 224.44C126.637 224.184 126.225 224.056 125.745 224.056C125.297 224.056 124.897 224.168 124.545 224.392C124.201 224.608 123.933 224.908 123.741 225.292C123.549 225.668 123.453 226.092 123.453 226.564C123.453 227.036 123.549 227.464 123.741 227.848C123.933 228.224 124.201 228.524 124.545 228.748C124.897 228.964 125.297 229.072 125.745 229.072C126.225 229.072 126.641 228.944 126.993 228.688C127.345 228.432 127.593 228.092 127.737 227.668H128.997ZM133.031 226.852L131.675 228.28V229.996H130.439V220.084H131.675V226.804L135.095 223.132H136.547L133.811 226.024L136.835 229.996H135.371L133.031 226.852ZM138.47 230.152C138.23 230.152 138.026 230.068 137.858 229.9C137.698 229.74 137.618 229.54 137.618 229.3C137.618 229.06 137.698 228.86 137.858 228.7C138.026 228.532 138.23 228.448 138.47 228.448C138.71 228.448 138.91 228.532 139.07 228.7C139.23 228.86 139.31 229.06 139.31 229.3C139.31 229.54 139.23 229.74 139.07 229.9C138.91 230.068 138.71 230.152 138.47 230.152Z" fill="#3682F9"/>
<g clip-path="url(#clip0_5380_124486)">
<path d="M7.10961 87.0244C0.258641 64.3482 -12.3156 48.8649 31.0989 31.2758C74.5134 13.6867 89.7842 27.5542 98.3889 7.96135C106.994 -11.6315 133.484 9.57734 130.204 22.1703C126.925 34.7632 160.947 52.007 148.481 76.2021C136.015 100.397 127.016 116.142 58.4947 121.981C-10.027 127.819 13.9596 109.696 7.10961 87.0244Z" fill="#FAFCFD"/>
<path d="M29.5642 129.189C29.5642 129.189 31.8228 53.2411 83.3711 56.8476C134.919 60.4541 140.629 105.754 140.629 105.754L154.708 93.7357L160.34 101.842L147.351 118.439C147.351 118.439 141.795 129.718 131.09 122.508C120.384 115.298 126.25 105.751 126.25 105.751V134.035H66.4846C66.4846 134.035 24.7849 160.277 29.5642 129.186V129.189Z" fill="#DDEFFF"/>
<path d="M80.4746 56.9556C80.4746 56.9556 82.0604 50.6667 84.733 46.635C83.6671 44.9595 80.8456 38.8675 90.5921 32.0818C102.06 24.0962 104.59 38.1828 104.59 38.1828C104.59 38.1828 107.161 62.0356 95.2824 54.155L97.0991 55.5114C97.1991 58.5089 95.7443 67.2903 96.4992 69.0577C96.5442 69.1587 96.5272 69.2132 96.4542 69.2132C95.3064 69.2112 80.4746 56.9556 80.4746 56.9556ZM93.5597 52.8684C92.9097 52.3331 92.2239 51.716 91.499 51.0091L92.6928 52.221L93.5597 52.8684Z" fill="white"/>
<path d="M96.456 69.8699C96.078 69.8699 95.5171 69.8699 87.6323 63.6001C83.8199 60.5703 80.1004 57.495 80.0634 57.4648C79.9676 57.3855 79.8962 57.2804 79.8576 57.1616C79.819 57.0428 79.8148 56.9153 79.8455 56.7941C80.7622 53.2322 82.148 49.8106 83.9658 46.621C83.0369 44.9717 82.6847 43.0546 82.966 41.1785C83.4659 37.7901 85.9065 34.5482 90.2239 31.5416C92.161 30.0247 94.5046 29.1306 96.9509 28.9753C99.6995 28.9753 102.01 30.5731 103.633 33.5948C104.375 35.0003 104.914 36.5059 105.233 38.0658C105.233 38.0813 105.235 38.0968 105.24 38.1123C105.295 38.6233 106.539 50.6679 102.786 54.8965C102.383 55.3756 101.881 55.7595 101.315 56.0213C100.75 56.283 100.134 56.4162 99.5115 56.4114C98.9133 56.4039 98.3197 56.3051 97.7508 56.1185C97.7258 57.3638 97.5508 59.1483 97.3708 61.0197C97.0899 63.9162 96.7049 67.8873 97.0969 68.7963C97.1551 68.9142 97.1822 69.0454 97.1756 69.177C97.1689 69.3087 97.1287 69.4363 97.0589 69.5477C96.9928 69.6477 96.903 69.7296 96.7978 69.7858C96.6925 69.8421 96.575 69.871 96.456 69.8699ZM81.2123 56.7164C82.1751 57.5092 85.1297 59.933 88.1912 62.3721C92.5476 65.8432 94.6482 67.3753 95.6601 68.0489C95.6355 65.6552 95.7751 63.2627 96.078 60.8884C96.271 58.9049 96.453 57.0224 96.455 55.8458L94.8962 54.6783C94.7607 54.5765 94.6697 54.4254 94.6426 54.257C94.6154 54.0886 94.6543 53.9162 94.7509 53.7762C94.8474 53.6362 94.9942 53.5397 95.16 53.5072C95.3258 53.4746 95.4976 53.5085 95.6391 53.6017C96.7649 54.4571 98.1075 54.9733 99.5115 55.0904C99.9509 55.0949 100.386 55.0007 100.785 54.8147C101.184 54.6287 101.537 54.3555 101.818 54.0148C103.189 52.4716 103.996 49.2741 104.15 44.7708C104.218 42.6034 104.151 40.4338 103.95 38.2749C103.647 36.8516 103.15 35.478 102.471 34.1937C101.076 31.6022 99.2176 30.2883 96.9509 30.2883C94.7684 30.4473 92.6824 31.2602 90.9598 32.6232C89.0298 33.899 87.3331 35.5026 85.9445 37.3629C85.0747 38.5454 84.494 39.9189 84.2498 41.3713C83.9931 43.0793 84.3587 44.8233 85.2786 46.2797C85.348 46.3874 85.3845 46.5134 85.3836 46.642C85.3827 46.7705 85.3445 46.896 85.2736 47.0028C83.4824 50.0357 82.1156 53.3047 81.2123 56.7164ZM93.5594 53.526C93.4205 53.5262 93.2851 53.4812 93.1735 53.3977L92.3056 52.7503C92.279 52.7304 92.2539 52.7085 92.2306 52.6847L91.0428 51.4788C90.9192 51.3574 90.8485 51.1913 90.8461 51.0171C90.8438 50.843 90.91 50.675 91.0303 50.5502C91.1505 50.4254 91.315 50.3539 91.4874 50.3516C91.6598 50.3492 91.8261 50.4161 91.9496 50.5376C92.6495 51.2173 93.3274 51.8313 93.9703 52.3605C94.0744 52.4461 94.1497 52.5622 94.1858 52.6928C94.222 52.8234 94.2172 52.962 94.1722 53.0898C94.1271 53.2175 94.044 53.328 93.9343 53.4061C93.8246 53.4842 93.6936 53.5261 93.5594 53.526Z" fill="#3682F9"/>
<path d="M93.4617 35.7328C97.1927 37.0583 101.184 37.4618 105.101 36.9093C111.461 35.9549 112.513 30.0417 109.161 26.7907C105.81 23.5397 96.8792 18.4799 88.2985 24.4144C79.7177 30.3488 72.8008 45.7776 72.8008 45.7776L88.2985 47.5682L89.4983 44.6313C89.4983 44.6313 86.5237 38.1485 91.316 38.4455C94.6375 39.6917 93.4617 35.7328 93.4617 35.7328Z" fill="#35363E"/>
<path d="M44.1698 125.302C44.0521 125.27 43.9456 125.205 43.8627 125.115C43.7797 125.024 43.7235 124.912 43.7006 124.792C43.6776 124.671 43.6888 124.546 43.7328 124.431C43.7769 124.316 43.852 124.216 43.9497 124.142C46.1416 122.568 48.5465 121.321 51.0904 120.439C53.2116 119.67 55.4681 119.356 57.7162 119.515C60.214 119.725 62.555 120.83 64.3162 122.631C64.3766 122.692 64.4246 122.765 64.4574 122.844C64.4902 122.924 64.5071 123.009 64.5073 123.095C64.5074 123.182 64.4908 123.267 64.4582 123.347C64.4257 123.426 64.3779 123.499 64.3177 123.56C64.2574 123.621 64.1858 123.67 64.107 123.703C64.0282 123.736 63.9437 123.753 63.8583 123.753C63.686 123.753 63.5205 123.684 63.3984 123.561C61.8499 121.978 59.7916 121.007 57.5958 120.823C55.528 120.68 53.4535 120.973 51.5037 121.683C49.093 122.525 46.812 123.706 44.7282 125.192C44.6495 125.252 44.5583 125.293 44.4616 125.312C44.3648 125.331 44.2651 125.327 44.1698 125.302Z" fill="white"/>
<path d="M22.2695 74.5119L11.8242 68.4204L5.79362 78.9711L16.2389 85.0626L22.2695 74.5119Z" fill="#F1F8FE"/>
<path d="M141.169 35.6974C139.572 35.6974 138.011 36.1757 136.683 37.072C135.355 37.9682 134.32 39.242 133.709 40.7324C133.098 42.2227 132.938 43.8627 133.25 45.4449C133.561 47.027 134.33 48.4803 135.459 49.621C136.589 50.7617 138.028 51.5385 139.594 51.8532C141.16 52.1679 142.784 52.0064 144.259 51.3891C145.735 50.7717 146.996 49.7263 147.883 48.385C148.77 47.0437 149.244 45.4668 149.244 43.8536C149.242 41.6912 148.39 39.618 146.876 38.0889C145.363 36.5599 143.31 35.6998 141.169 35.6974ZM141.169 33.6775C143.162 33.6775 145.11 34.2743 146.766 35.3925C148.423 36.5107 149.714 38.1 150.477 39.9594C151.239 41.8189 151.439 43.8649 151.05 45.8389C150.661 47.8129 149.702 49.6261 148.293 51.0493C146.884 52.4724 145.089 53.4416 143.135 53.8343C141.18 54.2269 139.155 54.0254 137.314 53.2552C135.473 52.485 133.9 51.1807 132.793 49.5072C131.686 47.8338 131.095 45.8663 131.095 43.8536C131.095 41.1548 132.156 38.5664 134.045 36.658C135.935 34.7496 138.497 33.6775 141.169 33.6775V33.6775Z" fill="#F1F8FE"/>
<path d="M37.0837 42.6205L45.0051 45.6382L38.6473 51.0269L37.0837 42.6205Z" fill="#F1F8FE"/>
<path d="M100.147 48.4398H97.5007C97.3283 48.4398 97.1629 48.3706 97.041 48.2475C96.9191 48.1244 96.8506 47.9576 96.8506 47.7835C96.8506 47.6094 96.9191 47.4423 97.041 47.3192C97.1629 47.1961 97.3283 47.1269 97.5007 47.1269H99.5007V41.4166C99.5007 41.2425 99.5693 41.0757 99.6912 40.9526C99.8131 40.8295 99.9782 40.7603 100.151 40.7603C100.323 40.7603 100.488 40.8295 100.61 40.9526C100.732 41.0757 100.801 41.2425 100.801 41.4166V47.7793C100.801 47.8662 100.785 47.9524 100.752 48.0328C100.719 48.1131 100.671 48.1861 100.61 48.2475C100.55 48.309 100.477 48.3578 100.398 48.3908C100.318 48.4238 100.233 48.4404 100.147 48.4398Z" fill="#3682F9"/>
<path d="M124.059 102.008C123.967 102.022 123.872 102.017 123.782 101.991C123.692 101.966 123.608 101.921 123.537 101.86C123.466 101.799 123.408 101.723 123.369 101.637C123.329 101.552 123.308 101.459 123.307 101.364C123.295 98.6306 123.088 95.9015 122.687 93.1982C122.661 93.0261 122.703 92.8506 122.805 92.7103C122.908 92.57 123.061 92.4764 123.231 92.45C123.401 92.4237 123.575 92.4669 123.714 92.57C123.853 92.673 123.946 92.8276 123.972 92.9998C124.383 95.7655 124.595 98.5577 124.608 101.354C124.609 101.512 124.554 101.664 124.453 101.784C124.353 101.904 124.213 101.983 124.059 102.008ZM122.662 89.7839C122.5 89.8094 122.335 89.7726 122.199 89.6806C122.063 89.5886 121.967 89.4483 121.929 89.2876C121.229 86.2214 120.136 83.2606 118.677 80.4803C118.16 79.4792 117.548 78.5316 116.849 77.6509C116.792 77.5863 116.748 77.5109 116.72 77.4291C116.692 77.3473 116.681 77.2607 116.686 77.1743C116.691 77.088 116.713 77.0035 116.751 76.9258C116.789 76.8481 116.841 76.7787 116.906 76.7216C116.97 76.6641 117.044 76.6199 117.125 76.5917C117.206 76.5634 117.292 76.5516 117.378 76.5569C117.463 76.5623 117.547 76.5846 117.624 76.6227C117.701 76.6608 117.769 76.7139 117.826 76.7789C117.963 76.942 121.234 80.7615 123.194 88.9809C123.214 89.065 123.217 89.1523 123.204 89.2378C123.191 89.3233 123.16 89.4052 123.116 89.4789C123.071 89.5526 123.012 89.6166 122.942 89.6673C122.873 89.7179 122.794 89.7542 122.711 89.774L122.662 89.7839Z" fill="white"/>
<path d="M133.889 99.0569C133.148 98.3826 132.702 97.4385 132.65 96.4322C132.598 95.426 132.943 94.4399 133.611 93.6911C134.278 92.9423 135.213 92.4919 136.209 92.4392C137.205 92.3865 138.182 92.7356 138.923 93.4099L142.079 96.2806L144.592 93.4624L141.435 90.5916C141.059 90.2605 140.752 89.8569 140.531 89.4046C140.311 88.9522 140.182 88.4601 140.152 87.9568C140.121 87.4536 140.191 86.9493 140.355 86.4734C140.52 85.9975 140.777 85.5594 141.111 85.1848C141.445 84.8101 141.849 84.5063 142.301 84.2912C142.752 84.076 143.241 83.9537 143.74 83.9314C144.239 83.9091 144.737 83.9873 145.205 84.1614C145.673 84.3355 146.103 84.602 146.468 84.9454L149.625 87.8161L154.074 82.8251C153.968 82.629 153.867 82.4294 153.772 82.226C152.559 79.6276 152.393 76.6548 153.31 73.9352C154.013 71.864 155.316 70.0541 157.051 68.7405C158.785 67.4268 160.87 66.6699 163.036 66.5681C165.937 66.4269 168.776 67.4492 170.934 69.4123C173.093 71.3754 174.396 74.1203 174.56 77.0494C174.656 78.8502 174.312 80.6472 173.556 82.2814C172.801 83.9155 171.659 85.3365 170.231 86.4186C168.802 87.5007 167.132 88.2105 165.368 88.4852C163.603 88.76 161.799 88.5912 160.114 87.9938C160.002 87.954 159.89 87.9125 159.778 87.8693L145.198 104.226C144.531 104.975 143.596 105.426 142.6 105.48C141.604 105.533 140.628 105.185 139.886 104.511L133.889 99.0569ZM163.422 73.4478C162.885 73.4734 162.358 73.6063 161.872 73.8388C161.387 74.0713 160.951 74.3987 160.592 74.8022C160.232 75.2057 159.955 75.6772 159.777 76.1895C159.599 76.7017 159.523 77.2446 159.554 77.7866C159.617 78.8863 160.107 79.9165 160.918 80.6536C161.728 81.3906 162.794 81.7752 163.883 81.7237C164.42 81.6981 164.946 81.5652 165.432 81.3327C165.918 81.1002 166.353 80.7728 166.713 80.3693C167.073 79.9658 167.349 79.4943 167.528 78.982C167.706 78.4698 167.781 77.9269 167.751 77.3849C167.687 76.2852 167.197 75.255 166.387 74.5179C165.577 73.7809 164.511 73.3963 163.422 73.4478Z" fill="white"/>
<path d="M139.453 104.998L133.456 99.5433C132.587 98.7526 132.064 97.6453 132.003 96.4652C131.942 95.285 132.347 94.1287 133.13 93.2504C133.913 92.3722 135.009 91.8441 136.177 91.7822C137.346 91.7204 138.49 92.1299 139.36 92.9206L142.035 95.3535L143.676 93.5124L141.001 91.0796C140.561 90.6909 140.201 90.2177 139.943 89.6873C139.685 89.157 139.535 88.5802 139.5 87.9904C139.465 87.4007 139.546 86.8098 139.739 86.2522C139.932 85.6945 140.233 85.1812 140.625 84.7422C141.016 84.3031 141.49 83.9471 142.019 83.6948C142.548 83.4424 143.121 83.2988 143.705 83.2724C144.29 83.2459 144.873 83.337 145.423 83.5405C145.972 83.744 146.475 84.0558 146.904 84.4577L149.579 86.8905L153.291 82.7265L153.186 82.5075C151.901 79.7544 151.725 76.6046 152.696 73.7232C153.442 71.5276 154.824 69.6091 156.663 68.2167C158.502 66.8242 160.712 66.0222 163.008 65.9146C165.313 65.8064 167.599 66.3898 169.576 67.5913C171.554 68.7928 173.135 70.5586 174.121 72.6663C175.406 75.419 175.581 78.5682 174.611 81.4492C173.865 83.6448 172.483 85.5633 170.644 86.9557C168.805 88.3481 166.594 89.1502 164.299 89.2578C162.83 89.3319 161.361 89.1223 159.971 88.6402L145.683 104.668C145.043 105.391 144.184 105.881 143.24 106.061C143.155 106.079 143.068 106.08 142.983 106.063C142.899 106.047 142.818 106.014 142.746 105.965C142.674 105.917 142.613 105.855 142.565 105.782C142.517 105.71 142.485 105.628 142.468 105.542C142.452 105.457 142.453 105.369 142.471 105.284C142.488 105.198 142.523 105.118 142.572 105.046C142.621 104.974 142.684 104.913 142.756 104.866C142.829 104.819 142.91 104.787 142.995 104.772C143.66 104.645 144.266 104.299 144.718 103.789L159.298 87.4322C159.386 87.3334 159.502 87.264 159.63 87.2331C159.758 87.2022 159.892 87.2113 160.015 87.2591C160.12 87.3 160.226 87.3394 160.331 87.3768C162.857 88.2671 165.626 88.1318 168.054 86.9994C169.294 86.4157 170.404 85.5857 171.319 84.5591C172.235 83.5324 172.936 82.33 173.381 81.0237C174.242 78.4658 174.086 75.67 172.945 73.2263C172.072 71.3511 170.668 69.7798 168.91 68.7116C167.152 67.6434 165.12 67.1262 163.071 67.2257C161.394 67.3122 159.765 67.8147 158.326 68.6887C156.888 69.5627 155.685 70.7813 154.824 72.2367C153.963 73.6921 153.471 75.3394 153.39 77.0329C153.309 78.7264 153.643 80.4139 154.362 81.9461C154.451 82.1359 154.546 82.3254 154.646 82.5103C154.71 82.6296 154.737 82.7662 154.721 82.9013C154.706 83.0364 154.649 83.1632 154.559 83.2644L150.108 88.2577C149.992 88.387 149.831 88.4648 149.659 88.474C149.487 88.4831 149.318 88.4227 149.19 88.3062L146.033 85.4348C145.731 85.15 145.375 84.9288 144.988 84.7841C144.6 84.6395 144.188 84.5743 143.775 84.5925C143.362 84.6106 142.957 84.7116 142.583 84.8896C142.209 85.0677 141.874 85.3191 141.597 85.6294C141.321 85.9396 141.108 86.3024 140.972 86.6966C140.836 87.0907 140.779 87.5083 140.804 87.925C140.829 88.3417 140.937 88.7492 141.12 89.1235C141.302 89.4979 141.557 89.8317 141.869 90.1054L145.026 92.9761C145.154 93.0926 145.231 93.2557 145.24 93.4296C145.249 93.6035 145.189 93.7738 145.074 93.9032L142.563 96.72C142.448 96.8494 142.286 96.9272 142.114 96.9363C141.942 96.9454 141.773 96.8851 141.645 96.7686L138.489 93.8978C138.185 93.6217 137.831 93.4086 137.445 93.2708C137.06 93.1331 136.652 93.0733 136.244 93.0949C135.836 93.1165 135.436 93.219 135.067 93.3967C134.698 93.5744 134.368 93.8237 134.094 94.1305C133.821 94.4372 133.61 94.7953 133.474 95.1844C133.337 95.5734 133.278 95.9858 133.3 96.398C133.321 96.8102 133.422 97.214 133.598 97.5866C133.774 97.9591 134.021 98.293 134.325 98.5692L140.322 104.023C140.45 104.14 140.527 104.303 140.536 104.477C140.545 104.651 140.485 104.821 140.37 104.95C140.255 105.08 140.093 105.158 139.921 105.167C139.749 105.176 139.58 105.116 139.452 104.999L139.453 104.998Z" fill="#3682F9"/>
<path d="M158.557 103.788C163.042 100.588 168.031 97.4322 165.569 89.1517C163.108 80.8712 159.563 87.7287 159.563 87.7287C159.563 87.7287 153.846 96.2605 153.595 100.276C153.344 104.292 154.072 106.988 158.557 103.788Z" fill="white"/>
<path d="M155.399 105.853C155.107 105.859 154.816 105.804 154.547 105.689C154.277 105.575 154.034 105.405 153.833 105.19C153.057 104.355 152.784 102.825 152.947 100.23C153.202 96.1655 158.571 88.0374 159.006 87.387C159.236 86.9528 160.664 84.4028 162.577 84.4028C162.977 84.4193 163.368 84.5287 163.719 84.7226C164.07 84.9165 164.371 85.1897 164.601 85.5208C165.342 86.5532 165.883 87.7184 166.194 88.9545C167.173 92.2499 167.093 95.0213 165.956 97.427C164.84 99.51 163.24 101.288 161.294 102.61C161.226 102.662 161.148 102.699 161.065 102.721C160.983 102.742 160.897 102.746 160.812 102.734C160.728 102.722 160.646 102.693 160.573 102.649C160.5 102.605 160.436 102.547 160.384 102.478C160.333 102.409 160.296 102.33 160.275 102.246C160.254 102.163 160.249 102.076 160.262 101.991C160.274 101.905 160.303 101.823 160.346 101.749C160.39 101.675 160.447 101.61 160.515 101.559C162.29 100.36 163.754 98.7484 164.784 96.8594C165.778 94.7618 165.832 92.2994 164.95 89.3312C164.256 86.9962 163.414 85.7096 162.578 85.7096C161.641 85.7096 160.531 87.268 160.142 88.0234C160.13 88.0453 160.117 88.0665 160.103 88.087C160.047 88.1709 154.483 96.5169 154.245 100.307C154.112 102.421 154.294 103.759 154.783 104.287C154.862 104.371 154.958 104.437 155.065 104.48C155.172 104.523 155.287 104.541 155.401 104.534C155.574 104.534 155.739 104.603 155.861 104.726C155.983 104.849 156.051 105.016 156.051 105.19C156.051 105.365 155.983 105.531 155.861 105.654C155.739 105.778 155.574 105.847 155.401 105.847L155.399 105.853Z" fill="#3682F9"/>
<path d="M78.5846 126.876C71.913 123.302 64.8967 119.072 58.5008 127.383C52.1048 135.694 61.7135 135.781 61.7135 135.781C61.7135 135.781 74.6799 137.517 78.9003 135.292C83.1207 133.067 85.2556 130.448 78.5846 126.876Z" fill="white"/>
<path d="M82.9898 129.576C83.2246 129.922 83.3833 130.315 83.4549 130.729C83.5265 131.142 83.5095 131.567 83.405 131.973C83.0454 133.309 81.7084 134.549 79.1979 135.873C74.92 138.131 62.5885 136.56 61.663 136.438C61.2025 136.427 57.5332 136.275 56.1607 134.057C55.0897 132.326 55.704 129.946 57.9853 126.982C60.8929 123.205 64.21 121.567 68.1271 121.975C71.5134 122.328 74.8838 124.141 78.143 125.895L78.8872 126.295C79.2934 126.515 79.6725 126.73 80.0214 126.943C80.0944 126.988 80.158 127.046 80.2085 127.116C80.259 127.185 80.2953 127.264 80.3156 127.348C80.3359 127.432 80.3395 127.519 80.3266 127.604C80.3136 127.689 80.2841 127.771 80.2398 127.845C80.1955 127.919 80.1373 127.983 80.0685 128.034C79.9996 128.085 79.9215 128.121 79.8386 128.142C79.7557 128.162 79.6697 128.166 79.5854 128.153C79.501 128.14 79.4201 128.11 79.3471 128.065C79.0201 127.864 78.6631 127.663 78.2783 127.455L77.5314 127.054C74.3814 125.358 71.1248 123.606 67.9921 123.28C66.453 123.093 64.8927 123.333 63.4786 123.975C61.702 124.856 60.1671 126.165 59.0089 127.787C57.6944 129.494 56.3248 131.846 57.2606 133.359C58.1376 134.776 60.7727 135.113 61.7142 135.124C61.7407 135.124 61.7671 135.126 61.7933 135.13C61.8256 135.135 65.0576 135.563 68.7577 135.714C74.8375 135.965 77.4648 135.304 78.5958 134.708C80.7039 133.595 81.8992 132.558 82.152 131.629C82.2074 131.397 82.2126 131.155 82.1672 130.921C82.1218 130.687 82.0268 130.466 81.8889 130.272C81.7975 130.124 81.7681 129.946 81.8068 129.776C81.8456 129.607 81.9495 129.459 82.0957 129.367C82.2419 129.275 82.4182 129.245 82.5862 129.284C82.7542 129.323 82.8998 129.428 82.9911 129.576L82.9898 129.576Z" fill="#3682F9"/>
<path d="M97.6133 40.3976C97.6133 39.8399 97.1656 39.3877 96.6133 39.3877C96.061 39.3877 95.6133 39.8399 95.6133 40.3976V42.4175C95.6133 42.9753 96.061 43.4275 96.6133 43.4275C97.1656 43.4275 97.6133 42.9753 97.6133 42.4175V40.3976Z" fill="#35363E"/>
<path d="M103.612 40.3976C103.612 39.8399 103.165 39.3877 102.612 39.3877C102.06 39.3877 101.612 39.8399 101.612 40.3976V42.4175C101.612 42.9753 102.06 43.4275 102.612 43.4275C103.165 43.4275 103.612 42.9753 103.612 42.4175V40.3976Z" fill="#35363E"/>
<circle cx="163.5" cy="77.5" r="3.85" fill="white" stroke="#3682F9" stroke-width="1.3"/>
</g>
<defs>
<clipPath id="clip0_5380_124486">
<rect width="180" height="146" fill="white"/>
</clipPath>
</defs>
</svg>
