<svg width="180" height="322" viewBox="0 0 180 322" fill="none" xmlns="http://www.w3.org/2000/svg">
<rect y="134" width="180" height="188" rx="14" fill="#25262B"/>
<rect x="38" y="254" width="104" height="40" rx="8" fill="#3682F9"/>
<path d="M72.9481 267.948L77.2741 275.564L81.6001 267.948H82.8881V279.162H81.4181V270.888L77.8061 277.272H76.7421L73.1301 270.888V279.162H71.6601V267.948H72.9481ZM88.8892 270.958C89.6639 270.958 90.3639 271.14 90.9892 271.504C91.6146 271.868 92.0999 272.372 92.4452 273.016C92.7999 273.651 92.9772 274.365 92.9772 275.158C92.9772 275.951 92.7999 276.67 92.4452 277.314C92.0999 277.949 91.6146 278.448 90.9892 278.812C90.3639 279.176 89.6639 279.358 88.8892 279.358C88.1052 279.358 87.4006 279.176 86.7752 278.812C86.1592 278.448 85.6739 277.949 85.3192 277.314C84.9646 276.67 84.7872 275.951 84.7872 275.158C84.7872 274.365 84.9646 273.651 85.3192 273.016C85.6739 272.372 86.1592 271.868 86.7752 271.504C87.4006 271.14 88.1052 270.958 88.8892 270.958ZM88.8892 272.232C88.3666 272.232 87.8999 272.363 87.4892 272.624C87.0879 272.876 86.7706 273.226 86.5372 273.674C86.3132 274.113 86.2012 274.607 86.2012 275.158C86.2012 275.709 86.3132 276.208 86.5372 276.656C86.7706 277.095 87.0879 277.445 87.4892 277.706C87.8999 277.958 88.3666 278.084 88.8892 278.084C89.4026 278.084 89.8646 277.958 90.2752 277.706C90.6859 277.445 91.0032 277.095 91.2272 276.656C91.4512 276.208 91.5632 275.709 91.5632 275.158C91.5632 274.607 91.4512 274.113 91.2272 273.674C91.0032 273.226 90.6859 272.876 90.2752 272.624C89.8646 272.363 89.4026 272.232 88.8892 272.232ZM96.2606 271.154V272.386C96.4752 272.022 96.8299 271.695 97.3246 271.406C97.8286 271.107 98.4352 270.958 99.1446 270.958C99.6019 270.958 99.9659 271.005 100.237 271.098V272.47C99.9099 272.321 99.5132 272.246 99.0466 272.246C98.5146 272.246 98.0339 272.377 97.6046 272.638C97.1846 272.89 96.8532 273.231 96.6106 273.66C96.3772 274.08 96.2606 274.533 96.2606 275.018V279.162H94.8186V271.154H96.2606ZM104.842 279.358C104.077 279.358 103.386 279.176 102.77 278.812C102.164 278.448 101.688 277.949 101.342 277.314C100.997 276.67 100.824 275.951 100.824 275.158C100.824 274.365 100.997 273.651 101.342 273.016C101.688 272.372 102.164 271.868 102.77 271.504C103.386 271.14 104.077 270.958 104.842 270.958C105.608 270.958 106.294 271.14 106.9 271.504C107.516 271.868 107.992 272.372 108.328 273.016C108.674 273.651 108.846 274.365 108.846 275.158C108.846 275.419 108.837 275.615 108.818 275.746H102.266C102.341 276.446 102.612 277.02 103.078 277.468C103.554 277.916 104.142 278.14 104.842 278.14C105.374 278.14 105.841 278.033 106.242 277.818C106.653 277.594 106.933 277.314 107.082 276.978H108.552C108.328 277.678 107.88 278.247 107.208 278.686C106.536 279.134 105.748 279.358 104.842 279.358ZM107.432 274.57C107.348 273.861 107.073 273.287 106.606 272.848C106.14 272.4 105.552 272.176 104.842 272.176C104.133 272.176 103.545 272.4 103.078 272.848C102.612 273.287 102.341 273.861 102.266 274.57H107.432Z" fill="white"/>
<path d="M58.42 180.64H52.1L50.96 183.8H47.2L53.52 167.5H57.3L63.62 183.8H59.56L58.42 180.64ZM57.3 177.48L55.26 171.8L53.22 177.48H57.3ZM65.2564 167.5H71.5164C72.9164 167.5 74.1164 167.747 75.1164 168.24C76.1297 168.733 76.9031 169.427 77.4364 170.32C77.9697 171.213 78.2364 172.26 78.2364 173.46C78.2364 174.673 77.9697 175.733 77.4364 176.64C76.9031 177.533 76.1297 178.227 75.1164 178.72C74.1164 179.213 72.9164 179.46 71.5164 179.46H68.8964V183.8H65.2564V167.5ZM71.3564 176.24C72.3831 176.24 73.1764 176 73.7364 175.52C74.3097 175.04 74.5964 174.353 74.5964 173.46C74.5964 172.567 74.3097 171.887 73.7364 171.42C73.1764 170.953 72.3831 170.72 71.3564 170.72H68.8964V176.24H71.3564ZM83.8378 167.5V183.8H80.1978V167.5H83.8378ZM98.1867 177.58L95.9667 180.14V183.8H92.3267V167.5H95.9667V175.18L102.487 167.5H106.947L100.547 174.88L107.287 183.8H102.747L98.1867 177.58ZM113.02 184.08C111.846 184.08 110.793 183.813 109.86 183.28C108.94 182.76 108.22 182.033 107.7 181.1C107.18 180.167 106.92 179.113 106.92 177.94C106.92 176.767 107.18 175.713 107.7 174.78C108.22 173.847 108.94 173.12 109.86 172.6C110.793 172.067 111.846 171.8 113.02 171.8C114.193 171.8 115.24 172.067 116.16 172.6C117.093 173.12 117.82 173.847 118.34 174.78C118.86 175.713 119.12 176.767 119.12 177.94C119.12 178.327 119.093 178.707 119.04 179.08H110.46C110.593 179.76 110.886 180.287 111.34 180.66C111.793 181.033 112.353 181.22 113.02 181.22C113.526 181.22 113.973 181.14 114.36 180.98C114.76 180.807 115.033 180.58 115.18 180.3H118.76C118.56 181.047 118.186 181.7 117.64 182.26C117.093 182.833 116.42 183.28 115.62 183.6C114.82 183.92 113.953 184.08 113.02 184.08ZM115.64 176.78C115.493 176.073 115.193 175.54 114.74 175.18C114.286 174.807 113.713 174.62 113.02 174.62C112.326 174.62 111.76 174.807 111.32 175.18C110.88 175.54 110.586 176.073 110.44 176.78H115.64ZM132.146 172.08L125.406 188.68H121.906L124.026 183.48L119.406 172.08H123.346L125.886 179.32L128.446 172.08H132.146Z" fill="white"/>
<path d="M35.1983 211.996H33.9383V202.384H35.1983V211.996ZM40.6624 206.224H39.1384V211.996H37.9024V206.224H36.5464V205.132H37.9024V203.968C37.9024 203.384 38.0624 202.916 38.3824 202.564C38.7104 202.212 39.1624 202.036 39.7384 202.036C40.0584 202.036 40.3264 202.06 40.5424 202.108V203.152C40.4304 203.128 40.2344 203.116 39.9544 203.116C39.6984 203.116 39.4984 203.196 39.3544 203.356C39.2104 203.508 39.1384 203.724 39.1384 204.004V205.132H40.6624V206.224ZM51.63 205.132L47.346 214.912H46.098L47.454 211.852L44.514 205.132H45.87L48.078 210.532L50.346 205.132H51.63ZM55.6436 204.964C56.3076 204.964 56.9076 205.12 57.4436 205.432C57.9796 205.744 58.3956 206.176 58.6916 206.728C58.9956 207.272 59.1476 207.884 59.1476 208.564C59.1476 209.244 58.9956 209.86 58.6916 210.412C58.3956 210.956 57.9796 211.384 57.4436 211.696C56.9076 212.008 56.3076 212.164 55.6436 212.164C54.9716 212.164 54.3676 212.008 53.8316 211.696C53.3036 211.384 52.8876 210.956 52.5836 210.412C52.2796 209.86 52.1276 209.244 52.1276 208.564C52.1276 207.884 52.2796 207.272 52.5836 206.728C52.8876 206.176 53.3036 205.744 53.8316 205.432C54.3676 205.12 54.9716 204.964 55.6436 204.964ZM55.6436 206.056C55.1956 206.056 54.7956 206.168 54.4436 206.392C54.0996 206.608 53.8276 206.908 53.6276 207.292C53.4356 207.668 53.3396 208.092 53.3396 208.564C53.3396 209.036 53.4356 209.464 53.6276 209.848C53.8276 210.224 54.0996 210.524 54.4436 210.748C54.7956 210.964 55.1956 211.072 55.6436 211.072C56.0836 211.072 56.4796 210.964 56.8316 210.748C57.1836 210.524 57.4556 210.224 57.6476 209.848C57.8396 209.464 57.9356 209.036 57.9356 208.564C57.9356 208.092 57.8396 207.668 57.6476 207.292C57.4556 206.908 57.1836 206.608 56.8316 206.392C56.4796 206.168 56.0836 206.056 55.6436 206.056ZM65.6579 211.996V210.952C65.4819 211.264 65.1899 211.544 64.7819 211.792C64.3819 212.04 63.8979 212.164 63.3299 212.164C62.7939 212.164 62.3139 212.04 61.8899 211.792C61.4739 211.544 61.1499 211.196 60.9179 210.748C60.6859 210.292 60.5699 209.76 60.5699 209.152V205.132H61.8059V208.936C61.8059 209.624 61.9619 210.156 62.2739 210.532C62.5939 210.9 63.0339 211.084 63.5939 211.084C63.9859 211.084 64.3379 210.976 64.6499 210.76C64.9619 210.536 65.2059 210.24 65.3819 209.872C65.5659 209.504 65.6579 209.108 65.6579 208.684V205.132H66.8939V211.996H65.6579ZM82.5066 205.132L80.0826 211.996H78.8346L77.0226 206.74L75.2226 211.996H73.9746L71.5506 205.132H72.8346L74.6346 210.46L76.4226 205.132H77.6706L79.4706 210.496L81.2826 205.132H82.5066ZM86.4025 212.164C85.7625 212.164 85.1825 212.008 84.6625 211.696C84.1505 211.384 83.7465 210.952 83.4505 210.4C83.1545 209.848 83.0065 209.236 83.0065 208.564C83.0065 207.892 83.1545 207.28 83.4505 206.728C83.7465 206.176 84.1505 205.744 84.6625 205.432C85.1825 205.12 85.7625 204.964 86.4025 204.964C86.9865 204.964 87.4905 205.08 87.9145 205.312C88.3385 205.544 88.6465 205.824 88.8385 206.152V205.132H90.0745V211.996H88.8385V210.976C88.6465 211.304 88.3385 211.584 87.9145 211.816C87.4905 212.048 86.9865 212.164 86.4025 212.164ZM86.5105 211.072C86.9665 211.072 87.3705 210.964 87.7225 210.748C88.0825 210.524 88.3625 210.224 88.5625 209.848C88.7625 209.464 88.8625 209.036 88.8625 208.564C88.8625 208.092 88.7625 207.668 88.5625 207.292C88.3625 206.908 88.0825 206.608 87.7225 206.392C87.3705 206.168 86.9665 206.056 86.5105 206.056C86.0625 206.056 85.6625 206.164 85.3105 206.38C84.9665 206.596 84.6985 206.896 84.5065 207.28C84.3145 207.664 84.2185 208.092 84.2185 208.564C84.2185 209.036 84.3145 209.464 84.5065 209.848C84.6985 210.232 84.9665 210.532 85.3105 210.748C85.6625 210.964 86.0625 211.072 86.5105 211.072ZM93.251 205.132V206.176C93.427 205.864 93.715 205.584 94.115 205.336C94.523 205.088 95.011 204.964 95.579 204.964C96.115 204.964 96.591 205.088 97.007 205.336C97.431 205.584 97.759 205.936 97.991 206.392C98.223 206.84 98.339 207.368 98.339 207.976V211.996H97.103V208.192C97.103 207.504 96.943 206.976 96.623 206.608C96.311 206.232 95.875 206.044 95.315 206.044C94.923 206.044 94.571 206.156 94.259 206.38C93.947 206.596 93.699 206.888 93.515 207.256C93.339 207.624 93.251 208.02 93.251 208.444V211.996H92.015V205.132H93.251ZM103.584 206.224H102.06V211.996H100.824V206.224H99.2997V205.132H100.824V203.044H102.06V205.132H103.584V206.224ZM111.822 206.224H110.298V211.996H109.062V206.224H107.538V205.132H109.062V203.044H110.298V205.132H111.822V206.224ZM116.03 204.964C116.694 204.964 117.294 205.12 117.83 205.432C118.366 205.744 118.782 206.176 119.078 206.728C119.382 207.272 119.534 207.884 119.534 208.564C119.534 209.244 119.382 209.86 119.078 210.412C118.782 210.956 118.366 211.384 117.83 211.696C117.294 212.008 116.694 212.164 116.03 212.164C115.358 212.164 114.754 212.008 114.218 211.696C113.69 211.384 113.274 210.956 112.97 210.412C112.666 209.86 112.514 209.244 112.514 208.564C112.514 207.884 112.666 207.272 112.97 206.728C113.274 206.176 113.69 205.744 114.218 205.432C114.754 205.12 115.358 204.964 116.03 204.964ZM116.03 206.056C115.582 206.056 115.182 206.168 114.83 206.392C114.486 206.608 114.214 206.908 114.014 207.292C113.822 207.668 113.726 208.092 113.726 208.564C113.726 209.036 113.822 209.464 114.014 209.848C114.214 210.224 114.486 210.524 114.83 210.748C115.182 210.964 115.582 211.072 116.03 211.072C116.47 211.072 116.866 210.964 117.218 210.748C117.57 210.524 117.842 210.224 118.034 209.848C118.226 209.464 118.322 209.036 118.322 208.564C118.322 208.092 118.226 207.668 118.034 207.292C117.842 206.908 117.57 206.608 117.218 206.392C116.866 206.168 116.47 206.056 116.03 206.056ZM127.176 204.964C127.728 204.964 128.228 205.052 128.676 205.228C129.124 205.396 129.48 205.632 129.744 205.936C130.016 206.232 130.16 206.572 130.176 206.956H128.964C128.94 206.668 128.756 206.432 128.412 206.248C128.068 206.064 127.644 205.972 127.14 205.972C126.644 205.972 126.232 206.06 125.904 206.236C125.584 206.412 125.424 206.628 125.424 206.884C125.424 207.18 125.572 207.416 125.868 207.592C126.172 207.768 126.728 207.912 127.536 208.024C128.536 208.16 129.252 208.392 129.684 208.72C130.116 209.048 130.332 209.488 130.332 210.04C130.332 210.472 130.192 210.848 129.912 211.168C129.64 211.488 129.268 211.732 128.796 211.9C128.324 212.076 127.8 212.164 127.224 212.164C126.624 212.164 126.096 212.072 125.64 211.888C125.184 211.712 124.824 211.464 124.56 211.144C124.304 210.832 124.16 210.476 124.128 210.076H125.34C125.38 210.372 125.564 210.628 125.892 210.844C126.228 211.052 126.684 211.156 127.26 211.156C127.796 211.156 128.24 211.06 128.592 210.868C128.944 210.668 129.12 210.416 129.12 210.112C129.12 209.824 128.956 209.596 128.628 209.428C128.308 209.252 127.748 209.112 126.948 209.008C126.004 208.88 125.312 208.656 124.872 208.336C124.432 208.008 124.212 207.548 124.212 206.956C124.212 206.564 124.34 206.216 124.596 205.912C124.86 205.608 125.216 205.376 125.664 205.216C126.112 205.048 126.616 204.964 127.176 204.964ZM134.978 212.164C134.322 212.164 133.73 212.008 133.202 211.696C132.682 211.384 132.274 210.956 131.978 210.412C131.682 209.86 131.534 209.244 131.534 208.564C131.534 207.884 131.682 207.272 131.978 206.728C132.274 206.176 132.682 205.744 133.202 205.432C133.73 205.12 134.322 204.964 134.978 204.964C135.634 204.964 136.222 205.12 136.742 205.432C137.27 205.744 137.678 206.176 137.966 206.728C138.262 207.272 138.41 207.884 138.41 208.564C138.41 208.788 138.402 208.956 138.386 209.068H132.77C132.834 209.668 133.066 210.16 133.466 210.544C133.874 210.928 134.378 211.12 134.978 211.12C135.434 211.12 135.834 211.028 136.178 210.844C136.53 210.652 136.77 210.412 136.898 210.124H138.158C137.966 210.724 137.582 211.212 137.006 211.588C136.43 211.972 135.754 212.164 134.978 212.164ZM137.198 208.06C137.126 207.452 136.89 206.96 136.49 206.584C136.09 206.2 135.586 206.008 134.978 206.008C134.37 206.008 133.866 206.2 133.466 206.584C133.066 206.96 132.834 207.452 132.77 208.06H137.198ZM143.064 212.164C142.408 212.164 141.816 212.008 141.288 211.696C140.768 211.384 140.36 210.956 140.064 210.412C139.768 209.86 139.62 209.244 139.62 208.564C139.62 207.884 139.768 207.272 140.064 206.728C140.36 206.176 140.768 205.744 141.288 205.432C141.816 205.12 142.408 204.964 143.064 204.964C143.72 204.964 144.308 205.12 144.828 205.432C145.356 205.744 145.764 206.176 146.052 206.728C146.348 207.272 146.496 207.884 146.496 208.564C146.496 208.788 146.488 208.956 146.472 209.068H140.856C140.92 209.668 141.152 210.16 141.552 210.544C141.96 210.928 142.464 211.12 143.064 211.12C143.52 211.12 143.92 211.028 144.264 210.844C144.616 210.652 144.856 210.412 144.984 210.124H146.244C146.052 210.724 145.668 211.212 145.092 211.588C144.516 211.972 143.84 212.164 143.064 212.164ZM145.284 208.06C145.212 207.452 144.976 206.96 144.576 206.584C144.176 206.2 143.672 206.008 143.064 206.008C142.456 206.008 141.952 206.2 141.552 206.584C141.152 206.96 140.92 207.452 140.856 208.06H145.284ZM44.5681 224.224H43.0441V229.996H41.8081V224.224H40.2841V223.132H41.8081V221.044H43.0441V223.132H44.5681V224.224ZM47.0791 220.084V224.176C47.2551 223.864 47.5431 223.584 47.9431 223.336C48.3511 223.088 48.8391 222.964 49.4071 222.964C49.9431 222.964 50.4191 223.088 50.8351 223.336C51.2591 223.584 51.5871 223.936 51.8191 224.392C52.0511 224.84 52.1671 225.368 52.1671 225.976V229.996H50.9311V226.192C50.9311 225.504 50.7711 224.976 50.4511 224.608C50.1391 224.232 49.7031 224.044 49.1431 224.044C48.7511 224.044 48.3991 224.156 48.0871 224.38C47.7751 224.596 47.5271 224.888 47.3431 225.256C47.1671 225.624 47.0791 226.02 47.0791 226.444V229.996H45.8431V220.084H47.0791ZM57.0365 230.164C56.3805 230.164 55.7885 230.008 55.2605 229.696C54.7405 229.384 54.3325 228.956 54.0365 228.412C53.7405 227.86 53.5925 227.244 53.5925 226.564C53.5925 225.884 53.7405 225.272 54.0365 224.728C54.3325 224.176 54.7405 223.744 55.2605 223.432C55.7885 223.12 56.3805 222.964 57.0365 222.964C57.6925 222.964 58.2805 223.12 58.8005 223.432C59.3285 223.744 59.7365 224.176 60.0245 224.728C60.3205 225.272 60.4685 225.884 60.4685 226.564C60.4685 226.788 60.4605 226.956 60.4445 227.068H54.8285C54.8925 227.668 55.1245 228.16 55.5245 228.544C55.9325 228.928 56.4365 229.12 57.0365 229.12C57.4925 229.12 57.8925 229.028 58.2365 228.844C58.5885 228.652 58.8285 228.412 58.9565 228.124H60.2165C60.0245 228.724 59.6405 229.212 59.0645 229.588C58.4885 229.972 57.8125 230.164 57.0365 230.164ZM59.2565 226.06C59.1845 225.452 58.9485 224.96 58.5485 224.584C58.1485 224.2 57.6445 224.008 57.0365 224.008C56.4285 224.008 55.9245 224.2 55.5245 224.584C55.1245 224.96 54.8925 225.452 54.8285 226.06H59.2565ZM68.7617 233.08C67.8337 233.08 67.0897 232.848 66.5297 232.384C65.9777 231.928 65.6377 231.348 65.5097 230.644H66.7697C66.8497 231.044 67.0537 231.372 67.3817 231.628C67.7177 231.884 68.1777 232.012 68.7617 232.012C69.3937 232.012 69.9017 231.812 70.2857 231.412C70.6777 231.02 70.8737 230.492 70.8737 229.828V228.88C70.6817 229.208 70.3737 229.488 69.9497 229.72C69.5257 229.952 69.0217 230.068 68.4377 230.068C67.7977 230.068 67.2177 229.912 66.6977 229.6C66.1857 229.296 65.7817 228.876 65.4857 228.34C65.1897 227.796 65.0417 227.192 65.0417 226.528C65.0417 225.864 65.1897 225.26 65.4857 224.716C65.7817 224.172 66.1857 223.744 66.6977 223.432C67.2177 223.12 67.7977 222.964 68.4377 222.964C69.0217 222.964 69.5257 223.08 69.9497 223.312C70.3737 223.544 70.6817 223.824 70.8737 224.152V223.132H72.1097V229.84C72.1097 230.464 71.9657 231.02 71.6777 231.508C71.3977 232.004 71.0017 232.388 70.4897 232.66C69.9857 232.94 69.4097 233.08 68.7617 233.08ZM68.5457 229C69.0017 229 69.4057 228.892 69.7577 228.676C70.1177 228.46 70.3977 228.164 70.5977 227.788C70.7977 227.412 70.8977 226.992 70.8977 226.528C70.8977 226.064 70.7977 225.644 70.5977 225.268C70.3977 224.892 70.1177 224.596 69.7577 224.38C69.4057 224.164 69.0017 224.056 68.5457 224.056C68.0977 224.056 67.6977 224.164 67.3457 224.38C67.0017 224.596 66.7337 224.892 66.5417 225.268C66.3497 225.644 66.2537 226.064 66.2537 226.528C66.2537 226.992 66.3497 227.412 66.5417 227.788C66.7337 228.164 67.0017 228.46 67.3457 228.676C67.6977 228.892 68.0977 229 68.5457 229ZM78.9821 229.996V228.952C78.8061 229.264 78.5141 229.544 78.1061 229.792C77.7061 230.04 77.2221 230.164 76.6541 230.164C76.1181 230.164 75.6381 230.04 75.2141 229.792C74.7981 229.544 74.4741 229.196 74.2421 228.748C74.0101 228.292 73.8941 227.76 73.8941 227.152V223.132H75.1301V226.936C75.1301 227.624 75.2861 228.156 75.5981 228.532C75.9181 228.9 76.3581 229.084 76.9181 229.084C77.3101 229.084 77.6621 228.976 77.9741 228.76C78.2861 228.536 78.5301 228.24 78.7061 227.872C78.8901 227.504 78.9821 227.108 78.9821 226.684V223.132H80.2181V229.996H78.9821ZM82.7715 219.964C83.0115 219.964 83.2075 220.044 83.3595 220.204C83.5195 220.356 83.5995 220.548 83.5995 220.78C83.5995 221.012 83.5195 221.208 83.3595 221.368C83.2075 221.52 83.0115 221.596 82.7715 221.596C82.5395 221.596 82.3435 221.52 82.1835 221.368C82.0315 221.208 81.9555 221.012 81.9555 220.78C81.9555 220.548 82.0315 220.356 82.1835 220.204C82.3435 220.044 82.5395 219.964 82.7715 219.964ZM82.1595 230.008V223.132H83.3955V230.008H82.1595ZM88.3713 230.164C87.7313 230.164 87.1513 230.008 86.6313 229.696C86.1193 229.384 85.7153 228.952 85.4193 228.4C85.1233 227.848 84.9753 227.236 84.9753 226.564C84.9753 225.892 85.1233 225.28 85.4193 224.728C85.7153 224.176 86.1193 223.744 86.6313 223.432C87.1513 223.12 87.7313 222.964 88.3713 222.964C88.9553 222.964 89.4593 223.08 89.8833 223.312C90.3073 223.544 90.6153 223.824 90.8073 224.152V220.084H92.0433V229.996H90.8073V228.976C90.6153 229.304 90.3073 229.584 89.8833 229.816C89.4593 230.048 88.9553 230.164 88.3713 230.164ZM88.4793 229.072C88.9353 229.072 89.3393 228.964 89.6913 228.748C90.0513 228.524 90.3313 228.224 90.5313 227.848C90.7313 227.464 90.8313 227.036 90.8313 226.564C90.8313 226.092 90.7313 225.668 90.5313 225.292C90.3313 224.908 90.0513 224.608 89.6913 224.392C89.3393 224.168 88.9353 224.056 88.4793 224.056C88.0313 224.056 87.6313 224.164 87.2793 224.38C86.9353 224.596 86.6673 224.896 86.4753 225.28C86.2833 225.664 86.1873 226.092 86.1873 226.564C86.1873 227.036 86.2833 227.464 86.4753 227.848C86.6673 228.232 86.9353 228.532 87.2793 228.748C87.6313 228.964 88.0313 229.072 88.4793 229.072ZM97.0677 230.164C96.4117 230.164 95.8197 230.008 95.2917 229.696C94.7717 229.384 94.3637 228.956 94.0677 228.412C93.7717 227.86 93.6237 227.244 93.6237 226.564C93.6237 225.884 93.7717 225.272 94.0677 224.728C94.3637 224.176 94.7717 223.744 95.2917 223.432C95.8197 223.12 96.4117 222.964 97.0677 222.964C97.7237 222.964 98.3117 223.12 98.8317 223.432C99.3597 223.744 99.7677 224.176 100.056 224.728C100.352 225.272 100.5 225.884 100.5 226.564C100.5 226.788 100.492 226.956 100.476 227.068H94.8597C94.9237 227.668 95.1557 228.16 95.5557 228.544C95.9637 228.928 96.4677 229.12 97.0677 229.12C97.5237 229.12 97.9237 229.028 98.2677 228.844C98.6197 228.652 98.8597 228.412 98.9877 228.124H100.248C100.056 228.724 99.6717 229.212 99.0957 229.588C98.5197 229.972 97.8437 230.164 97.0677 230.164ZM99.2877 226.06C99.2157 225.452 98.9797 224.96 98.5797 224.584C98.1797 224.2 97.6757 224.008 97.0677 224.008C96.4597 224.008 95.9557 224.2 95.5557 224.584C95.1557 224.96 94.9237 225.452 94.8597 226.06H99.2877ZM102.742 231.208H101.758L102.142 228.496H103.342L102.742 231.208ZM114.735 227.668C114.551 228.42 114.163 229.024 113.571 229.48C112.987 229.936 112.299 230.164 111.507 230.164C110.835 230.164 110.231 230.008 109.695 229.696C109.159 229.384 108.739 228.956 108.435 228.412C108.131 227.86 107.979 227.244 107.979 226.564C107.979 225.884 108.127 225.272 108.423 224.728C108.727 224.176 109.147 223.744 109.683 223.432C110.219 223.12 110.819 222.964 111.483 222.964C112.011 222.964 112.499 223.072 112.947 223.288C113.403 223.496 113.783 223.788 114.087 224.164C114.391 224.54 114.599 224.964 114.711 225.436H113.451C113.307 225.02 113.063 224.688 112.719 224.44C112.375 224.184 111.963 224.056 111.483 224.056C111.035 224.056 110.635 224.168 110.283 224.392C109.939 224.608 109.671 224.908 109.479 225.292C109.287 225.668 109.191 226.092 109.191 226.564C109.191 227.036 109.287 227.464 109.479 227.848C109.671 228.224 109.939 228.524 110.283 228.748C110.635 228.964 111.035 229.072 111.483 229.072C111.963 229.072 112.379 228.944 112.731 228.688C113.083 228.432 113.331 228.092 113.475 227.668H114.735ZM116.249 229.996V220.084H117.485V229.996H116.249ZM120.037 219.964C120.277 219.964 120.473 220.044 120.625 220.204C120.785 220.356 120.865 220.548 120.865 220.78C120.865 221.012 120.785 221.208 120.625 221.368C120.473 221.52 120.277 221.596 120.037 221.596C119.805 221.596 119.609 221.52 119.449 221.368C119.297 221.208 119.221 221.012 119.221 220.78C119.221 220.548 119.297 220.356 119.449 220.204C119.609 220.044 119.805 219.964 120.037 219.964ZM119.425 230.008V223.132H120.661V230.008H119.425ZM128.997 227.668C128.813 228.42 128.425 229.024 127.833 229.48C127.249 229.936 126.561 230.164 125.769 230.164C125.097 230.164 124.493 230.008 123.957 229.696C123.421 229.384 123.001 228.956 122.697 228.412C122.393 227.86 122.241 227.244 122.241 226.564C122.241 225.884 122.389 225.272 122.685 224.728C122.989 224.176 123.409 223.744 123.945 223.432C124.481 223.12 125.081 222.964 125.745 222.964C126.273 222.964 126.761 223.072 127.209 223.288C127.665 223.496 128.045 223.788 128.349 224.164C128.653 224.54 128.861 224.964 128.973 225.436H127.713C127.569 225.02 127.325 224.688 126.981 224.44C126.637 224.184 126.225 224.056 125.745 224.056C125.297 224.056 124.897 224.168 124.545 224.392C124.201 224.608 123.933 224.908 123.741 225.292C123.549 225.668 123.453 226.092 123.453 226.564C123.453 227.036 123.549 227.464 123.741 227.848C123.933 228.224 124.201 228.524 124.545 228.748C124.897 228.964 125.297 229.072 125.745 229.072C126.225 229.072 126.641 228.944 126.993 228.688C127.345 228.432 127.593 228.092 127.737 227.668H128.997ZM133.031 226.852L131.675 228.28V229.996H130.439V220.084H131.675V226.804L135.095 223.132H136.547L133.811 226.024L136.835 229.996H135.371L133.031 226.852ZM138.47 230.152C138.23 230.152 138.026 230.068 137.858 229.9C137.698 229.74 137.618 229.54 137.618 229.3C137.618 229.06 137.698 228.86 137.858 228.7C138.026 228.532 138.23 228.448 138.47 228.448C138.71 228.448 138.91 228.532 139.07 228.7C139.23 228.86 139.31 229.06 139.31 229.3C139.31 229.54 139.23 229.74 139.07 229.9C138.91 230.068 138.71 230.152 138.47 230.152Z" fill="#A2A2A2"/>
<g clip-path="url(#clip0_5380_63518)">
<path d="M7.11055 87.0244C0.259617 64.3482 -12.3145 48.8649 31.0997 31.2758C74.514 13.6867 89.7847 27.5542 98.3893 7.96135C106.994 -11.6315 133.484 9.57734 130.204 22.1703C126.925 34.7632 160.947 52.007 148.481 76.2021C136.015 100.397 127.017 116.142 58.4954 121.981C-10.026 127.819 13.9605 109.696 7.11055 87.0244Z" fill="#1C1C21"/>
<path d="M29.5651 129.189C29.5651 129.189 31.8238 53.2411 83.3718 56.8476C134.92 60.4541 140.63 105.754 140.63 105.754L154.709 93.7357L160.34 101.842L147.352 118.439C147.352 118.439 141.796 129.718 131.09 122.508C120.385 115.298 126.25 105.751 126.25 105.751V134.058H66.4853C66.4853 134.058 24.7859 160.277 29.5651 129.186V129.189Z" fill="#40424B"/>
<path d="M80.4766 56.9557C80.4766 56.9557 82.0623 50.6668 84.7349 46.6351C83.6691 44.9596 80.8475 38.8677 90.594 32.0819C102.062 24.0963 104.592 38.1829 104.592 38.1829C104.592 38.1829 107.162 62.0357 95.2843 54.1551L97.101 55.5115C97.201 58.509 95.7462 67.2904 96.5011 69.0578C96.5461 69.1588 96.5291 69.2133 96.4561 69.2133C95.3083 69.2113 80.4766 56.9557 80.4766 56.9557ZM93.5615 52.8685C92.9116 52.3332 92.2257 51.7161 91.5008 51.0092L92.6947 52.2211L93.5615 52.8685Z" fill="white"/>
<path d="M96.4549 69.8697C96.077 69.8697 95.516 69.8697 87.6313 63.6C83.8189 60.5702 80.0994 57.4949 80.0624 57.4646C79.9667 57.3854 79.8953 57.2802 79.8566 57.1614C79.818 57.0426 79.8138 56.9152 79.8445 56.794C80.7612 53.2321 82.1471 49.8105 83.9648 46.6209C83.0359 44.9716 82.6837 43.0545 82.965 41.1783C83.4649 37.79 85.9055 34.5481 90.2229 31.5415C92.16 30.0246 94.5036 29.1305 96.9498 28.9752C99.6984 28.9752 102.009 30.5729 103.632 33.5947C104.374 35.0001 104.913 36.5058 105.232 38.0657C105.232 38.0812 105.234 38.0967 105.239 38.1122C105.294 38.6232 106.538 50.6677 102.785 54.8964C102.382 55.3755 101.88 55.7594 101.314 56.0212C100.748 56.2829 100.133 56.4161 99.5104 56.4113C98.9123 56.4037 98.3187 56.305 97.7497 56.1184C97.7247 57.3636 97.5497 59.1482 97.3698 61.0196C97.0888 63.9161 96.7039 67.8872 97.0958 68.7962C97.154 68.9141 97.1812 69.0453 97.1745 69.1769C97.1678 69.3085 97.1276 69.4362 97.0578 69.5476C96.9917 69.6476 96.902 69.7295 96.7967 69.7857C96.6915 69.842 96.574 69.8708 96.4549 69.8697ZM81.2113 56.7163C82.1741 57.5091 85.1287 59.9329 88.1902 62.3719C92.5465 65.8431 94.6472 67.3752 95.659 68.0488C95.6344 65.6551 95.7741 63.2625 96.077 60.8883C96.2699 58.9048 96.4519 57.0223 96.4539 55.8457L94.8951 54.6782C94.7596 54.5764 94.6686 54.4253 94.6415 54.2569C94.6144 54.0885 94.6532 53.916 94.7498 53.7761C94.8464 53.6361 94.9931 53.5396 95.1589 53.507C95.3247 53.4745 95.4966 53.5084 95.638 53.6016C96.7639 54.457 98.1064 54.9731 99.5104 55.0903C99.9498 55.0948 100.385 55.0006 100.784 54.8146C101.182 54.6286 101.535 54.3554 101.817 54.0147C103.188 52.4715 103.995 49.274 104.149 44.7707C104.216 42.6033 104.15 40.4337 103.949 38.2747C103.646 36.8515 103.148 35.4779 102.47 34.1936C101.075 31.6021 99.2165 30.2881 96.9498 30.2881C94.7673 30.4471 92.6814 31.2601 90.9588 32.6231C89.0288 33.8989 87.332 35.5025 85.9435 37.3628C85.0737 38.5453 84.493 39.9188 84.2488 41.3712C83.9921 43.0792 84.3577 44.8232 85.2776 46.2795C85.347 46.3873 85.3835 46.5133 85.3826 46.6419C85.3817 46.7704 85.3435 46.8959 85.2726 47.0027C83.4814 50.0356 82.1146 53.3045 81.2113 56.7163ZM93.5584 53.5259C93.4194 53.5261 93.2841 53.4811 93.1724 53.3976L92.3045 52.7502C92.2779 52.7303 92.2529 52.7084 92.2296 52.6846L91.0417 51.4787C90.9182 51.3572 90.8474 51.1912 90.8451 51.017C90.8427 50.8429 90.909 50.6749 91.0292 50.5501C91.1495 50.4253 91.3139 50.3538 91.4863 50.3514C91.6587 50.3491 91.825 50.416 91.9486 50.5374C92.6485 51.2171 93.3264 51.8312 93.9693 52.3604C94.0734 52.446 94.1486 52.5621 94.1848 52.6927C94.2209 52.8232 94.2161 52.9619 94.1711 53.0896C94.1261 53.2174 94.043 53.3279 93.9333 53.406C93.8236 53.4841 93.6926 53.526 93.5584 53.5259Z" fill="#707070"/>
<path d="M93.4616 35.7328C97.1926 37.0583 101.184 37.4618 105.101 36.9093C111.461 35.9549 112.513 30.0417 109.161 26.7907C105.81 23.5397 96.879 18.4799 88.2984 24.4144C79.7177 30.3488 72.8008 45.7776 72.8008 45.7776L88.2984 47.5682L89.4982 44.6313C89.4982 44.6313 86.5237 38.1485 91.3159 38.4455C94.6374 39.6917 93.4616 35.7328 93.4616 35.7328Z" fill="#393A41"/>
<path d="M44.1718 125.302C44.0541 125.27 43.9476 125.205 43.8646 125.115C43.7816 125.024 43.7255 124.912 43.7025 124.792C43.6796 124.671 43.6907 124.546 43.7348 124.431C43.7788 124.316 43.854 124.216 43.9516 124.142C46.1435 122.568 48.5484 121.321 51.0923 120.439C53.2135 119.67 55.4699 119.356 57.7181 119.515C60.2158 119.725 62.5568 120.83 64.318 122.631C64.3785 122.692 64.4265 122.765 64.4592 122.844C64.492 122.924 64.509 123.009 64.5091 123.095C64.5092 123.182 64.4926 123.267 64.4601 123.347C64.4275 123.426 64.3798 123.499 64.3195 123.56C64.2592 123.621 64.1877 123.67 64.1089 123.703C64.0301 123.736 63.9455 123.753 63.8602 123.753C63.6878 123.753 63.5224 123.684 63.4003 123.561C61.8517 121.978 59.7935 121.007 57.5977 120.823C55.5299 120.68 53.4554 120.973 51.5056 121.683C49.0949 122.525 46.8139 123.706 44.7301 125.192C44.6515 125.252 44.5603 125.293 44.4635 125.312C44.3668 125.331 44.267 125.327 44.1718 125.302Z" fill="#707070"/>
<path d="M22.2695 74.512L11.8242 68.4205L5.79366 78.9712L16.2389 85.0627L22.2695 74.512Z" fill="#313131"/>
<path d="M141.168 35.6974C139.571 35.6974 138.01 36.1757 136.682 37.072C135.354 37.9682 134.319 39.242 133.708 40.7324C133.097 42.2227 132.937 43.8627 133.249 45.4449C133.56 47.027 134.329 48.4803 135.458 49.621C136.588 50.7617 138.027 51.5385 139.593 51.8532C141.159 52.1679 142.783 52.0064 144.258 51.3891C145.734 50.7717 146.995 49.7263 147.882 48.385C148.769 47.0437 149.243 45.4668 149.243 43.8536C149.241 41.6912 148.389 39.618 146.875 38.0889C145.361 36.5599 143.309 35.6998 141.168 35.6974ZM141.168 33.6775C143.161 33.6775 145.109 34.2743 146.765 35.3925C148.422 36.5107 149.713 38.1 150.476 39.9594C151.238 41.8189 151.438 43.8649 151.049 45.8389C150.66 47.8129 149.701 49.6261 148.292 51.0493C146.883 52.4724 145.088 53.4416 143.134 53.8343C141.179 54.2269 139.154 54.0254 137.313 53.2552C135.472 52.485 133.899 51.1807 132.792 49.5072C131.685 47.8338 131.094 45.8663 131.094 43.8536C131.094 41.1548 132.155 38.5664 134.044 36.658C135.934 34.7496 138.496 33.6775 141.168 33.6775V33.6775Z" fill="#41424B"/>
<path d="M37.0828 42.6205L45.0041 45.6382L38.6463 51.0269L37.0828 42.6205Z" fill="#313131"/>
<path d="M100.148 48.4398H97.5017C97.3293 48.4398 97.1639 48.3706 97.042 48.2475C96.9201 48.1244 96.8516 47.9576 96.8516 47.7835C96.8516 47.6094 96.9201 47.4423 97.042 47.3192C97.1639 47.1961 97.3293 47.1269 97.5017 47.1269H99.5017V41.4166C99.5017 41.2425 99.5702 41.0757 99.6921 40.9526C99.814 40.8295 99.9792 40.7603 100.152 40.7603C100.324 40.7603 100.489 40.8295 100.611 40.9526C100.733 41.0757 100.802 41.2425 100.802 41.4166V47.7793C100.802 47.8662 100.786 47.9524 100.753 48.0328C100.72 48.1131 100.672 48.1861 100.611 48.2475C100.55 48.309 100.478 48.3578 100.399 48.3908C100.319 48.4238 100.234 48.4404 100.148 48.4398Z" fill="#707070"/>
<path d="M124.058 102.008C123.966 102.022 123.871 102.017 123.781 101.991C123.691 101.966 123.607 101.921 123.536 101.86C123.465 101.799 123.407 101.723 123.368 101.637C123.328 101.552 123.307 101.459 123.306 101.364C123.294 98.6307 123.087 95.9016 122.686 93.1983C122.66 93.0262 122.702 92.8507 122.804 92.7104C122.907 92.5701 123.06 92.4765 123.23 92.4502C123.4 92.4238 123.574 92.467 123.713 92.5701C123.852 92.6732 123.945 92.8278 123.971 92.9999C124.382 95.7657 124.594 98.5578 124.607 101.355C124.608 101.512 124.553 101.664 124.452 101.784C124.352 101.904 124.212 101.983 124.058 102.008ZM122.661 89.784C122.499 89.8096 122.334 89.7727 122.198 89.6807C122.062 89.5887 121.966 89.4484 121.928 89.2877C121.228 86.2215 120.135 83.2607 118.676 80.4804C118.159 79.4793 117.547 78.5317 116.848 77.6511C116.791 77.5864 116.747 77.511 116.719 77.4292C116.691 77.3474 116.68 77.2608 116.685 77.1745C116.69 77.0881 116.712 77.0036 116.75 76.9259C116.788 76.8482 116.84 76.7788 116.905 76.7217C116.969 76.6642 117.044 76.62 117.125 76.5918C117.205 76.5635 117.291 76.5517 117.377 76.5571C117.462 76.5624 117.546 76.5847 117.623 76.6228C117.7 76.6609 117.768 76.714 117.825 76.779C117.962 76.9421 121.233 80.7616 123.193 88.981C123.213 89.0652 123.216 89.1525 123.203 89.2379C123.19 89.3234 123.159 89.4053 123.115 89.479C123.07 89.5527 123.011 89.6168 122.941 89.6674C122.872 89.718 122.793 89.7543 122.71 89.7741L122.661 89.784Z" fill="#707070"/>
<path d="M133.891 99.0569C133.15 98.3826 132.704 97.4385 132.652 96.4322C132.6 95.426 132.945 94.4399 133.613 93.6911C134.28 92.9423 135.215 92.4919 136.211 92.4392C137.208 92.3865 138.184 92.7356 138.925 93.4099L142.081 96.2806L144.594 93.4624L141.437 90.5916C141.061 90.2605 140.754 89.8569 140.533 89.4046C140.313 88.9522 140.184 88.4601 140.154 87.9568C140.124 87.4536 140.193 86.9493 140.358 86.4734C140.522 85.9975 140.779 85.5594 141.113 85.1848C141.447 84.8101 141.851 84.5063 142.303 84.2912C142.754 84.076 143.243 83.9537 143.742 83.9314C144.241 83.9091 144.739 83.9873 145.207 84.1614C145.676 84.3355 146.105 84.602 146.47 84.9454L149.627 87.8161L154.076 82.8251C153.97 82.629 153.869 82.4293 153.774 82.226C152.561 79.6276 152.396 76.6548 153.312 73.9352C154.015 71.864 155.318 70.0541 157.053 68.7405C158.787 67.4268 160.872 66.6699 163.038 66.5681C165.939 66.4269 168.778 67.4492 170.936 69.4123C173.094 71.3754 174.398 74.1203 174.562 77.0494C174.658 78.8502 174.313 80.6472 173.558 82.2814C172.803 83.9155 171.661 85.3365 170.233 86.4186C168.804 87.5007 167.134 88.2105 165.37 88.4852C163.605 88.76 161.801 88.5912 160.116 87.9938C160.004 87.954 159.892 87.9125 159.78 87.8693L145.2 104.226C144.533 104.975 143.598 105.426 142.602 105.48C141.606 105.533 140.63 105.185 139.888 104.511L133.891 99.0569ZM163.424 73.4478C162.887 73.4734 162.36 73.6063 161.874 73.8388C161.389 74.0713 160.953 74.3987 160.594 74.8022C160.234 75.2057 159.957 75.6772 159.779 76.1895C159.601 76.7017 159.525 77.2446 159.556 77.7866C159.619 78.8863 160.109 79.9165 160.92 80.6536C161.73 81.3906 162.796 81.7752 163.885 81.7237C164.422 81.6981 164.948 81.5652 165.434 81.3327C165.92 81.1002 166.355 80.7728 166.715 80.3693C167.074 79.9658 167.351 79.4943 167.529 78.982C167.708 78.4698 167.783 77.9269 167.753 77.3849C167.689 76.2852 167.199 75.255 166.389 74.5179C165.578 73.7809 164.513 73.3963 163.424 73.4478Z" fill="white"/>
<path d="M139.452 104.997L133.455 99.5432C132.585 98.7525 132.062 97.6452 132.001 96.4651C131.94 95.2849 132.345 94.1285 133.128 93.2503C133.911 92.3721 135.007 91.844 136.175 91.7821C137.344 91.7203 138.489 92.1298 139.358 92.9205L142.033 95.3533L143.674 93.5123L140.999 91.0795C140.559 90.6908 140.199 90.2175 139.941 89.6872C139.684 89.1569 139.533 88.58 139.498 87.9903C139.463 87.4006 139.544 86.8097 139.737 86.252C139.931 85.6944 140.232 85.1811 140.623 84.7421C141.014 84.303 141.488 83.947 142.017 83.6946C142.546 83.4423 143.119 83.2987 143.704 83.2722C144.288 83.2458 144.872 83.3369 145.421 83.5404C145.97 83.7439 146.473 84.0556 146.902 84.4575L149.577 86.8903L153.289 82.7264L153.184 82.5074C151.899 79.7543 151.723 76.6045 152.694 73.7231C153.44 71.5274 154.822 69.6089 156.661 68.2165C158.5 66.8241 160.711 66.0221 163.006 65.9145C165.311 65.8063 167.597 66.3897 169.574 67.5911C171.552 68.7926 173.133 70.5585 174.119 72.6662C175.404 75.4188 175.579 78.5681 174.609 81.449C173.863 83.6447 172.481 85.5632 170.642 86.9556C168.803 88.348 166.592 89.15 164.297 89.2576C162.828 89.3317 161.359 89.1221 159.969 88.6401L145.682 104.668C145.041 105.391 144.182 105.881 143.238 106.061C143.153 106.079 143.066 106.08 142.982 106.063C142.897 106.047 142.816 106.013 142.744 105.965C142.673 105.917 142.611 105.855 142.563 105.782C142.516 105.709 142.483 105.628 142.466 105.542C142.45 105.457 142.451 105.369 142.469 105.283C142.487 105.198 142.521 105.117 142.57 105.046C142.619 104.974 142.682 104.913 142.754 104.866C142.827 104.819 142.908 104.787 142.993 104.772C143.659 104.644 144.264 104.299 144.716 103.789L159.296 87.432C159.384 87.3333 159.5 87.2639 159.628 87.233C159.756 87.2021 159.89 87.2111 160.013 87.259C160.118 87.2999 160.224 87.3393 160.329 87.3767C162.855 88.267 165.624 88.1317 168.052 86.9993C169.292 86.4156 170.402 85.5856 171.317 84.5589C172.233 83.5323 172.934 82.3299 173.379 81.0236C174.24 78.4657 174.084 75.6699 172.943 73.2261C172.07 71.3509 170.666 69.7797 168.908 68.7115C167.15 67.6433 165.118 67.1261 163.069 67.2256C161.392 67.3121 159.763 67.8145 158.325 68.6885C156.886 69.5626 155.683 70.7812 154.822 72.2366C153.961 73.692 153.469 75.3393 153.388 77.0328C153.307 78.7263 153.641 80.4138 154.36 81.946C154.449 82.1358 154.544 82.3253 154.644 82.5102C154.708 82.6295 154.735 82.7661 154.719 82.9012C154.704 83.0363 154.647 83.1631 154.557 83.2642L150.106 88.2575C149.991 88.3869 149.829 88.4647 149.657 88.4738C149.485 88.4829 149.316 88.4226 149.188 88.3061L146.031 85.4347C145.729 85.1499 145.374 84.9286 144.986 84.784C144.598 84.6394 144.186 84.5742 143.773 84.5923C143.36 84.6104 142.955 84.7115 142.581 84.8895C142.207 85.0675 141.872 85.319 141.596 85.6293C141.319 85.9395 141.106 86.3023 140.97 86.6965C140.834 87.0906 140.777 87.5082 140.802 87.9249C140.828 88.3416 140.935 88.749 141.118 89.1234C141.301 89.4977 141.556 89.8315 141.868 90.1053L145.024 92.976C145.152 93.0925 145.229 93.2556 145.238 93.4295C145.247 93.6034 145.187 93.7737 145.072 93.9031L142.561 96.7198C142.446 96.8492 142.284 96.927 142.112 96.9362C141.94 96.9453 141.771 96.8849 141.643 96.7684L138.487 93.8977C138.183 93.6215 137.829 93.4085 137.444 93.2707C137.058 93.1329 136.65 93.0731 136.242 93.0947C135.834 93.1163 135.434 93.2189 135.065 93.3966C134.697 93.5743 134.366 93.8236 134.093 94.1303C133.819 94.4371 133.608 94.7952 133.472 95.1842C133.336 95.5733 133.276 95.9857 133.298 96.3979C133.319 96.81 133.421 97.2139 133.597 97.5864C133.773 97.959 134.019 98.2929 134.323 98.569L140.32 104.023C140.448 104.14 140.525 104.303 140.534 104.477C140.543 104.651 140.483 104.821 140.368 104.95C140.253 105.08 140.091 105.158 139.919 105.167C139.747 105.176 139.578 105.115 139.45 104.999L139.452 104.997Z" fill="#707070"/>
<path d="M158.556 103.788C163.041 100.588 168.03 97.4322 165.568 89.1517C163.107 80.8712 159.562 87.7287 159.562 87.7287C159.562 87.7287 153.845 96.2605 153.594 100.276C153.343 104.292 154.071 106.988 158.556 103.788Z" fill="white"/>
<path d="M155.4 105.853C155.108 105.859 154.817 105.804 154.548 105.69C154.278 105.575 154.035 105.406 153.834 105.191C153.058 104.355 152.785 102.825 152.948 100.231C153.202 96.1656 158.572 88.0376 159.007 87.3872C159.237 86.9529 160.665 84.403 162.578 84.403C162.978 84.4194 163.369 84.5288 163.72 84.7228C164.071 84.9167 164.372 85.1898 164.602 85.5209C165.343 86.5534 165.883 87.7185 166.194 88.9546C167.174 92.25 167.094 95.0215 165.956 97.4271C164.841 99.5101 163.241 101.288 161.295 102.61C161.227 102.662 161.149 102.699 161.066 102.721C160.984 102.742 160.898 102.747 160.813 102.734C160.729 102.722 160.647 102.693 160.574 102.649C160.501 102.605 160.436 102.547 160.385 102.478C160.334 102.409 160.297 102.33 160.276 102.247C160.255 102.163 160.25 102.076 160.263 101.991C160.275 101.906 160.303 101.823 160.347 101.749C160.391 101.675 160.448 101.61 160.516 101.559C162.291 100.36 163.755 98.7485 164.785 96.8595C165.779 94.7619 165.833 92.2996 164.951 89.3313C164.257 86.9964 163.415 85.7098 162.579 85.7098C161.642 85.7098 160.532 87.2681 160.142 88.0236C160.131 88.0454 160.118 88.0667 160.104 88.0872C160.048 88.171 154.484 96.517 154.246 100.307C154.113 102.421 154.294 103.759 154.784 104.287C154.863 104.371 154.959 104.437 155.066 104.48C155.173 104.523 155.288 104.541 155.402 104.534C155.575 104.534 155.74 104.603 155.862 104.726C155.984 104.849 156.052 105.016 156.052 105.191C156.052 105.365 155.984 105.531 155.862 105.655C155.74 105.778 155.575 105.847 155.402 105.847L155.4 105.853Z" fill="#707070"/>
<path d="M78.5855 126.876C71.9139 123.302 64.8977 119.072 58.5018 127.383C52.1059 135.694 61.7145 135.781 61.7145 135.781C61.7145 135.781 74.6808 137.517 78.9012 135.292C83.1216 133.067 85.2565 130.448 78.5855 126.876Z" fill="white"/>
<path d="M82.9916 129.576C83.2265 129.922 83.3852 130.315 83.4568 130.729C83.5284 131.142 83.5113 131.567 83.4069 131.973C83.0473 133.309 81.7102 134.549 79.1998 135.873C74.9219 138.131 62.5905 136.56 61.6649 136.438C61.2044 136.427 57.5352 136.275 56.1627 134.057C55.0917 132.326 55.706 129.946 57.9873 126.982C60.8948 123.205 64.2119 121.567 68.129 121.975C71.5153 122.328 74.8857 124.141 78.1449 125.895L78.8891 126.295C79.2952 126.515 79.6744 126.73 80.0233 126.943C80.0963 126.988 80.1599 127.046 80.2104 127.116C80.2608 127.185 80.2972 127.264 80.3174 127.348C80.3377 127.432 80.3414 127.519 80.3284 127.604C80.3154 127.689 80.286 127.771 80.2417 127.845C80.1974 127.919 80.1391 127.983 80.0703 128.034C80.0015 128.085 79.9234 128.121 79.8405 128.142C79.7576 128.162 79.6716 128.166 79.5872 128.153C79.5029 128.14 79.422 128.11 79.349 128.065C79.0219 127.864 78.665 127.663 78.2802 127.455L77.5333 127.054C74.3833 125.358 71.1267 123.606 67.9941 123.28C66.4549 123.093 64.8946 123.333 63.4805 123.975C61.704 124.856 60.1691 126.165 59.0109 127.787C57.6964 129.494 56.3268 131.846 57.2626 133.359C58.1396 134.776 60.7746 135.113 61.7162 135.124C61.7427 135.124 61.769 135.126 61.7953 135.13C61.8276 135.135 65.0595 135.563 68.7596 135.714C74.8393 135.965 77.4667 135.304 78.5976 134.708C80.7057 133.595 81.901 132.558 82.1539 131.629C82.2093 131.397 82.2145 131.155 82.1691 130.921C82.1237 130.687 82.0287 130.466 81.8907 130.272C81.7994 130.124 81.7699 129.946 81.8087 129.776C81.8475 129.607 81.9514 129.459 82.0976 129.367C82.2437 129.275 82.4201 129.245 82.588 129.284C82.756 129.323 82.9016 129.428 82.993 129.576L82.9916 129.576Z" fill="#707070"/>
<path d="M97.6133 40.3976C97.6133 39.8399 97.1656 39.3877 96.6133 39.3877C96.061 39.3877 95.6133 39.8399 95.6133 40.3976V42.4175C95.6133 42.9753 96.061 43.4275 96.6133 43.4275C97.1656 43.4275 97.6133 42.9753 97.6133 42.4175V40.3976Z" fill="#313131"/>
<path d="M103.613 40.3976C103.613 39.8399 103.166 39.3877 102.613 39.3877C102.061 39.3877 101.613 39.8399 101.613 40.3976V42.4175C101.613 42.9753 102.061 43.4275 102.613 43.4275C103.166 43.4275 103.613 42.9753 103.613 42.4175V40.3976Z" fill="#313131"/>
<circle cx="163.5" cy="77.5" r="3.85" fill="white" stroke="#707070" stroke-width="1.3"/>
</g>
<defs>
<clipPath id="clip0_5380_63518">
<rect width="180" height="146" fill="white"/>
</clipPath>
</defs>
</svg>
