<svg width="32" height="16" viewBox="0 0 32 16" fill="none" xmlns="http://www.w3.org/2000/svg">
<rect x="0.5" y="0.5" width="31" height="15" rx="7.5" fill="white"/>
<path d="M11.6178 8.79L10.5078 10.07V11.9H8.68777V3.75H10.5078V7.59L13.7678 3.75H15.9978L12.7978 7.44L16.1678 11.9H13.8978L11.6178 8.79ZM21.7995 11.9L20.2195 9.33H18.7695V11.9H16.9495V3.75H20.2295C20.9095 3.75 21.4962 3.86667 21.9895 4.1C22.4828 4.32667 22.8595 4.65 23.1195 5.07C23.3795 5.49 23.5095 5.98 23.5095 6.54C23.5095 7.1 23.3795 7.59 23.1195 8.01C22.8662 8.42333 22.4995 8.74333 22.0195 8.97L23.9095 11.9H21.7995ZM18.7695 7.72H20.1495C20.6362 7.72 21.0128 7.62 21.2795 7.42C21.5528 7.21333 21.6895 6.92 21.6895 6.54C21.6895 6.16 21.5528 5.87 21.2795 5.67C21.0128 5.46333 20.6362 5.36 20.1495 5.36H18.7695V7.72Z" fill="#707070"/>
<rect x="0.5" y="0.5" width="31" height="15" rx="7.5" stroke="#C1C1C1"/>
</svg>
