<svg width="220" height="261" viewBox="0 0 220 261" fill="none" xmlns="http://www.w3.org/2000/svg">
<rect y="105" width="220" height="156" rx="14" fill="#F1F8FE"/>
<rect x="58" y="201" width="104" height="40" rx="8" fill="#3682F9"/>
<path d="M92.9481 214.948L97.2741 222.564L101.6 214.948H102.888V226.162H101.418V217.888L97.8061 224.272H96.7421L93.1301 217.888V226.162H91.6601V214.948H92.9481ZM108.889 217.958C109.664 217.958 110.364 218.14 110.989 218.504C111.615 218.868 112.1 219.372 112.445 220.016C112.8 220.651 112.977 221.365 112.977 222.158C112.977 222.951 112.8 223.67 112.445 224.314C112.1 224.949 111.615 225.448 110.989 225.812C110.364 226.176 109.664 226.358 108.889 226.358C108.105 226.358 107.401 226.176 106.775 225.812C106.159 225.448 105.674 224.949 105.319 224.314C104.965 223.67 104.787 222.951 104.787 222.158C104.787 221.365 104.965 220.651 105.319 220.016C105.674 219.372 106.159 218.868 106.775 218.504C107.401 218.14 108.105 217.958 108.889 217.958ZM108.889 219.232C108.367 219.232 107.9 219.363 107.489 219.624C107.088 219.876 106.771 220.226 106.537 220.674C106.313 221.113 106.201 221.607 106.201 222.158C106.201 222.709 106.313 223.208 106.537 223.656C106.771 224.095 107.088 224.445 107.489 224.706C107.9 224.958 108.367 225.084 108.889 225.084C109.403 225.084 109.865 224.958 110.275 224.706C110.686 224.445 111.003 224.095 111.227 223.656C111.451 223.208 111.563 222.709 111.563 222.158C111.563 221.607 111.451 221.113 111.227 220.674C111.003 220.226 110.686 219.876 110.275 219.624C109.865 219.363 109.403 219.232 108.889 219.232ZM116.261 218.154V219.386C116.475 219.022 116.83 218.695 117.325 218.406C117.829 218.107 118.435 217.958 119.145 217.958C119.602 217.958 119.966 218.005 120.237 218.098V219.47C119.91 219.321 119.513 219.246 119.047 219.246C118.515 219.246 118.034 219.377 117.605 219.638C117.185 219.89 116.853 220.231 116.611 220.66C116.377 221.08 116.261 221.533 116.261 222.018V226.162H114.819V218.154H116.261ZM124.842 226.358C124.077 226.358 123.386 226.176 122.77 225.812C122.164 225.448 121.688 224.949 121.342 224.314C120.997 223.67 120.824 222.951 120.824 222.158C120.824 221.365 120.997 220.651 121.342 220.016C121.688 219.372 122.164 218.868 122.77 218.504C123.386 218.14 124.077 217.958 124.842 217.958C125.608 217.958 126.294 218.14 126.9 218.504C127.516 218.868 127.992 219.372 128.328 220.016C128.674 220.651 128.846 221.365 128.846 222.158C128.846 222.419 128.837 222.615 128.818 222.746H122.266C122.341 223.446 122.612 224.02 123.078 224.468C123.554 224.916 124.142 225.14 124.842 225.14C125.374 225.14 125.841 225.033 126.242 224.818C126.653 224.594 126.933 224.314 127.082 223.978H128.552C128.328 224.678 127.88 225.247 127.208 225.686C126.536 226.134 125.748 226.358 124.842 226.358ZM127.432 221.57C127.348 220.861 127.073 220.287 126.606 219.848C126.14 219.4 125.552 219.176 124.842 219.176C124.133 219.176 123.545 219.4 123.078 219.848C122.612 220.287 122.341 220.861 122.266 221.57H127.432Z" fill="white"/>
<path d="M85.511 136.912H80.455L79.543 139.44H76.535L81.591 126.4H84.615L89.671 139.44H86.423L85.511 136.912ZM84.615 134.384L82.983 129.84L81.351 134.384H84.615ZM90.9801 126.4H95.9881C97.1081 126.4 98.0681 126.597 98.8681 126.992C99.6788 127.387 100.297 127.941 100.724 128.656C101.151 129.371 101.364 130.208 101.364 131.168C101.364 132.139 101.151 132.987 100.724 133.712C100.297 134.427 99.6788 134.981 98.8681 135.376C98.0681 135.771 97.1081 135.968 95.9881 135.968H93.8921V139.44H90.9801V126.4ZM95.8601 133.392C96.6815 133.392 97.3161 133.2 97.7641 132.816C98.2228 132.432 98.4521 131.883 98.4521 131.168C98.4521 130.453 98.2228 129.909 97.7641 129.536C97.3161 129.163 96.6815 128.976 95.8601 128.976H93.8921V133.392H95.8601ZM105.845 126.4V139.44H102.933V126.4H105.845ZM117.324 134.464L115.548 136.512V139.44H112.636V126.4H115.548V132.544L120.764 126.4H124.332L119.212 132.304L124.604 139.44H120.972L117.324 134.464ZM129.191 139.664C128.252 139.664 127.409 139.451 126.663 139.024C125.927 138.608 125.351 138.027 124.935 137.28C124.519 136.533 124.311 135.691 124.311 134.752C124.311 133.813 124.519 132.971 124.935 132.224C125.351 131.477 125.927 130.896 126.663 130.48C127.409 130.053 128.252 129.84 129.191 129.84C130.129 129.84 130.967 130.053 131.703 130.48C132.449 130.896 133.031 131.477 133.447 132.224C133.863 132.971 134.071 133.813 134.071 134.752C134.071 135.061 134.049 135.365 134.007 135.664H127.143C127.249 136.208 127.484 136.629 127.847 136.928C128.209 137.227 128.657 137.376 129.191 137.376C129.596 137.376 129.953 137.312 130.263 137.184C130.583 137.045 130.801 136.864 130.919 136.64H133.783C133.623 137.237 133.324 137.76 132.887 138.208C132.449 138.667 131.911 139.024 131.271 139.28C130.631 139.536 129.937 139.664 129.191 139.664ZM131.287 133.824C131.169 133.259 130.929 132.832 130.567 132.544C130.204 132.245 129.745 132.096 129.191 132.096C128.636 132.096 128.183 132.245 127.831 132.544C127.479 132.832 127.244 133.259 127.127 133.824H131.287ZM144.492 130.064L139.1 143.344H136.3L137.996 139.184L134.3 130.064H137.452L139.484 135.856L141.532 130.064H144.492Z" fill="#313131"/>
<path d="M55.1983 162.996H53.9383V153.384H55.1983V162.996ZM60.6624 157.224H59.1384V162.996H57.9024V157.224H56.5464V156.132H57.9024V154.968C57.9024 154.384 58.0624 153.916 58.3824 153.564C58.7104 153.212 59.1624 153.036 59.7384 153.036C60.0584 153.036 60.3264 153.06 60.5424 153.108V154.152C60.4304 154.128 60.2344 154.116 59.9544 154.116C59.6984 154.116 59.4984 154.196 59.3544 154.356C59.2104 154.508 59.1384 154.724 59.1384 155.004V156.132H60.6624V157.224ZM71.63 156.132L67.346 165.912H66.098L67.454 162.852L64.514 156.132H65.87L68.078 161.532L70.346 156.132H71.63ZM75.6436 155.964C76.3076 155.964 76.9076 156.12 77.4436 156.432C77.9796 156.744 78.3956 157.176 78.6916 157.728C78.9956 158.272 79.1476 158.884 79.1476 159.564C79.1476 160.244 78.9956 160.86 78.6916 161.412C78.3956 161.956 77.9796 162.384 77.4436 162.696C76.9076 163.008 76.3076 163.164 75.6436 163.164C74.9716 163.164 74.3676 163.008 73.8316 162.696C73.3036 162.384 72.8876 161.956 72.5836 161.412C72.2796 160.86 72.1276 160.244 72.1276 159.564C72.1276 158.884 72.2796 158.272 72.5836 157.728C72.8876 157.176 73.3036 156.744 73.8316 156.432C74.3676 156.12 74.9716 155.964 75.6436 155.964ZM75.6436 157.056C75.1956 157.056 74.7956 157.168 74.4436 157.392C74.0996 157.608 73.8276 157.908 73.6276 158.292C73.4356 158.668 73.3396 159.092 73.3396 159.564C73.3396 160.036 73.4356 160.464 73.6276 160.848C73.8276 161.224 74.0996 161.524 74.4436 161.748C74.7956 161.964 75.1956 162.072 75.6436 162.072C76.0836 162.072 76.4796 161.964 76.8316 161.748C77.1836 161.524 77.4556 161.224 77.6476 160.848C77.8396 160.464 77.9356 160.036 77.9356 159.564C77.9356 159.092 77.8396 158.668 77.6476 158.292C77.4556 157.908 77.1836 157.608 76.8316 157.392C76.4796 157.168 76.0836 157.056 75.6436 157.056ZM85.6579 162.996V161.952C85.4819 162.264 85.1899 162.544 84.7819 162.792C84.3819 163.04 83.8979 163.164 83.3299 163.164C82.7939 163.164 82.3139 163.04 81.8899 162.792C81.4739 162.544 81.1499 162.196 80.9179 161.748C80.6859 161.292 80.5699 160.76 80.5699 160.152V156.132H81.8059V159.936C81.8059 160.624 81.9619 161.156 82.2739 161.532C82.5939 161.9 83.0339 162.084 83.5939 162.084C83.9859 162.084 84.3379 161.976 84.6499 161.76C84.9619 161.536 85.2059 161.24 85.3819 160.872C85.5659 160.504 85.6579 160.108 85.6579 159.684V156.132H86.8939V162.996H85.6579ZM102.507 156.132L100.083 162.996H98.8346L97.0226 157.74L95.2226 162.996H93.9746L91.5506 156.132H92.8346L94.6346 161.46L96.4226 156.132H97.6706L99.4706 161.496L101.283 156.132H102.507ZM106.403 163.164C105.763 163.164 105.183 163.008 104.663 162.696C104.151 162.384 103.747 161.952 103.451 161.4C103.155 160.848 103.007 160.236 103.007 159.564C103.007 158.892 103.155 158.28 103.451 157.728C103.747 157.176 104.151 156.744 104.663 156.432C105.183 156.12 105.763 155.964 106.403 155.964C106.987 155.964 107.491 156.08 107.915 156.312C108.339 156.544 108.647 156.824 108.839 157.152V156.132H110.075V162.996H108.839V161.976C108.647 162.304 108.339 162.584 107.915 162.816C107.491 163.048 106.987 163.164 106.403 163.164ZM106.511 162.072C106.967 162.072 107.371 161.964 107.723 161.748C108.083 161.524 108.363 161.224 108.563 160.848C108.763 160.464 108.863 160.036 108.863 159.564C108.863 159.092 108.763 158.668 108.563 158.292C108.363 157.908 108.083 157.608 107.723 157.392C107.371 157.168 106.967 157.056 106.511 157.056C106.063 157.056 105.663 157.164 105.311 157.38C104.967 157.596 104.699 157.896 104.507 158.28C104.315 158.664 104.219 159.092 104.219 159.564C104.219 160.036 104.315 160.464 104.507 160.848C104.699 161.232 104.967 161.532 105.311 161.748C105.663 161.964 106.063 162.072 106.511 162.072ZM113.251 156.132V157.176C113.427 156.864 113.715 156.584 114.115 156.336C114.523 156.088 115.011 155.964 115.579 155.964C116.115 155.964 116.591 156.088 117.007 156.336C117.431 156.584 117.759 156.936 117.991 157.392C118.223 157.84 118.339 158.368 118.339 158.976V162.996H117.103V159.192C117.103 158.504 116.943 157.976 116.623 157.608C116.311 157.232 115.875 157.044 115.315 157.044C114.923 157.044 114.571 157.156 114.259 157.38C113.947 157.596 113.699 157.888 113.515 158.256C113.339 158.624 113.251 159.02 113.251 159.444V162.996H112.015V156.132H113.251ZM123.584 157.224H122.06V162.996H120.824V157.224H119.3V156.132H120.824V154.044H122.06V156.132H123.584V157.224ZM131.822 157.224H130.298V162.996H129.062V157.224H127.538V156.132H129.062V154.044H130.298V156.132H131.822V157.224ZM136.03 155.964C136.694 155.964 137.294 156.12 137.83 156.432C138.366 156.744 138.782 157.176 139.078 157.728C139.382 158.272 139.534 158.884 139.534 159.564C139.534 160.244 139.382 160.86 139.078 161.412C138.782 161.956 138.366 162.384 137.83 162.696C137.294 163.008 136.694 163.164 136.03 163.164C135.358 163.164 134.754 163.008 134.218 162.696C133.69 162.384 133.274 161.956 132.97 161.412C132.666 160.86 132.514 160.244 132.514 159.564C132.514 158.884 132.666 158.272 132.97 157.728C133.274 157.176 133.69 156.744 134.218 156.432C134.754 156.12 135.358 155.964 136.03 155.964ZM136.03 157.056C135.582 157.056 135.182 157.168 134.83 157.392C134.486 157.608 134.214 157.908 134.014 158.292C133.822 158.668 133.726 159.092 133.726 159.564C133.726 160.036 133.822 160.464 134.014 160.848C134.214 161.224 134.486 161.524 134.83 161.748C135.182 161.964 135.582 162.072 136.03 162.072C136.47 162.072 136.866 161.964 137.218 161.748C137.57 161.524 137.842 161.224 138.034 160.848C138.226 160.464 138.322 160.036 138.322 159.564C138.322 159.092 138.226 158.668 138.034 158.292C137.842 157.908 137.57 157.608 137.218 157.392C136.866 157.168 136.47 157.056 136.03 157.056ZM147.176 155.964C147.728 155.964 148.228 156.052 148.676 156.228C149.124 156.396 149.48 156.632 149.744 156.936C150.016 157.232 150.16 157.572 150.176 157.956H148.964C148.94 157.668 148.756 157.432 148.412 157.248C148.068 157.064 147.644 156.972 147.14 156.972C146.644 156.972 146.232 157.06 145.904 157.236C145.584 157.412 145.424 157.628 145.424 157.884C145.424 158.18 145.572 158.416 145.868 158.592C146.172 158.768 146.728 158.912 147.536 159.024C148.536 159.16 149.252 159.392 149.684 159.72C150.116 160.048 150.332 160.488 150.332 161.04C150.332 161.472 150.192 161.848 149.912 162.168C149.64 162.488 149.268 162.732 148.796 162.9C148.324 163.076 147.8 163.164 147.224 163.164C146.624 163.164 146.096 163.072 145.64 162.888C145.184 162.712 144.824 162.464 144.56 162.144C144.304 161.832 144.16 161.476 144.128 161.076H145.34C145.38 161.372 145.564 161.628 145.892 161.844C146.228 162.052 146.684 162.156 147.26 162.156C147.796 162.156 148.24 162.06 148.592 161.868C148.944 161.668 149.12 161.416 149.12 161.112C149.12 160.824 148.956 160.596 148.628 160.428C148.308 160.252 147.748 160.112 146.948 160.008C146.004 159.88 145.312 159.656 144.872 159.336C144.432 159.008 144.212 158.548 144.212 157.956C144.212 157.564 144.34 157.216 144.596 156.912C144.86 156.608 145.216 156.376 145.664 156.216C146.112 156.048 146.616 155.964 147.176 155.964ZM154.978 163.164C154.322 163.164 153.73 163.008 153.202 162.696C152.682 162.384 152.274 161.956 151.978 161.412C151.682 160.86 151.534 160.244 151.534 159.564C151.534 158.884 151.682 158.272 151.978 157.728C152.274 157.176 152.682 156.744 153.202 156.432C153.73 156.12 154.322 155.964 154.978 155.964C155.634 155.964 156.222 156.12 156.742 156.432C157.27 156.744 157.678 157.176 157.966 157.728C158.262 158.272 158.41 158.884 158.41 159.564C158.41 159.788 158.402 159.956 158.386 160.068H152.77C152.834 160.668 153.066 161.16 153.466 161.544C153.874 161.928 154.378 162.12 154.978 162.12C155.434 162.12 155.834 162.028 156.178 161.844C156.53 161.652 156.77 161.412 156.898 161.124H158.158C157.966 161.724 157.582 162.212 157.006 162.588C156.43 162.972 155.754 163.164 154.978 163.164ZM157.198 159.06C157.126 158.452 156.89 157.96 156.49 157.584C156.09 157.2 155.586 157.008 154.978 157.008C154.37 157.008 153.866 157.2 153.466 157.584C153.066 157.96 152.834 158.452 152.77 159.06H157.198ZM163.064 163.164C162.408 163.164 161.816 163.008 161.288 162.696C160.768 162.384 160.36 161.956 160.064 161.412C159.768 160.86 159.62 160.244 159.62 159.564C159.62 158.884 159.768 158.272 160.064 157.728C160.36 157.176 160.768 156.744 161.288 156.432C161.816 156.12 162.408 155.964 163.064 155.964C163.72 155.964 164.308 156.12 164.828 156.432C165.356 156.744 165.764 157.176 166.052 157.728C166.348 158.272 166.496 158.884 166.496 159.564C166.496 159.788 166.488 159.956 166.472 160.068H160.856C160.92 160.668 161.152 161.16 161.552 161.544C161.96 161.928 162.464 162.12 163.064 162.12C163.52 162.12 163.92 162.028 164.264 161.844C164.616 161.652 164.856 161.412 164.984 161.124H166.244C166.052 161.724 165.668 162.212 165.092 162.588C164.516 162.972 163.84 163.164 163.064 163.164ZM165.284 159.06C165.212 158.452 164.976 157.96 164.576 157.584C164.176 157.2 163.672 157.008 163.064 157.008C162.456 157.008 161.952 157.2 161.552 157.584C161.152 157.96 160.92 158.452 160.856 159.06H165.284ZM64.5681 175.224H63.0441V180.996H61.8081V175.224H60.2841V174.132H61.8081V172.044H63.0441V174.132H64.5681V175.224ZM67.0791 171.084V175.176C67.2551 174.864 67.5431 174.584 67.9431 174.336C68.3511 174.088 68.8391 173.964 69.4071 173.964C69.9431 173.964 70.4191 174.088 70.8351 174.336C71.2591 174.584 71.5871 174.936 71.8191 175.392C72.0511 175.84 72.1671 176.368 72.1671 176.976V180.996H70.9311V177.192C70.9311 176.504 70.7711 175.976 70.4511 175.608C70.1391 175.232 69.7031 175.044 69.1431 175.044C68.7511 175.044 68.3991 175.156 68.0871 175.38C67.7751 175.596 67.5271 175.888 67.3431 176.256C67.1671 176.624 67.0791 177.02 67.0791 177.444V180.996H65.8431V171.084H67.0791ZM77.0365 181.164C76.3805 181.164 75.7885 181.008 75.2605 180.696C74.7405 180.384 74.3325 179.956 74.0365 179.412C73.7405 178.86 73.5925 178.244 73.5925 177.564C73.5925 176.884 73.7405 176.272 74.0365 175.728C74.3325 175.176 74.7405 174.744 75.2605 174.432C75.7885 174.12 76.3805 173.964 77.0365 173.964C77.6925 173.964 78.2805 174.12 78.8005 174.432C79.3285 174.744 79.7365 175.176 80.0245 175.728C80.3205 176.272 80.4685 176.884 80.4685 177.564C80.4685 177.788 80.4605 177.956 80.4445 178.068H74.8285C74.8925 178.668 75.1245 179.16 75.5245 179.544C75.9325 179.928 76.4365 180.12 77.0365 180.12C77.4925 180.12 77.8925 180.028 78.2365 179.844C78.5885 179.652 78.8285 179.412 78.9565 179.124H80.2165C80.0245 179.724 79.6405 180.212 79.0645 180.588C78.4885 180.972 77.8125 181.164 77.0365 181.164ZM79.2565 177.06C79.1845 176.452 78.9485 175.96 78.5485 175.584C78.1485 175.2 77.6445 175.008 77.0365 175.008C76.4285 175.008 75.9245 175.2 75.5245 175.584C75.1245 175.96 74.8925 176.452 74.8285 177.06H79.2565ZM88.7617 184.08C87.8337 184.08 87.0897 183.848 86.5297 183.384C85.9777 182.928 85.6377 182.348 85.5097 181.644H86.7697C86.8497 182.044 87.0537 182.372 87.3817 182.628C87.7177 182.884 88.1777 183.012 88.7617 183.012C89.3937 183.012 89.9017 182.812 90.2857 182.412C90.6777 182.02 90.8737 181.492 90.8737 180.828V179.88C90.6817 180.208 90.3737 180.488 89.9497 180.72C89.5257 180.952 89.0217 181.068 88.4377 181.068C87.7977 181.068 87.2177 180.912 86.6977 180.6C86.1857 180.296 85.7817 179.876 85.4857 179.34C85.1897 178.796 85.0417 178.192 85.0417 177.528C85.0417 176.864 85.1897 176.26 85.4857 175.716C85.7817 175.172 86.1857 174.744 86.6977 174.432C87.2177 174.12 87.7977 173.964 88.4377 173.964C89.0217 173.964 89.5257 174.08 89.9497 174.312C90.3737 174.544 90.6817 174.824 90.8737 175.152V174.132H92.1097V180.84C92.1097 181.464 91.9657 182.02 91.6777 182.508C91.3977 183.004 91.0017 183.388 90.4897 183.66C89.9857 183.94 89.4097 184.08 88.7617 184.08ZM88.5457 180C89.0017 180 89.4057 179.892 89.7577 179.676C90.1177 179.46 90.3977 179.164 90.5977 178.788C90.7977 178.412 90.8977 177.992 90.8977 177.528C90.8977 177.064 90.7977 176.644 90.5977 176.268C90.3977 175.892 90.1177 175.596 89.7577 175.38C89.4057 175.164 89.0017 175.056 88.5457 175.056C88.0977 175.056 87.6977 175.164 87.3457 175.38C87.0017 175.596 86.7337 175.892 86.5417 176.268C86.3497 176.644 86.2537 177.064 86.2537 177.528C86.2537 177.992 86.3497 178.412 86.5417 178.788C86.7337 179.164 87.0017 179.46 87.3457 179.676C87.6977 179.892 88.0977 180 88.5457 180ZM98.9821 180.996V179.952C98.8061 180.264 98.5141 180.544 98.1061 180.792C97.7061 181.04 97.2221 181.164 96.6541 181.164C96.1181 181.164 95.6381 181.04 95.2141 180.792C94.7981 180.544 94.4741 180.196 94.2421 179.748C94.0101 179.292 93.8941 178.76 93.8941 178.152V174.132H95.1301V177.936C95.1301 178.624 95.2861 179.156 95.5981 179.532C95.9181 179.9 96.3581 180.084 96.9181 180.084C97.3101 180.084 97.6621 179.976 97.9741 179.76C98.2861 179.536 98.5301 179.24 98.7061 178.872C98.8901 178.504 98.9821 178.108 98.9821 177.684V174.132H100.218V180.996H98.9821ZM102.771 170.964C103.012 170.964 103.208 171.044 103.36 171.204C103.52 171.356 103.6 171.548 103.6 171.78C103.6 172.012 103.52 172.208 103.36 172.368C103.208 172.52 103.012 172.596 102.771 172.596C102.54 172.596 102.344 172.52 102.184 172.368C102.032 172.208 101.956 172.012 101.956 171.78C101.956 171.548 102.032 171.356 102.184 171.204C102.344 171.044 102.54 170.964 102.771 170.964ZM102.16 181.008V174.132H103.396V181.008H102.16ZM108.371 181.164C107.731 181.164 107.151 181.008 106.631 180.696C106.119 180.384 105.715 179.952 105.419 179.4C105.123 178.848 104.975 178.236 104.975 177.564C104.975 176.892 105.123 176.28 105.419 175.728C105.715 175.176 106.119 174.744 106.631 174.432C107.151 174.12 107.731 173.964 108.371 173.964C108.955 173.964 109.459 174.08 109.883 174.312C110.307 174.544 110.615 174.824 110.807 175.152V171.084H112.043V180.996H110.807V179.976C110.615 180.304 110.307 180.584 109.883 180.816C109.459 181.048 108.955 181.164 108.371 181.164ZM108.479 180.072C108.935 180.072 109.339 179.964 109.691 179.748C110.051 179.524 110.331 179.224 110.531 178.848C110.731 178.464 110.831 178.036 110.831 177.564C110.831 177.092 110.731 176.668 110.531 176.292C110.331 175.908 110.051 175.608 109.691 175.392C109.339 175.168 108.935 175.056 108.479 175.056C108.031 175.056 107.631 175.164 107.279 175.38C106.935 175.596 106.667 175.896 106.475 176.28C106.283 176.664 106.187 177.092 106.187 177.564C106.187 178.036 106.283 178.464 106.475 178.848C106.667 179.232 106.935 179.532 107.279 179.748C107.631 179.964 108.031 180.072 108.479 180.072ZM117.068 181.164C116.412 181.164 115.82 181.008 115.292 180.696C114.772 180.384 114.364 179.956 114.068 179.412C113.772 178.86 113.624 178.244 113.624 177.564C113.624 176.884 113.772 176.272 114.068 175.728C114.364 175.176 114.772 174.744 115.292 174.432C115.82 174.12 116.412 173.964 117.068 173.964C117.724 173.964 118.312 174.12 118.832 174.432C119.36 174.744 119.768 175.176 120.056 175.728C120.352 176.272 120.5 176.884 120.5 177.564C120.5 177.788 120.492 177.956 120.476 178.068H114.86C114.924 178.668 115.156 179.16 115.556 179.544C115.964 179.928 116.468 180.12 117.068 180.12C117.524 180.12 117.924 180.028 118.268 179.844C118.62 179.652 118.86 179.412 118.988 179.124H120.248C120.056 179.724 119.672 180.212 119.096 180.588C118.52 180.972 117.844 181.164 117.068 181.164ZM119.288 177.06C119.216 176.452 118.98 175.96 118.58 175.584C118.18 175.2 117.676 175.008 117.068 175.008C116.46 175.008 115.956 175.2 115.556 175.584C115.156 175.96 114.924 176.452 114.86 177.06H119.288ZM122.742 182.208H121.758L122.142 179.496H123.342L122.742 182.208ZM134.735 178.668C134.551 179.42 134.163 180.024 133.571 180.48C132.987 180.936 132.299 181.164 131.507 181.164C130.835 181.164 130.231 181.008 129.695 180.696C129.159 180.384 128.739 179.956 128.435 179.412C128.131 178.86 127.979 178.244 127.979 177.564C127.979 176.884 128.127 176.272 128.423 175.728C128.727 175.176 129.147 174.744 129.683 174.432C130.219 174.12 130.819 173.964 131.483 173.964C132.011 173.964 132.499 174.072 132.947 174.288C133.403 174.496 133.783 174.788 134.087 175.164C134.391 175.54 134.599 175.964 134.711 176.436H133.451C133.307 176.02 133.063 175.688 132.719 175.44C132.375 175.184 131.963 175.056 131.483 175.056C131.035 175.056 130.635 175.168 130.283 175.392C129.939 175.608 129.671 175.908 129.479 176.292C129.287 176.668 129.191 177.092 129.191 177.564C129.191 178.036 129.287 178.464 129.479 178.848C129.671 179.224 129.939 179.524 130.283 179.748C130.635 179.964 131.035 180.072 131.483 180.072C131.963 180.072 132.379 179.944 132.731 179.688C133.083 179.432 133.331 179.092 133.475 178.668H134.735ZM136.249 180.996V171.084H137.485V180.996H136.249ZM140.037 170.964C140.277 170.964 140.473 171.044 140.625 171.204C140.785 171.356 140.865 171.548 140.865 171.78C140.865 172.012 140.785 172.208 140.625 172.368C140.473 172.52 140.277 172.596 140.037 172.596C139.805 172.596 139.609 172.52 139.449 172.368C139.297 172.208 139.221 172.012 139.221 171.78C139.221 171.548 139.297 171.356 139.449 171.204C139.609 171.044 139.805 170.964 140.037 170.964ZM139.425 181.008V174.132H140.661V181.008H139.425ZM148.997 178.668C148.813 179.42 148.425 180.024 147.833 180.48C147.249 180.936 146.561 181.164 145.769 181.164C145.097 181.164 144.493 181.008 143.957 180.696C143.421 180.384 143.001 179.956 142.697 179.412C142.393 178.86 142.241 178.244 142.241 177.564C142.241 176.884 142.389 176.272 142.685 175.728C142.989 175.176 143.409 174.744 143.945 174.432C144.481 174.12 145.081 173.964 145.745 173.964C146.273 173.964 146.761 174.072 147.209 174.288C147.665 174.496 148.045 174.788 148.349 175.164C148.653 175.54 148.861 175.964 148.973 176.436H147.713C147.569 176.02 147.325 175.688 146.981 175.44C146.637 175.184 146.225 175.056 145.745 175.056C145.297 175.056 144.897 175.168 144.545 175.392C144.201 175.608 143.933 175.908 143.741 176.292C143.549 176.668 143.453 177.092 143.453 177.564C143.453 178.036 143.549 178.464 143.741 178.848C143.933 179.224 144.201 179.524 144.545 179.748C144.897 179.964 145.297 180.072 145.745 180.072C146.225 180.072 146.641 179.944 146.993 179.688C147.345 179.432 147.593 179.092 147.737 178.668H148.997ZM153.031 177.852L151.675 179.28V180.996H150.439V171.084H151.675V177.804L155.095 174.132H156.547L153.811 177.024L156.835 180.996H155.371L153.031 177.852ZM158.47 181.152C158.23 181.152 158.026 181.068 157.858 180.9C157.698 180.74 157.618 180.54 157.618 180.3C157.618 180.06 157.698 179.86 157.858 179.7C158.026 179.532 158.23 179.448 158.47 179.448C158.71 179.448 158.91 179.532 159.07 179.7C159.23 179.86 159.31 180.06 159.31 180.3C159.31 180.54 159.23 180.74 159.07 180.9C158.91 181.068 158.71 181.152 158.47 181.152Z" fill="#3682F9"/>
<g clip-path="url(#clip0_1042_65382)">
<path d="M45.5305 67.9507C40.2019 50.2446 30.422 38.1549 64.1888 24.4209C97.9556 10.687 109.833 21.515 116.525 6.2165C123.218 -9.08202 143.821 7.47831 141.271 17.3112C138.72 27.144 165.182 40.6083 155.486 59.5004C145.79 78.3925 138.791 90.6864 85.4967 95.2452C32.202 99.804 50.8582 85.6528 45.5305 67.9507Z" fill="#FAFCFD"/>
<path d="M62.996 100.873C62.996 100.873 64.7527 41.5718 104.846 44.3879C144.939 47.2039 149.38 82.575 149.38 82.575L160.33 73.1909L164.71 79.5208L154.608 92.4796C154.608 92.4796 150.287 101.287 141.96 95.6568C133.634 90.0271 138.196 82.5726 138.196 82.5726V105H91.7119C91.7119 105 59.2787 125.147 62.996 100.871V100.873Z" fill="#DDEFFF"/>
<path d="M102.592 44.4723C102.592 44.4723 103.825 39.5618 105.904 36.4137C105.075 35.1055 102.88 30.3487 110.461 25.0502C119.381 18.8149 121.348 29.8141 121.348 29.8141C121.348 29.8141 123.348 48.4388 114.109 42.2855L115.522 43.3446C115.6 45.6851 114.468 52.5418 115.055 53.9219C115.09 54.0007 115.077 54.0433 115.02 54.0433C114.128 54.0417 102.592 44.4723 102.592 44.4723ZM112.769 41.2809C112.264 40.8629 111.73 40.3811 111.166 39.8291L112.095 40.7754L112.769 41.2809Z" fill="white"/>
<path d="M115.023 54.556C114.729 54.556 114.293 54.556 108.16 49.6604C105.195 47.2947 102.302 44.8934 102.273 44.8698C102.199 44.8079 102.143 44.7258 102.113 44.633C102.083 44.5403 102.08 44.4408 102.104 44.3462C102.817 41.5649 103.895 38.8933 105.308 36.4028C104.586 35.115 104.312 33.618 104.531 32.1531C104.92 29.5074 106.818 26.976 110.176 24.6284C111.682 23.444 113.505 22.7459 115.408 22.6246C117.546 22.6246 119.343 23.8722 120.605 26.2316C121.182 27.329 121.601 28.5047 121.849 29.7227C121.849 29.7348 121.851 29.7469 121.855 29.7589C121.897 30.158 122.866 39.5626 119.946 42.8644C119.633 43.2385 119.243 43.5383 118.802 43.7427C118.362 43.9471 117.883 44.0511 117.399 44.0473C116.934 44.0414 116.473 43.9643 116.03 43.8186C116.011 44.7909 115.874 46.1844 115.734 47.6456C115.516 49.9073 115.217 53.008 115.521 53.7177C115.567 53.8098 115.588 53.9122 115.583 54.015C115.577 54.1178 115.546 54.2175 115.492 54.3044C115.44 54.3825 115.371 54.4464 115.289 54.4904C115.207 54.5343 115.116 54.5568 115.023 54.556ZM103.167 44.2854C103.916 44.9045 106.214 46.7971 108.595 48.7015C111.983 51.4119 113.617 52.6082 114.404 53.1341C114.385 51.2651 114.493 49.3969 114.729 47.5431C114.879 45.9943 115.021 44.5244 115.022 43.6057L113.81 42.6941C113.704 42.6146 113.634 42.4966 113.613 42.3651C113.591 42.2336 113.622 42.099 113.697 41.9897C113.772 41.8804 113.886 41.805 114.015 41.7796C114.144 41.7542 114.278 41.7807 114.388 41.8535C115.263 42.5214 116.307 42.9244 117.399 43.0158C117.741 43.0194 118.079 42.9458 118.39 42.8006C118.7 42.6553 118.975 42.442 119.194 42.176C120.26 40.971 120.887 38.4744 121.007 34.9581C121.06 33.2657 121.008 31.5717 120.852 29.8859C120.616 28.7746 120.229 27.702 119.701 26.6992C118.617 24.6757 117.171 23.6498 115.408 23.6498C113.71 23.7739 112.088 24.4087 110.748 25.473C109.247 26.4692 107.927 27.7212 106.847 29.1738C106.171 30.0972 105.719 31.1696 105.529 32.3037C105.33 33.6373 105.614 34.9991 106.329 36.1362C106.383 36.2204 106.412 36.3188 106.411 36.4191C106.41 36.5195 106.381 36.6175 106.326 36.7009C104.932 39.0691 103.869 41.6215 103.167 44.2854ZM112.77 41.7943C112.662 41.7945 112.557 41.7594 112.47 41.6942L111.795 41.1887C111.774 41.1731 111.755 41.156 111.737 41.1374L110.813 40.1959C110.717 40.101 110.662 39.9713 110.66 39.8353C110.658 39.6994 110.709 39.5682 110.803 39.4708C110.896 39.3733 111.024 39.3175 111.158 39.3156C111.293 39.3138 111.422 39.366 111.518 39.4609C112.062 39.9916 112.59 40.4711 113.09 40.8843C113.171 40.9511 113.229 41.0418 113.257 41.1437C113.285 41.2457 113.282 41.354 113.247 41.4537C113.212 41.5534 113.147 41.6397 113.062 41.7007C112.976 41.7617 112.874 41.7944 112.77 41.7943Z" fill="#3682F9"/>
<path d="M112.693 27.9011C115.595 28.9361 118.699 29.2511 121.745 28.8198C126.692 28.0746 127.51 23.4574 124.903 20.919C122.297 18.3805 115.351 14.4297 108.677 19.0634C102.003 23.6971 96.623 35.7443 96.623 35.7443L108.677 37.1425L109.61 34.8493C109.61 34.8493 107.296 29.7874 111.024 30.0192C113.607 30.9923 112.693 27.9011 112.693 27.9011Z" fill="#35363E"/>
<path d="M74.3554 97.8385C74.2638 97.8135 74.181 97.7628 74.1165 97.6924C74.0519 97.6219 74.0083 97.5345 73.9904 97.44C73.9725 97.3456 73.9812 97.248 74.0155 97.1583C74.0498 97.0686 74.1082 96.9905 74.1841 96.9329C75.889 95.7039 77.7595 94.7302 79.738 94.0418C81.3879 93.4414 83.1429 93.1955 84.8915 93.32C86.8342 93.4838 88.6549 94.347 90.0248 95.7534C90.0718 95.8009 90.1091 95.8574 90.1346 95.9196C90.1601 95.9817 90.1733 96.0483 90.1734 96.1157C90.1735 96.183 90.1606 96.2497 90.1353 96.3119C90.11 96.3742 90.0728 96.4307 90.0259 96.4784C89.9791 96.5261 89.9234 96.5639 89.8621 96.5898C89.8008 96.6157 89.7351 96.629 89.6687 96.6291C89.5346 96.6294 89.4059 96.5756 89.311 96.4796C88.1065 95.2433 86.5057 94.4849 84.7978 94.3413C83.1896 94.23 81.5761 94.4587 80.0595 95.0127C78.1845 95.6699 76.4104 96.5923 74.7897 97.7524C74.7285 97.7993 74.6575 97.8313 74.5823 97.8463C74.5071 97.8612 74.4295 97.8585 74.3554 97.8385Z" fill="white"/>
<path d="M57.3214 58.1807L49.1973 53.4243L44.5068 61.6625L52.6309 66.4189L57.3214 58.1807Z" fill="#F1F8FE"/>
<path d="M149.8 27.8734C148.557 27.8734 147.343 28.2469 146.31 28.9467C145.278 29.6465 144.473 30.6412 143.997 31.8049C143.522 32.9686 143.398 34.2491 143.64 35.4845C143.882 36.7199 144.48 37.8547 145.359 38.7453C146.237 39.636 147.356 40.2425 148.574 40.4883C149.793 40.734 151.055 40.6079 152.203 40.1259C153.351 39.6438 154.331 38.8276 155.022 37.7802C155.712 36.7329 156.08 35.5016 156.08 34.242C156.078 32.5536 155.416 30.9348 154.238 29.7408C153.061 28.5469 151.465 27.8753 149.8 27.8734ZM149.8 26.2963C151.349 26.2963 152.864 26.7623 154.153 27.6354C155.441 28.5085 156.446 29.7494 157.039 31.2013C157.632 32.6532 157.787 34.2508 157.485 35.7922C157.182 37.3335 156.436 38.7493 155.34 39.8605C154.244 40.9718 152.848 41.7285 151.328 42.0351C149.808 42.3417 148.233 42.1844 146.801 41.583C145.369 40.9816 144.145 39.9631 143.284 38.6565C142.423 37.3498 141.964 35.8136 141.964 34.242C141.964 32.1347 142.789 30.1136 144.259 28.6235C145.728 27.1334 147.721 26.2963 149.8 26.2963V26.2963Z" fill="#F1F8FE"/>
<path d="M68.8428 33.2791L75.0039 35.6354L70.0589 39.843L68.8428 33.2791Z" fill="#F1F8FE"/>
<path d="M117.892 37.8229H115.834C115.7 37.8229 115.571 37.7689 115.476 37.6728C115.381 37.5766 115.328 37.4464 115.328 37.3104C115.328 37.1745 115.381 37.044 115.476 36.9479C115.571 36.8518 115.7 36.7977 115.834 36.7977H117.389V32.339C117.389 32.2031 117.443 32.0728 117.537 31.9767C117.632 31.8806 117.761 31.8265 117.895 31.8265C118.029 31.8265 118.158 31.8806 118.252 31.9767C118.347 32.0728 118.401 32.2031 118.401 32.339V37.3072C118.401 37.375 118.388 37.4423 118.363 37.5051C118.337 37.5678 118.3 37.6248 118.252 37.6728C118.205 37.7207 118.149 37.7588 118.087 37.7846C118.025 37.8104 117.959 37.8233 117.892 37.8229Z" fill="#3682F9"/>
<path d="M136.49 79.6499C136.418 79.6614 136.345 79.657 136.275 79.637C136.205 79.6171 136.14 79.5821 136.084 79.5344C136.029 79.4867 135.984 79.4275 135.953 79.3607C135.922 79.2939 135.906 79.2212 135.905 79.1474C135.896 77.013 135.735 74.8821 135.423 72.7713C135.403 72.6369 135.436 72.4999 135.515 72.3903C135.595 72.2808 135.714 72.2077 135.846 72.1871C135.979 72.1666 136.114 72.2003 136.222 72.2808C136.33 72.3613 136.402 72.482 136.422 72.6164C136.742 74.776 136.907 76.9561 136.917 79.1399C136.918 79.2626 136.875 79.3816 136.797 79.4752C136.719 79.5688 136.61 79.6308 136.49 79.6499ZM135.403 70.1053C135.278 70.1253 135.149 70.0965 135.044 70.0247C134.938 69.9529 134.863 69.8433 134.833 69.7178C134.289 67.3237 133.439 65.0118 132.304 62.8409C131.902 62.0592 131.426 61.3193 130.882 60.6317C130.838 60.5812 130.804 60.5223 130.782 60.4584C130.761 60.3946 130.752 60.327 130.756 60.2595C130.76 60.1921 130.777 60.1262 130.806 60.0655C130.836 60.0048 130.877 59.9506 130.927 59.906C130.976 59.8611 131.034 59.8266 131.097 59.8046C131.16 59.7825 131.227 59.7733 131.294 59.7775C131.36 59.7816 131.425 59.7991 131.485 59.8288C131.545 59.8586 131.598 59.9 131.642 59.9508C131.749 60.0782 134.293 63.0604 135.817 69.4784C135.833 69.5441 135.836 69.6122 135.825 69.679C135.815 69.7457 135.791 69.8097 135.756 69.8672C135.722 69.9248 135.676 69.9748 135.622 70.0143C135.568 70.0538 135.506 70.0822 135.442 70.0976L135.403 70.1053Z" fill="white"/>
<path d="M144.137 77.3458C143.56 76.8193 143.214 76.0821 143.173 75.2964C143.132 74.5107 143.401 73.7408 143.921 73.1561C144.44 72.5714 145.167 72.2197 145.942 72.1786C146.716 72.1374 147.476 72.41 148.052 72.9365L150.507 75.178L152.461 72.9775L150.006 70.736C149.713 70.4773 149.474 70.1623 149.303 69.8091C149.132 69.4558 149.031 69.0716 149.008 68.6786C148.984 68.2857 149.038 67.892 149.166 67.5203C149.294 67.1487 149.494 66.8067 149.754 66.5142C150.014 66.2216 150.328 65.9844 150.679 65.8164C151.03 65.6484 151.411 65.5529 151.799 65.5355C152.187 65.5181 152.574 65.5791 152.938 65.7151C153.303 65.851 153.637 66.0591 153.921 66.3272L156.376 68.5688L159.836 64.6716C159.754 64.5186 159.676 64.3626 159.602 64.2039C158.658 62.175 158.529 59.8538 159.242 57.7302C159.789 56.113 160.803 54.6998 162.152 53.6741C163.5 52.6483 165.122 52.0573 166.807 51.9778C169.063 51.8676 171.271 52.6658 172.95 54.1987C174.629 55.7315 175.642 57.8748 175.77 60.1619C175.845 61.568 175.577 62.9711 174.989 64.2471C174.402 65.5231 173.514 66.6326 172.403 67.4775C171.292 68.3225 169.993 68.8767 168.62 69.0912C167.248 69.3058 165.844 69.174 164.534 68.7075C164.447 68.6764 164.36 68.644 164.273 68.6103L152.932 81.3823C152.414 81.9671 151.687 82.3191 150.912 82.3608C150.138 82.4025 149.378 82.1305 148.801 81.6046L144.137 77.3458ZM167.107 57.3496C166.689 57.3697 166.28 57.4734 165.902 57.655C165.524 57.8365 165.185 58.0922 164.906 58.4072C164.626 58.7223 164.411 59.0904 164.272 59.4904C164.133 59.8904 164.075 60.3143 164.099 60.7375C164.148 61.5962 164.529 62.4005 165.159 62.9761C165.789 63.5516 166.618 63.8519 167.465 63.8117C167.883 63.7917 168.293 63.6879 168.67 63.5064C169.048 63.3248 169.387 63.0691 169.667 62.7541C169.946 62.439 170.162 62.0709 170.3 61.6709C170.439 61.2709 170.498 60.8471 170.474 60.4238C170.425 59.5652 170.043 58.7608 169.413 58.1853C168.783 57.6097 167.954 57.3095 167.107 57.3496Z" fill="white"/>
<path d="M148.464 81.9843L143.8 77.7256C143.124 77.1081 142.717 76.2436 142.669 75.3221C142.622 74.4006 142.937 73.4977 143.546 72.8119C144.155 72.1262 145.007 71.7138 145.916 71.6655C146.825 71.6172 147.715 71.937 148.392 72.5544L150.472 74.454L151.749 73.0165L149.668 71.1169C149.325 70.8134 149.046 70.4439 148.845 70.0298C148.645 69.6157 148.528 69.1653 148.5 68.7048C148.473 68.2443 148.536 67.7829 148.687 67.3475C148.837 66.9121 149.071 66.5113 149.375 66.1685C149.68 65.8257 150.048 65.5477 150.46 65.3506C150.871 65.1536 151.317 65.0415 151.771 65.0208C152.226 65.0001 152.68 65.0713 153.107 65.2302C153.534 65.3891 153.926 65.6325 154.259 65.9463L156.34 67.8459L159.227 64.5946L159.145 64.4236C158.145 62.2739 158.009 59.8145 158.764 57.5646C159.344 55.8502 160.419 54.3522 161.85 53.265C163.28 52.1778 164.999 51.5515 166.785 51.4675C168.578 51.383 170.355 51.8385 171.893 52.7767C173.431 53.7148 174.661 55.0936 175.428 56.7394C176.427 58.8887 176.564 61.3477 175.809 63.5972C175.229 65.3116 174.154 66.8096 172.724 67.8969C171.293 68.9841 169.574 69.6103 167.788 69.6943C166.646 69.7522 165.504 69.5885 164.422 69.2121L153.31 81.7268C152.811 82.2915 152.143 82.6739 151.409 82.8151C151.343 82.829 151.276 82.8295 151.21 82.8166C151.144 82.8037 151.081 82.7776 151.025 82.7399C150.97 82.7022 150.922 82.6536 150.885 82.5969C150.847 82.5402 150.822 82.4766 150.809 82.4098C150.797 82.343 150.797 82.2743 150.811 82.2077C150.825 82.1411 150.852 82.078 150.89 82.022C150.928 81.966 150.977 81.9183 151.033 81.8816C151.09 81.8449 151.153 81.82 151.219 81.8084C151.736 81.7087 152.207 81.439 152.559 81.0409L163.899 68.2689C163.968 68.1918 164.058 68.1376 164.157 68.1135C164.257 68.0893 164.361 68.0964 164.457 68.1337C164.538 68.1657 164.621 68.1965 164.703 68.2256C166.667 68.9208 168.82 68.8152 170.709 67.931C171.673 67.4752 172.537 66.8272 173.249 66.0255C173.961 65.2238 174.506 64.285 174.852 63.265C175.522 61.2677 175.401 59.0848 174.513 57.1766C173.834 55.7124 172.742 54.4856 171.375 53.6515C170.008 52.8174 168.427 52.4136 166.833 52.4912C165.529 52.5588 164.262 52.9511 163.143 53.6335C162.025 54.316 161.089 55.2675 160.419 56.4039C159.75 57.5403 159.366 58.8266 159.304 60.1489C159.241 61.4713 159.501 62.7889 160.06 63.9853C160.129 64.1335 160.203 64.2814 160.281 64.4258C160.331 64.519 160.351 64.6256 160.339 64.7311C160.327 64.8366 160.283 64.9356 160.213 65.0146L156.751 68.9134C156.661 69.0145 156.536 69.0752 156.402 69.0823C156.268 69.0895 156.137 69.0423 156.037 68.9514L153.582 66.7093C153.347 66.4869 153.07 66.3142 152.769 66.2012C152.467 66.0883 152.146 66.0374 151.825 66.0516C151.504 66.0657 151.189 66.1446 150.898 66.2836C150.607 66.4226 150.347 66.619 150.132 66.8612C149.917 67.1035 149.751 67.3868 149.645 67.6945C149.539 68.0023 149.495 68.3284 149.515 68.6537C149.534 68.9791 149.618 69.2972 149.76 69.5895C149.902 69.8818 150.101 70.1425 150.343 70.3562L152.798 72.5977C152.898 72.6887 152.958 72.8161 152.965 72.9518C152.972 73.0876 152.926 73.2206 152.836 73.3216L150.883 75.521C150.793 75.622 150.668 75.6828 150.534 75.6899C150.4 75.697 150.269 75.6499 150.169 75.5589L147.714 73.3174C147.478 73.1018 147.202 72.9354 146.903 72.8278C146.603 72.7203 146.285 72.6736 145.968 72.6904C145.651 72.7073 145.34 72.7874 145.053 72.9261C144.766 73.0649 144.509 73.2596 144.296 73.4991C144.084 73.7386 143.92 74.0182 143.813 74.322C143.707 74.6258 143.661 74.9478 143.678 75.2696C143.695 75.5914 143.774 75.9068 143.91 76.1977C144.047 76.4885 144.239 76.7492 144.475 76.9649L149.14 81.2237C149.239 81.3146 149.299 81.442 149.306 81.5778C149.313 81.7135 149.267 81.8465 149.177 81.9476C149.087 82.0486 148.962 82.1094 148.828 82.1165C148.694 82.1236 148.563 82.0765 148.463 81.9855L148.464 81.9843Z" fill="#3682F9"/>
<path d="M163.322 81.0397C166.811 78.5415 170.691 76.0772 168.777 69.6116C166.862 63.146 164.105 68.5005 164.105 68.5005C164.105 68.5005 159.659 75.1624 159.464 78.2978C159.268 81.4332 159.834 83.5387 163.322 81.0397Z" fill="white"/>
<path d="M160.867 82.6525C160.639 82.6575 160.413 82.614 160.203 82.5249C159.994 82.4358 159.805 82.3031 159.649 82.1352C159.045 81.4831 158.832 80.2883 158.959 78.2624C159.157 75.0883 163.333 68.7418 163.672 68.2339C163.851 67.8949 164.962 65.9038 166.449 65.9038C166.76 65.9167 167.064 66.0021 167.337 66.1535C167.61 66.3049 167.845 66.5182 168.023 66.7767C168.6 67.5829 169.02 68.4926 169.262 69.4578C170.024 72.031 169.962 74.195 169.077 76.0734C168.209 77.6998 166.965 79.0884 165.452 80.1203C165.399 80.1606 165.338 80.1901 165.274 80.2067C165.209 80.2233 165.143 80.2269 165.077 80.2173C165.011 80.2077 164.948 80.185 164.891 80.1507C164.834 80.1163 164.784 80.071 164.744 80.0171C164.704 79.9632 164.675 79.9017 164.659 79.8365C164.643 79.7712 164.639 79.7035 164.648 79.6368C164.658 79.5702 164.68 79.506 164.714 79.4481C164.748 79.3903 164.793 79.3397 164.846 79.2993C166.226 78.3634 167.365 77.1051 168.166 75.6302C168.939 73.9923 168.981 72.0696 168.295 69.752C167.755 67.9288 167.1 66.9242 166.45 66.9242C165.722 66.9242 164.858 68.141 164.555 68.7308C164.546 68.7479 164.536 68.7645 164.525 68.7805C164.482 68.846 160.154 75.3627 159.969 78.3223C159.866 79.9728 160.007 81.0178 160.388 81.4294C160.449 81.4955 160.523 81.547 160.607 81.5804C160.69 81.6138 160.779 81.6282 160.868 81.6225C161.002 81.6225 161.131 81.6766 161.226 81.7727C161.32 81.8688 161.374 81.9993 161.374 82.1352C161.374 82.2712 161.32 82.4014 161.226 82.4976C161.131 82.5937 161.002 82.6477 160.868 82.6477L160.867 82.6525Z" fill="#3682F9"/>
<path d="M101.122 99.0674C95.9325 96.277 90.4754 92.9741 85.5008 99.4635C80.5262 105.953 87.9996 106.021 87.9996 106.021C87.9996 106.021 98.0846 107.376 101.367 105.639C104.65 103.902 106.31 101.857 101.122 99.0674Z" fill="white"/>
<path d="M104.549 101.176C104.731 101.446 104.855 101.753 104.91 102.076C104.966 102.399 104.953 102.73 104.872 103.048C104.592 104.091 103.552 105.059 101.599 106.093C98.2721 107.856 88.681 106.629 87.9611 106.534C87.6029 106.525 84.749 106.406 83.6815 104.674C82.8486 103.323 83.3263 101.465 85.1006 99.1506C87.3621 96.2015 89.9421 94.9224 92.9887 95.2411C95.6225 95.5163 98.2439 96.9322 100.779 98.3014L101.358 98.6143C101.674 98.786 101.969 98.9535 102.24 99.12C102.297 99.1549 102.346 99.2007 102.385 99.255C102.425 99.3093 102.453 99.3709 102.469 99.4363C102.484 99.5017 102.487 99.5696 102.477 99.6361C102.467 99.7027 102.444 99.7666 102.41 99.8242C102.375 99.8817 102.33 99.9318 102.276 99.9716C102.223 100.011 102.162 100.04 102.098 100.056C102.033 100.072 101.966 100.075 101.901 100.065C101.835 100.055 101.772 100.031 101.715 99.9963C101.461 99.8395 101.183 99.6825 100.884 99.5197L100.303 99.2063C97.8532 97.8828 95.3203 96.514 92.8838 96.2598C91.6866 96.1139 90.4731 96.3015 89.3732 96.8026C87.9914 97.4907 86.7976 98.5128 85.8968 99.7787C84.8744 101.112 83.8091 102.949 84.537 104.13C85.2191 105.236 87.2686 105.5 88.0009 105.508C88.0215 105.508 88.042 105.51 88.0624 105.513C88.0876 105.516 90.6013 105.851 93.4792 105.969C98.2079 106.164 100.251 105.648 101.131 105.183C102.771 104.314 103.7 103.504 103.897 102.779C103.94 102.598 103.944 102.409 103.909 102.226C103.873 102.043 103.8 101.87 103.692 101.719C103.621 101.604 103.598 101.465 103.629 101.332C103.659 101.2 103.74 101.085 103.853 101.013C103.967 100.941 104.104 100.918 104.235 100.948C104.365 100.979 104.479 101.061 104.55 101.176L104.549 101.176Z" fill="#3682F9"/>
<path d="M115.922 31.5433C115.922 31.1078 115.574 30.7548 115.144 30.7548C114.714 30.7548 114.366 31.1078 114.366 31.5433V33.1205C114.366 33.556 114.714 33.9091 115.144 33.9091C115.574 33.9091 115.922 33.556 115.922 33.1205V31.5433Z" fill="#35363E"/>
<path d="M120.587 31.5433C120.587 31.1078 120.239 30.7548 119.809 30.7548C119.379 30.7548 119.031 31.1078 119.031 31.5433V33.1205C119.031 33.556 119.379 33.9091 119.809 33.9091C120.239 33.9091 120.587 33.556 120.587 33.1205V31.5433Z" fill="#35363E"/>
<path d="M170.161 60.5137C170.161 62.1769 168.819 63.5218 167.167 63.5218C165.515 63.5218 164.173 62.1769 164.173 60.5137C164.173 58.8505 165.515 57.5056 167.167 57.5056C168.819 57.5056 170.161 58.8505 170.161 60.5137Z" fill="white" stroke="#3682F9" stroke-width="1.01111"/>
</g>
<defs>
<clipPath id="clip0_1042_65382">
<rect width="140" height="114" fill="white" transform="translate(40)"/>
</clipPath>
</defs>
</svg>
