<svg width="48" height="48" viewBox="0 0 48 48" fill="none" xmlns="http://www.w3.org/2000/svg">
<path d="M31.2435 13.2587L29.424 6.66669H15.8341L14.1941 13.2587H4.86621V39.6267H43.1329V13.2587H31.2435Z" stroke="#707070" stroke-width="1.3" stroke-miterlimit="10" stroke-linecap="round" stroke-linejoin="round"/>
<path d="M18.1461 18.6919C19.6379 17.9879 21.3255 17.8151 22.9291 18.202C24.5326 18.5889 25.9557 19.5123 26.9624 20.8191C27.9691 22.1259 28.4988 23.7375 28.4637 25.3867C28.4286 27.0359 27.8308 28.6235 26.7695 29.8863C25.7082 31.1491 24.2471 32.0112 22.6285 32.3295C21.01 32.6479 19.3312 32.4034 17.8707 31.6366C16.4102 30.8699 15.2556 29.6269 14.5986 28.1138C13.9415 26.6008 13.8214 24.9085 14.2581 23.3178" stroke="#707070" stroke-width="1.3" stroke-miterlimit="10" stroke-linecap="round" stroke-linejoin="round"/>
<path d="M36.1001 17.3334C36.3837 17.3334 36.661 17.4175 36.8968 17.5751C37.1326 17.7326 37.3164 17.9566 37.425 18.2186C37.5335 18.4807 37.5619 18.769 37.5066 19.0472C37.4512 19.3254 37.3146 19.5809 37.1141 19.7815C36.9135 19.982 36.658 20.1186 36.3798 20.1739C36.1017 20.2293 35.8133 20.2009 35.5513 20.0923C35.2892 19.9838 35.0653 19.8 34.9077 19.5641C34.7501 19.3283 34.666 19.0511 34.666 18.7674C34.666 18.3871 34.8171 18.0223 35.086 17.7534C35.355 17.4845 35.7197 17.3334 36.1001 17.3334Z" fill="#707070"/>
</svg>
