<svg width="24" height="24" viewBox="0 0 24 24" fill="none" xmlns="http://www.w3.org/2000/svg">
<path d="M15.5394 7.16862L14.6502 3.94727H8.00917L7.20771 7.16862H2.64941V20.054H21.3494V7.16862H15.5394Z" stroke="#707070" stroke-width="1.3" stroke-miterlimit="10" stroke-linecap="round" stroke-linejoin="round"/>
<path d="M9.07306 9.95912C9.81896 9.60714 10.6628 9.52071 11.4645 9.71417C12.2663 9.90762 12.9779 10.3693 13.4812 11.0227C13.9845 11.6761 14.2494 12.4819 14.2319 13.3065C14.2143 14.1311 13.9154 14.925 13.3847 15.5564C12.8541 16.1878 12.1235 16.6188 11.3143 16.778C10.505 16.9371 9.6656 16.8149 8.93534 16.4315C8.20508 16.0481 7.62781 15.4266 7.29928 14.6701C6.97075 13.9136 6.91068 13.0675 7.12906 12.2721" stroke="#707070" stroke-width="1.3" stroke-miterlimit="10" stroke-linecap="round" stroke-linejoin="round"/>
<path d="M18.05 9.28125C18.1918 9.28125 18.3305 9.3233 18.4484 9.40209C18.5663 9.48088 18.6582 9.59286 18.7125 9.72388C18.7667 9.8549 18.7809 9.99907 18.7533 10.1382C18.7256 10.2772 18.6573 10.405 18.557 10.5053C18.4568 10.6056 18.329 10.6739 18.1899 10.7015C18.0508 10.7292 17.9067 10.715 17.7756 10.6607C17.6446 10.6065 17.5326 10.5145 17.4538 10.3966C17.3751 10.2787 17.333 10.1401 17.333 9.99828C17.333 9.80811 17.4086 9.62573 17.543 9.49126C17.6775 9.35679 17.8599 9.28125 18.05 9.28125Z" fill="#707070"/>
</svg>
