<svg width="48" height="48" viewBox="0 0 48 48" fill="none" xmlns="http://www.w3.org/2000/svg">
<path d="M31.2435 13.2586L29.424 6.66663H15.8341L14.1941 13.2586H4.86621V39.6267H43.1329V13.2586H31.2435Z" stroke="#3682F9" stroke-width="1.3" stroke-miterlimit="10" stroke-linecap="round" stroke-linejoin="round"/>
<path d="M18.1461 18.6918C19.6379 17.9878 21.3255 17.815 22.9291 18.2019C24.5326 18.5888 25.9557 19.5122 26.9624 20.819C27.9691 22.1258 28.4988 23.7374 28.4637 25.3866C28.4286 27.0358 27.8308 28.6235 26.7695 29.8863C25.7082 31.1491 24.2471 32.0111 22.6285 32.3295C21.01 32.6478 19.3312 32.4034 17.8707 31.6366C16.4102 30.8698 15.2556 29.6268 14.5986 28.1138C13.9415 26.6007 13.8214 24.9085 14.2581 23.3178" stroke="#3682F9" stroke-width="1.3" stroke-miterlimit="10" stroke-linecap="round" stroke-linejoin="round"/>
<path d="M36.1001 17.3333C36.3837 17.3333 36.661 17.4174 36.8968 17.5749C37.1326 17.7325 37.3164 17.9565 37.425 18.2185C37.5335 18.4806 37.5619 18.7689 37.5066 19.0471C37.4512 19.3253 37.3146 19.5808 37.1141 19.7813C36.9135 19.9819 36.658 20.1185 36.3798 20.1738C36.1017 20.2291 35.8133 20.2007 35.5513 20.0922C35.2892 19.9837 35.0653 19.7998 34.9077 19.564C34.7501 19.3282 34.666 19.0509 34.666 18.7673C34.666 18.387 34.8171 18.0222 35.086 17.7533C35.355 17.4843 35.7197 17.3333 36.1001 17.3333Z" fill="#3682F9"/>
</svg>
