<svg width="24" height="24" viewBox="0 0 24 24" fill="none" xmlns="http://www.w3.org/2000/svg">
<g clip-path="url(#clip0_5552_115174)">
<path d="M2.64844 11.8789H21.3484" stroke="#F86D6D" stroke-width="1.3" stroke-linecap="round" stroke-linejoin="round"/>
<path d="M11.894 21.5363H16.6126C18.0054 21.5363 18.3531 19.1627 18.3531 19.1627L19.3581 11.9871C19.3581 11.9871 18.8551 9.28909 18.3912 7.61724C17.9272 5.94539 16.7278 5.99824 16.7278 5.99824H7.05808C7.05808 5.99824 5.85967 5.94433 5.39468 7.61724C4.92969 9.29014 4.42773 11.9871 4.42773 11.9871L5.43167 19.1575C5.43167 19.1575 5.77936 21.531 7.17222 21.531L11.894 21.5363Z" stroke="#F86D6D" stroke-width="1.3" stroke-linecap="round" stroke-linejoin="round"/>
<path d="M9.76953 4.28103C9.76953 3.38486 10.3212 2.65039 10.9965 2.65039H12.9663C13.6406 2.65039 14.1933 3.38381 14.1933 4.28103" stroke="#F86D6D" stroke-width="1.3" stroke-linecap="round" stroke-linejoin="round"/>
<path d="M13.1543 13.9297V19.3606" stroke="#F86D6D" stroke-width="1.3" stroke-linecap="round" stroke-linejoin="round"/>
<path d="M10.7305 13.9297V19.3606" stroke="#F86D6D" stroke-width="1.3" stroke-linecap="round" stroke-linejoin="round"/>
<path d="M8.30469 13.9297V19.3606" stroke="#F86D6D" stroke-width="1.3" stroke-linecap="round" stroke-linejoin="round"/>
<path d="M15.6621 13.9297V19.3606" stroke="#F86D6D" stroke-width="1.3" stroke-linecap="round" stroke-linejoin="round"/>
</g>
<defs>
<clipPath id="clip0_5552_115174">
<rect width="20" height="20" fill="white" transform="translate(2 2)"/>
</clipPath>
</defs>
</svg>
