<svg width="24" height="24" viewBox="0 0 24 24" fill="none" xmlns="http://www.w3.org/2000/svg">
<path d="M17.8624 7.96478L17.9235 8.02679C17.8231 7.92638 17.7039 7.84664 17.5728 7.7923C17.4416 7.73795 17.3009 7.71002 17.1589 7.71002C17.0169 7.71002 16.8764 7.73795 16.7452 7.7923C16.6141 7.84664 16.4949 7.92638 16.3945 8.02679L10.6025 13.8178L7.59351 10.8088C7.49312 10.7084 7.37397 10.6286 7.2428 10.5743C7.11162 10.5199 6.97097 10.492 6.82898 10.492C6.68699 10.492 6.54646 10.5199 6.41528 10.5743C6.28411 10.6286 6.16484 10.7084 6.06445 10.8088L6.12549 10.7477C5.92318 10.9507 5.80957 11.2257 5.80957 11.5123C5.80957 11.7989 5.92318 12.0738 6.12549 12.2768L9.8175 15.9677C10.0286 16.1708 10.3101 16.2842 10.603 16.2842C10.8959 16.2842 11.1773 16.1708 11.3884 15.9677L17.8635 9.49371C18.0659 9.29071 18.1795 9.01574 18.1793 8.72906C18.1791 8.44239 18.0651 8.16752 17.8624 7.96478Z" fill="#3682F9"/>
<rect x="2.5" y="2.5" width="19" height="19" stroke="#3682F9"/>
</svg>
