<svg width="18" height="18" viewBox="0 0 18 18" fill="none" xmlns="http://www.w3.org/2000/svg">
<path d="M14.8624 4.96472L14.9235 5.02673C14.8231 4.92632 14.7039 4.84658 14.5728 4.79224C14.4416 4.73789 14.3009 4.70996 14.1589 4.70996C14.0169 4.70996 13.8764 4.73789 13.7452 4.79224C13.6141 4.84658 13.4949 4.92632 13.3945 5.02673L7.60254 10.8177L4.59351 7.80872C4.49312 7.7083 4.37397 7.62856 4.2428 7.57422C4.11162 7.51987 3.97097 7.49194 3.82898 7.49194C3.68699 7.49194 3.54646 7.51987 3.41528 7.57422C3.28411 7.62856 3.16484 7.7083 3.06445 7.80872L3.12549 7.74768C2.92318 7.95068 2.80957 8.22561 2.80957 8.51221C2.80957 8.7988 2.92318 9.07374 3.12549 9.27673L6.8175 12.9677C7.02859 13.1707 7.31013 13.2842 7.60303 13.2842C7.89593 13.2842 8.17735 13.1707 8.38843 12.9677L14.8635 6.49365C15.0659 6.29065 15.1795 6.01568 15.1793 5.729C15.1791 5.44233 15.0651 5.16746 14.8624 4.96472Z" fill="#3682F9"/>
</svg>
