<svg width="24" height="24" viewBox="0 0 24 24" fill="none" xmlns="http://www.w3.org/2000/svg">
<path d="M12 22C17.5228 22 22 17.5228 22 12C22 6.47715 17.5228 2 12 2C6.47715 2 2 6.47715 2 12C2 17.5228 6.47715 22 12 22Z" fill="#F8F8F8"/>
<path d="M17.2373 8.40729L17.2914 8.46234C17.1104 8.28159 16.8651 8.17999 16.6094 8.17999C16.3536 8.17999 16.1083 8.28159 15.9274 8.46234L10.7583 13.6303L8.07336 10.9454C7.98375 10.8557 7.87736 10.7845 7.76025 10.736C7.64315 10.6875 7.51763 10.6625 7.39087 10.6625C7.26411 10.6625 7.13859 10.6875 7.02148 10.736C6.90438 10.7845 6.79799 10.8557 6.70837 10.9454L6.76233 10.8913C6.58182 11.0724 6.48047 11.3176 6.48047 11.5733C6.48047 11.829 6.58182 12.0742 6.76233 12.2553L10.0564 15.5494C10.2447 15.73 10.4954 15.8309 10.7563 15.8309C11.0173 15.8309 11.268 15.73 11.4563 15.5494L17.2344 9.77228C17.3242 9.68286 17.3956 9.57665 17.4443 9.45966C17.4931 9.34266 17.5184 9.21715 17.5187 9.09039C17.519 8.96363 17.4942 8.8381 17.4459 8.72089C17.3977 8.60367 17.3268 8.4971 17.2373 8.40729Z" fill="#C1C1C1"/>
</svg>
