<svg width="16" height="16" viewBox="0 0 16 16" fill="none" xmlns="http://www.w3.org/2000/svg">
<path fill-rule="evenodd" clip-rule="evenodd" d="M15.8008 0.19909C16.0663 0.464543 16.0663 0.894927 15.8008 1.16038L1.16038 15.8008C0.894927 16.0663 0.464543 16.0663 0.19909 15.8008C-0.0663632 15.5354 -0.0663632 15.105 0.19909 14.8395L14.8395 0.19909C15.105 -0.0663632 15.5354 -0.0663632 15.8008 0.19909Z" fill="#DC6F6B"/>
<path fill-rule="evenodd" clip-rule="evenodd" d="M15.8009 15.801C15.5355 16.0664 15.1051 16.0664 14.8396 15.801L9.77178 10.7331C9.50632 10.4677 9.50632 10.0373 9.77178 9.77184C10.0372 9.50639 10.4676 9.50639 10.7331 9.77184L15.8009 14.8397C16.0664 15.1051 16.0664 15.5355 15.8009 15.801Z" fill="#DC6F6B"/>
<path fill-rule="evenodd" clip-rule="evenodd" d="M8.4806 8.4806C8.21514 8.74605 7.78476 8.74605 7.51931 8.4806L0.199086 1.16038C-0.0663671 0.894927 -0.0663671 0.464543 0.199086 0.19909C0.464539 -0.0663632 0.894922 -0.0663632 1.16038 0.19909L8.4806 7.51931C8.74605 7.78477 8.74605 8.21515 8.4806 8.4806Z" fill="#DC6F6B"/>
</svg>
