<svg width="24" height="24" viewBox="0 0 24 24" fill="none" xmlns="http://www.w3.org/2000/svg">
<path fill-rule="evenodd" clip-rule="evenodd" d="M19.8008 4.19909C20.0663 4.46454 20.0663 4.89493 19.8008 5.16038L5.16038 19.8008C4.89493 20.0663 4.46454 20.0663 4.19909 19.8008C3.93364 19.5354 3.93364 19.105 4.19909 18.8395L18.8395 4.19909C19.105 3.93364 19.5354 3.93364 19.8008 4.19909Z" fill="#707070"/>
<path fill-rule="evenodd" clip-rule="evenodd" d="M19.8009 19.8009C19.5355 20.0663 19.1051 20.0663 18.8396 19.8009L13.7718 14.733C13.5063 14.4676 13.5063 14.0372 13.7718 13.7717C14.0372 13.5063 14.4676 13.5063 14.7331 13.7717L19.8009 18.8396C20.0664 19.105 20.0664 19.5354 19.8009 19.8009Z" fill="#707070"/>
<path fill-rule="evenodd" clip-rule="evenodd" d="M12.4806 12.4806C12.2151 12.7461 11.7848 12.7461 11.5193 12.4806L4.19909 5.16038C3.93363 4.89493 3.93363 4.46454 4.19909 4.19909C4.46454 3.93364 4.89492 3.93364 5.16038 4.19909L12.4806 11.5193C12.7461 11.7848 12.7461 12.2151 12.4806 12.4806Z" fill="#707070"/>
</svg>
