<svg width="24" height="24" viewBox="0 0 24 24" fill="none" xmlns="http://www.w3.org/2000/svg">
<path fill-rule="evenodd" clip-rule="evenodd" d="M11.9967 3.3C9.54031 3.3 7.54902 5.29129 7.54902 7.74767C7.54902 10.2041 9.54031 12.1953 11.9967 12.1953C14.4531 12.1953 16.4444 10.2041 16.4444 7.74767C16.4444 5.29129 14.4531 3.3 11.9967 3.3ZM6.24902 7.74767C6.24902 4.57332 8.82234 2 11.9967 2C15.171 2 17.7444 4.57332 17.7444 7.74767C17.7444 10.922 15.171 13.4953 11.9967 13.4953C8.82234 13.4953 6.24902 10.922 6.24902 7.74767Z" fill="#3682F9"/>
<path fill-rule="evenodd" clip-rule="evenodd" d="M5.23886 17.5856C5.07318 17.8193 5.0002 18.0755 5.0002 18.3671C5.0002 18.7618 5.13254 19.1177 5.51318 19.4454C5.92107 19.7965 6.6446 20.139 7.87043 20.375C8.22294 20.4429 8.45366 20.7837 8.38577 21.1362C8.31788 21.4888 7.97708 21.7195 7.62457 21.6516C6.29114 21.3948 5.31601 20.9909 4.66506 20.4306C3.98687 19.8468 3.7002 19.126 3.7002 18.3671C3.7002 17.8377 3.83954 17.3116 4.17834 16.8337C4.51272 16.3621 5.01283 15.9773 5.67151 15.6739C6.97042 15.0757 8.99777 14.7432 12.0002 14.7432C15.0026 14.7432 17.0299 15.0757 18.3289 15.6739C18.9875 15.9773 19.4877 16.3621 19.822 16.8337C20.1608 17.3116 20.3002 17.8377 20.3002 18.3671C20.3002 18.8966 20.1607 19.4227 19.8218 19.9005C19.4873 20.372 18.9871 20.7567 18.3284 21.0599C17.0294 21.6579 15.0021 21.9902 12.0002 21.9902C11.7026 21.9902 11.4149 21.9872 11.1371 21.9813C10.7782 21.9737 10.4934 21.6766 10.501 21.3177C10.5086 20.9588 10.8057 20.674 11.1647 20.6816C11.4327 20.6873 11.7112 20.6902 12.0002 20.6902C14.9487 20.6902 16.7464 20.357 17.7848 19.879C18.2948 19.6442 18.5914 19.3882 18.7615 19.1484C18.9272 18.9148 19.0002 18.6587 19.0002 18.3671C19.0002 18.0755 18.9272 17.8193 18.7615 17.5856C18.5914 17.3457 18.2949 17.0896 17.785 16.8547C16.7468 16.3765 14.9491 16.0432 12.0002 16.0432C9.05123 16.0432 7.25359 16.3765 6.21535 16.8547C5.70545 17.0896 5.40895 17.3457 5.23886 17.5856Z" fill="#3682F9"/>
<path fill-rule="evenodd" clip-rule="evenodd" d="M9.77763 9.33945C9.99312 9.05233 10.4006 8.99427 10.6877 9.20976C11.0652 9.49314 11.5245 9.64635 11.9965 9.64635C12.4686 9.64635 12.9279 9.49314 13.3055 9.20976C13.5926 8.99427 14 9.05233 14.2155 9.33945C14.431 9.62656 14.3729 10.034 14.0858 10.2495C13.4832 10.7018 12.7501 10.9463 11.9965 10.9463C11.243 10.9463 10.5099 10.7018 9.90732 10.2495C9.62021 10.034 9.56214 9.62656 9.77763 9.33945Z" fill="#3682F9"/>
</svg>
