<svg width="24" height="24" viewBox="0 0 24 24" fill="none" xmlns="http://www.w3.org/2000/svg">
<g clip-path="url(#clip0_4969_106275)">
<path d="M2.65137 12.9938V5.47119C2.65391 4.72347 2.95219 4.00716 3.48106 3.47859C4.00993 2.95002 4.72643 2.65214 5.47415 2.65002H11.9965" stroke="#3682F9" stroke-width="1.3" stroke-linecap="round" stroke-linejoin="round"/>
<path d="M21.3481 16.6735V18.5264C21.346 19.274 21.048 19.9903 20.5194 20.519C19.9908 21.0476 19.2745 21.3455 18.5269 21.3476H5.47269C4.72497 21.3455 4.00847 21.0476 3.4796 20.5191C2.95073 19.9905 2.65244 19.2741 2.6499 18.5264" stroke="#3682F9" stroke-width="1.3" stroke-linecap="round" stroke-linejoin="round"/>
<path d="M16.9502 4.4176L21.3498 8.65982" stroke="#3682F9" stroke-width="1.3" stroke-linecap="round" stroke-linejoin="round"/>
<path d="M16.9503 12.9014L21.3499 8.65922C21.3499 8.65922 11.1137 5.80754 7.54102 13.2081" stroke="#3682F9" stroke-width="1.3" stroke-linecap="round" stroke-linejoin="round"/>
</g>
<defs>
<clipPath id="clip0_4969_106275">
<rect width="20" height="20" fill="white" transform="translate(2 2)"/>
</clipPath>
</defs>
</svg>
