<svg width="18" height="18" viewBox="0 0 18 18" fill="none" xmlns="http://www.w3.org/2000/svg">
<g clip-path="url(#clip0_842_8546)">
<path d="M1.65137 9.78115V3.86762C1.65337 3.27984 1.88784 2.71675 2.30359 2.30124C2.71934 1.88573 3.28257 1.65157 3.87036 1.6499H8.99754" stroke="#707070" stroke-width="1.3" stroke-linecap="round" stroke-linejoin="round"/>
<path d="M16.3491 12.6738V14.1304C16.3474 14.7181 16.1131 15.2812 15.6976 15.6968C15.2821 16.1123 14.719 16.3465 14.1313 16.3482H3.86938C3.2816 16.3465 2.71836 16.1124 2.30261 15.6968C1.88687 15.2813 1.65239 14.7182 1.65039 14.1304" stroke="#707070" stroke-width="1.3" stroke-linecap="round" stroke-linejoin="round"/>
<path d="M12.8916 3.03955L16.3501 6.37436" stroke="#707070" stroke-width="1.3" stroke-linecap="round" stroke-linejoin="round"/>
<path d="M12.8918 9.70868L16.3502 6.37387C16.3502 6.37387 8.30357 4.13217 5.49512 9.94977" stroke="#707070" stroke-width="1.3" stroke-linecap="round" stroke-linejoin="round"/>
</g>
<defs>
<clipPath id="clip0_842_8546">
<rect width="16" height="16" fill="white" transform="translate(1 1)"/>
</clipPath>
</defs>
</svg>
