<svg width="24" height="24" viewBox="0 0 24 24" fill="none" xmlns="http://www.w3.org/2000/svg">
<g clip-path="url(#clip0_4797_44388)">
<path d="M5.36472 21.9164L4.95038 21.6772C3.6531 20.9282 3.20874 19.2698 3.95773 17.9726L6.56107 13.4634C4.99455 11.2858 4.78154 8.23155 6.2596 5.67148C8.24333 2.23554 12.5222 0.991925 15.8165 2.89389C19.1101 4.79545 20.1726 9.12289 18.1888 12.5588C16.8016 14.9616 14.2926 16.292 11.7831 16.2251L10.489 18.4665C10.3267 18.7475 9.96734 18.8438 9.68626 18.6816C9.40519 18.5193 9.30889 18.1599 9.47117 17.8788L10.7652 15.6375C10.9808 15.2641 11.3834 15.0387 11.8144 15.0502C13.9885 15.1082 16.041 13.9283 17.171 11.9712C18.8276 9.10189 17.9563 5.48644 15.2289 3.91174C12.501 2.33681 8.93403 3.38985 7.27744 6.25913C6.07354 8.34435 6.16685 10.9028 7.51516 12.7771C7.78506 13.1523 7.81001 13.6508 7.57892 14.0511L4.97558 18.5602C4.55191 19.294 4.80423 20.2357 5.53804 20.6593L5.95238 20.8986C6.23345 21.0608 6.32975 21.4202 6.16747 21.7013C6.0052 21.9824 5.6458 22.0787 5.36472 21.9164Z" fill="#3682F9"/>
<path fill-rule="evenodd" clip-rule="evenodd" d="M12.9199 8.08422C12.3543 7.75766 11.631 7.95146 11.3045 8.51708C10.9779 9.08269 11.1717 9.80594 11.7373 10.1325C12.3029 10.4591 13.0262 10.2653 13.3527 9.69965C13.6793 9.13403 13.4855 8.41078 12.9199 8.08422ZM10.1786 7.86708C10.8642 6.67968 12.3825 6.27285 13.5699 6.95839C14.7573 7.64393 15.1641 9.16225 14.4786 10.3497C13.793 11.537 12.2747 11.9439 11.0873 11.2583C9.89992 10.5728 9.49309 9.05447 10.1786 7.86708Z" fill="#3682F9"/>
</g>
<defs>
<clipPath id="clip0_4797_44388">
<rect width="20" height="20" fill="white" transform="translate(2 2)"/>
</clipPath>
</defs>
</svg>
