<svg width="24" height="24" viewBox="0 0 24 24" fill="none" xmlns="http://www.w3.org/2000/svg">
<g clip-path="url(#clip0_860_28502)">
<path d="M12.001 20.8531C12.0962 20.8531 12.1903 20.8317 12.2763 20.7907C14.0119 19.9157 15.6325 18.8291 17.101 17.5557C18.4109 16.4478 19.5397 15.1421 20.4468 13.6859C21.4428 12.0977 21.9806 10.2653 22.001 8.39074C22.0384 7.72216 21.9402 7.05291 21.7122 6.4233C21.4842 5.79369 21.1311 5.21673 20.6742 4.72718C20.2173 4.23763 19.6661 3.84567 19.0537 3.57479C18.4413 3.30391 17.7805 3.15977 17.1109 3.15106C16.2752 3.17148 15.454 3.37435 14.705 3.74545C13.9559 4.11656 13.2971 4.64694 12.7745 5.29944C12.4923 5.62277 12.2338 5.96603 12.001 6.32657C11.7681 5.96604 11.5096 5.62278 11.2274 5.29944C10.7048 4.64699 10.0459 4.11662 9.29681 3.74551C8.54776 3.37441 7.7267 3.17154 6.89101 3.15106C6.22144 3.15977 5.56057 3.30391 4.94818 3.57479C4.33578 3.84567 3.78451 4.23763 3.32762 4.72718C2.87074 5.21673 2.51768 5.79369 2.28968 6.4233C2.06167 7.05291 1.96346 7.72216 2.00094 8.39074C2.06414 10.9685 3.03865 13.4404 4.75152 15.3678C4.80297 15.4394 4.86863 15.4997 4.94437 15.545C5.0201 15.5902 5.10427 15.6194 5.19175 15.6307C5.27923 15.6421 5.36815 15.6353 5.45291 15.6109C5.53767 15.5864 5.6165 15.5448 5.68452 15.4886C5.75253 15.4324 5.80827 15.3629 5.84829 15.2843C5.8883 15.2057 5.91169 15.1197 5.91708 15.0316C5.92248 14.9436 5.90972 14.8553 5.8796 14.7724C5.84948 14.6895 5.80266 14.6137 5.74201 14.5496C4.22164 12.8511 3.35114 10.6694 3.28458 8.39074C3.26221 7.347 3.6331 6.33302 4.32362 5.55003C4.64923 5.19586 5.04557 4.91395 5.48695 4.72252C5.92833 4.53109 6.40497 4.43439 6.88605 4.43869C9.8704 4.43869 11.3898 7.87173 11.4057 7.90541C11.4557 8.02136 11.5387 8.12004 11.6443 8.18924C11.75 8.25844 11.8736 8.29512 11.9999 8.29468C12.1264 8.29517 12.2501 8.2584 12.3558 8.189C12.4615 8.1196 12.5445 8.02066 12.5943 7.90444C12.6091 7.87076 14.1285 4.43772 17.1128 4.43772C17.5939 4.43342 18.0706 4.53007 18.5119 4.7215C18.9533 4.91293 19.3497 5.19483 19.6753 5.549C20.3658 6.33199 20.7367 7.34603 20.7143 8.38977C20.693 10.0299 20.2193 11.6322 19.3454 13.0203C18.508 14.3622 17.4664 15.5653 16.2581 16.5861C14.8764 17.7804 13.3547 18.8024 11.7265 19.6298C11.594 19.6923 11.4868 19.7981 11.4225 19.9297C11.3582 20.0613 11.3407 20.2109 11.3729 20.3538C11.4051 20.4967 11.4851 20.6243 11.5997 20.7157C11.7142 20.807 11.8564 20.8565 12.0029 20.8561L12.001 20.8531Z" fill="#707070"/>
</g>
<defs>
<clipPath id="clip0_860_28502">
<rect width="20" height="17.7031" fill="white" transform="translate(2 3.15002)"/>
</clipPath>
</defs>
</svg>
