<svg width="18" height="18" viewBox="0 0 18 18" fill="none" xmlns="http://www.w3.org/2000/svg">
<g clip-path="url(#clip0_5552_48677)">
<path d="M9.00098 8.1543V13.6445" stroke="#707070" stroke-width="1.3" stroke-linecap="round"/>
<path d="M11.9888 4.7029C11.9888 6.33374 10.6668 7.6558 9.03591 7.6558C7.40507 7.6558 6.08301 6.33374 6.08301 4.7029C6.08301 3.07206 7.40507 1.75 9.03591 1.75C10.6668 1.75 11.9888 3.07206 11.9888 4.7029Z" stroke="#707070"/>
<path d="M9.03612 7.48141C10.5705 7.48141 11.8144 6.23752 11.8144 4.70311C11.8144 3.16869 10.5705 1.9248 9.03612 1.9248C7.5017 1.9248 6.25781 3.16869 6.25781 4.70311C6.25781 6.23752 7.5017 7.48141 9.03612 7.48141Z" stroke="#707070" stroke-width="1.3" stroke-linecap="round"/>
<path d="M4.91652 15.8541C2.45579 15.3798 1.65039 14.4187 1.65039 13.3103C1.65039 11.7318 3.28399 10.4521 9.00042 10.4521C14.7169 10.4521 16.3504 11.7328 16.3504 13.3103C16.3504 14.8879 14.7169 16.1686 9.00042 16.1686C8.71882 16.1686 8.44657 16.1658 8.18365 16.1603" stroke="#707070" stroke-width="1.3" stroke-linecap="round" stroke-linejoin="round"/>
</g>
<defs>
<clipPath id="clip0_5552_48677">
<rect width="16" height="16" fill="white" transform="translate(1 1)"/>
</clipPath>
</defs>
</svg>
