<svg width="24" height="24" viewBox="0 0 24 24" fill="none" xmlns="http://www.w3.org/2000/svg">
<path d="M16.9416 6.60356C16.9416 4.06108 14.729 2 11.9996 2C9.27022 2 7.05762 4.06108 7.05762 6.60356V11.2597C7.05762 13.8021 9.27022 15.8632 11.9996 15.8632C14.729 15.8632 16.9416 13.8021 16.9416 11.2597V6.60356Z" fill="#F1F8FE"/>
<path fill-rule="evenodd" clip-rule="evenodd" d="M11.9996 3.24188C10.0065 3.24188 8.3908 4.74695 8.3908 6.60356V11.2597C8.3908 13.1163 10.0065 14.6213 11.9996 14.6213C13.9927 14.6213 15.6084 13.1163 15.6084 11.2597V6.60356C15.6084 4.74695 13.9927 3.24188 11.9996 3.24188ZM7.05762 6.60356C7.05762 4.06108 9.27022 2 11.9996 2C14.729 2 16.9416 4.06108 16.9416 6.60356V11.2597C16.9416 13.8021 14.729 15.8632 11.9996 15.8632C9.27022 15.8632 7.05762 13.8021 7.05762 11.2597V6.60356Z" fill="#3682F9"/>
<path d="M20.3338 11.995V18.8588C20.3338 19.5272 20.0488 20.1682 19.5414 20.6408C19.0341 21.1134 18.346 21.3789 17.6285 21.3789H6.37232C5.65491 21.3786 4.96696 21.113 4.45967 20.6405C3.95238 20.1679 3.66726 19.5271 3.66699 18.8588V14.5113C3.66699 13.8428 3.95201 13.2017 4.45933 12.729C4.96664 12.2562 5.65473 11.9905 6.37232 11.9902H17.6315" fill="#F1F8FE"/>
<path fill-rule="evenodd" clip-rule="evenodd" d="M6.37192 11.3696L17.6311 11.3696C17.9993 11.3696 18.2977 11.6476 18.2977 11.9906C18.2977 12.3335 17.9993 12.6115 17.6311 12.6115H6.37217C6.37209 12.6115 6.37226 12.6115 6.37217 12.6115C5.83144 12.6118 5.31268 12.812 4.93036 13.1683C4.54799 13.5246 4.33318 14.0078 4.33318 14.5116V18.8589C4.33318 18.859 4.33318 18.8588 4.33318 18.8589C4.33345 19.3625 4.54833 19.8456 4.93062 20.2017C5.3129 20.5578 5.8313 20.758 6.37192 20.7583C6.37201 20.7583 6.37184 20.7583 6.37192 20.7583H17.6281C18.1688 20.7583 18.6874 20.5582 19.0697 20.202C19.452 19.8459 19.6668 19.3628 19.6668 18.8591V11.9954C19.6668 11.6524 19.9653 11.3744 20.3334 11.3744C20.7016 11.3744 21 11.6524 21 11.9954V18.8591C21 19.6922 20.6448 20.4911 20.0124 21.0802C19.38 21.6692 18.5224 22.0001 17.6281 22.0001H6.37192C5.4778 21.9998 4.62015 21.6688 3.98792 21.0799C3.35568 20.4909 3.00034 19.6923 3 18.8594L3 14.5116C3 13.6785 3.35522 12.8795 3.98748 12.2903C4.61975 11.7011 5.47757 11.3699 6.37192 11.3696Z" fill="#3682F9"/>
<path fill-rule="evenodd" clip-rule="evenodd" d="M12.3824 14.5361C12.7506 14.5361 13.049 14.8141 13.049 15.1571V17.8597C13.049 18.2026 12.7506 18.4806 12.3824 18.4806C12.0143 18.4806 11.7158 18.2026 11.7158 17.8597V15.1571C11.7158 14.8141 12.0143 14.5361 12.3824 14.5361Z" fill="#3682F9"/>
</svg>
