<svg width="16" height="16" viewBox="0 0 16 16" fill="none" xmlns="http://www.w3.org/2000/svg">
<g clip-path="url(#clip0_5501_11360)">
<path d="M13.1432 16.0005C12.9419 16.0002 12.7473 15.927 12.5936 15.7937L8 11.5879L3.40521 15.7937C3.25184 15.9267 3.05764 15.9999 2.85681 16.0005C2.73225 16.0003 2.60928 15.9717 2.49681 15.9168C2.34832 15.8445 2.22284 15.7305 2.13492 15.588C2.047 15.4456 2.00022 15.2805 2.00002 15.1119V1.77772C1.9981 1.30917 2.17741 0.858968 2.49864 0.525813C2.81986 0.192658 3.25679 0.0037425 3.71361 0.000488281L12.2852 0.000488281C12.7422 0.003418 13.1795 0.19219 13.5009 0.52538C13.8224 0.858571 14.0019 1.30896 14 1.77772V15.1119C14 15.28 13.9537 15.4448 13.8664 15.5872C13.7792 15.7296 13.6545 15.8438 13.5068 15.9168C13.3932 15.9723 13.269 16.0009 13.1432 16.0005ZM12.5 1.50049H3.5V13.782L7.451 10.2069C7.60443 10.0736 7.79896 10.0005 8 10.0005C8.20104 10.0005 8.39557 10.0736 8.549 10.2069L12.5 13.782V1.50049Z" fill="#313131"/>
</g>
<defs>
<clipPath id="clip0_5501_11360">
<rect width="16" height="16" fill="white" transform="translate(0 0.000488281)"/>
</clipPath>
</defs>
</svg>
