<svg width="24" height="24" viewBox="0 0 24 24" fill="none" xmlns="http://www.w3.org/2000/svg">
<path d="M21.3487 3.71116V15.8694C21.3759 17.014 21.0716 18.1267 20.5027 18.9633C19.9338 19.7999 19.1467 20.2923 18.3141 20.3322H6.00037C5.16759 20.2926 4.06748 19.8004 3.49838 18.9638C2.92928 18.1271 2.62491 17.0142 2.65206 15.8694V8.17274C2.62491 7.02791 2.92928 5.91507 3.49838 5.07839C4.06748 4.24171 5.50037 3.70996 6.50037 3.70996H18.3141" stroke="#3682F9" stroke-width="1.3" stroke-linecap="round" stroke-linejoin="round"/>
<path d="M12.0048 11.9057C13.6632 11.9057 15.0077 10.5613 15.0077 8.90288C15.0077 7.24445 13.6632 5.90002 12.0048 5.90002C10.3464 5.90002 9.00195 7.24445 9.00195 8.90288C9.00195 10.5613 10.3464 11.9057 12.0048 11.9057Z" stroke="#3682F9" stroke-width="1.3" stroke-linecap="round" stroke-linejoin="round"/>
<path d="M14.5075 14.2236C16.0155 14.5631 16.5098 15.2518 16.5098 16.046C16.5098 17.1773 15.5092 18.0939 12.0049 18.0939C8.50055 18.0939 7.5 17.1773 7.5 16.046C7.5 14.9147 8.50055 13.9993 12.0049 13.9993C12.1776 13.9993 12.3444 14.0013 12.5052 14.0053" stroke="#3682F9" stroke-width="1.3" stroke-linecap="round" stroke-linejoin="round"/>
</svg>
