<svg width="18" height="18" viewBox="0 0 18 18" fill="none" xmlns="http://www.w3.org/2000/svg">
<g clip-path="url(#clip0_788_1340)">
<path d="M9.00039 16.35C13.0597 16.35 16.3504 13.0593 16.3504 9.00002C16.3504 4.94073 13.0597 1.65002 9.00039 1.65002C4.9411 1.65002 1.65039 4.94073 1.65039 9.00002C1.65039 13.0593 4.9411 16.35 9.00039 16.35Z" stroke="#C1C1C1" stroke-width="1.3"/>
<path d="M9 11.2313C8.40206 11.2313 8 11.6175 8 12.1461C8 12.6341 8.40206 13 9 13C9.59794 13 10 12.6137 10 12.1156C10 11.6175 9.59794 11.2313 9 11.2313ZM9.80412 5H8.19588V10.4689H9.80412L9.80412 5Z" fill="#C1C1C1"/>
</g>
<defs>
<clipPath id="clip0_788_1340">
<rect width="16" height="16" fill="white" transform="translate(1 1)"/>
</clipPath>
</defs>
</svg>
