<svg width="34" height="28" viewBox="0 0 34 28" fill="none" xmlns="http://www.w3.org/2000/svg">
<g clip-path="url(#clip0_842_8539)">
<path d="M22.3164 10.1992H24.3955C24.7632 10.1992 25.1272 10.2717 25.4669 10.4124C25.8066 10.5531 26.1154 10.7593 26.3754 11.0193C26.6354 11.2794 26.8416 11.588 26.9823 11.9277C27.123 12.2674 27.1954 12.6315 27.1954 12.9992C27.1954 13.7418 26.9005 14.454 26.3754 14.9791C25.8503 15.5042 25.1381 15.7992 24.3955 15.7992H22.3164" fill="#3682F9"/>
<path d="M12.7997 23.6223V23.9294C12.7997 24.7353 12.4796 25.5083 11.9097 26.0782C11.3397 26.6482 10.5667 26.9684 9.76074 26.9684C8.95475 26.9684 8.18174 26.6482 7.61182 26.0782C7.04189 25.5083 6.72168 24.7353 6.72168 23.9294V21.0684" stroke="#494949" stroke-width="2" stroke-linecap="round" stroke-linejoin="round"/>
<path d="M30.4697 12.9961H32.9917" stroke="#494949" stroke-width="2" stroke-linecap="round" stroke-linejoin="round"/>
<path d="M28.1836 17.3721L29.9676 19.1561" stroke="#494949" stroke-width="2" stroke-linecap="round" stroke-linejoin="round"/>
<path d="M28.3428 8.64435L30.1268 6.86035" stroke="#494949" stroke-width="2" stroke-linecap="round" stroke-linejoin="round"/>
<path d="M3.80103 8.27597H3.22607C2.63627 8.27782 2.07111 8.51294 1.65405 8.92999C1.237 9.34705 1.00185 9.91218 1 10.502V15.485C1.00158 16.075 1.2366 16.6403 1.65369 17.0576C2.07077 17.4749 2.6361 17.7101 3.22607 17.712H6.72107L18.3101 22.705V22.984C18.3101 23.5155 18.5211 24.0252 18.897 24.401C19.2728 24.7769 19.7826 24.988 20.3141 24.988C20.8456 24.988 21.3553 24.7769 21.7311 24.401C22.1069 24.0252 22.318 23.5155 22.318 22.984V3.004C22.318 2.4725 22.1069 1.96277 21.7311 1.58694C21.3553 1.21112 20.8456 1 20.3141 1C19.7826 1 19.2728 1.21112 18.897 1.58694C18.5211 1.96277 18.3101 2.4725 18.3101 3.004V3.28299L6.72107 8.27597" stroke="#494949" stroke-width="2" stroke-linecap="round" stroke-linejoin="round"/>
<path d="M6.7207 8.27637V14.2344" stroke="#494949" stroke-width="2" stroke-linecap="round" stroke-linejoin="round"/>
</g>
<defs>
<clipPath id="clip0_842_8539">
<rect width="34" height="28" fill="white"/>
</clipPath>
</defs>
</svg>
