<svg width="24" height="24" viewBox="0 0 24 24" fill="none" xmlns="http://www.w3.org/2000/svg">
<path d="M17.4062 8.17291C18.0541 8.17476 18.6855 7.96843 19.2073 7.58439C19.7292 7.20034 20.114 6.65883 20.3051 6.03957C20.4962 5.42031 20.4835 4.75608 20.2689 4.14458C20.0543 3.53308 19.649 3.00676 19.1129 2.64295C18.5767 2.27914 17.9379 2.09702 17.2906 2.12365C16.6433 2.15028 16.0216 2.38423 15.5171 2.79084C15.0126 3.19746 14.652 3.75528 14.4883 4.38234C14.3245 5.00941 14.3664 5.67252 14.6077 6.27399L8.80695 9.90503C8.40005 9.45685 7.86774 9.14165 7.27927 9.00022C6.6908 8.85878 6.0734 8.89771 5.50738 9.11204C4.94135 9.32638 4.45291 9.70618 4.10557 10.202C3.75823 10.6978 3.56808 11.2867 3.55985 11.8921C3.55162 12.4975 3.72569 13.0912 4.05941 13.5963C4.39314 14.1013 4.87108 14.4944 5.43106 14.724C5.99105 14.9537 6.60716 15.0094 7.19926 14.884C7.79136 14.7586 8.33204 14.458 8.75098 14.0211L14.5589 17.8832C14.3131 18.5948 14.3424 19.3727 14.641 20.0638C14.9395 20.7549 15.4858 21.3093 16.1722 21.6179C16.8587 21.9265 17.6357 21.967 18.3506 21.7315C19.0654 21.496 19.6663 21.0016 20.0352 20.3453C20.404 19.689 20.514 18.9184 20.3436 18.1851C20.1733 17.4517 19.7348 16.8087 19.1144 16.3824C18.4941 15.9561 17.7368 15.7774 16.9914 15.8814C16.246 15.9854 15.5665 16.3646 15.0864 16.9445L9.34761 13.1322C9.5062 12.7676 9.59062 12.3751 9.59594 11.9774C9.60125 11.5798 9.52736 11.1851 9.37857 10.8164L15.1805 7.18535C15.4621 7.49623 15.8056 7.7447 16.1889 7.91479C16.5722 8.08487 16.9869 8.17279 17.4062 8.17291ZM17.4062 16.9254C17.7906 16.9254 18.1664 17.0394 18.486 17.2531C18.8056 17.4667 19.0547 17.7703 19.2018 18.1256C19.3489 18.4808 19.3874 18.8717 19.3124 19.2488C19.2374 19.626 19.0523 19.9725 18.7805 20.2444C18.5087 20.5163 18.1624 20.7015 17.7854 20.7765C17.4084 20.8515 17.0176 20.813 16.6625 20.6658C16.3074 20.5187 16.0038 20.2695 15.7903 19.9498C15.5767 19.63 15.4627 19.2541 15.4627 18.8696C15.4637 18.3543 15.6688 17.8606 16.0331 17.4963C16.3974 17.1321 16.8912 16.9272 17.4062 16.9266V16.9254ZM8.52233 11.9326C8.52233 12.3172 8.40835 12.6931 8.19479 13.0128C7.98124 13.3326 7.67771 13.5817 7.32258 13.7289C6.96745 13.8761 6.57667 13.9146 6.19967 13.8396C5.82267 13.7645 5.47637 13.5794 5.20457 13.3075C4.93276 13.0356 4.74766 12.689 4.67267 12.3119C4.59768 11.9348 4.63617 11.5439 4.78327 11.1887C4.93037 10.8334 5.17947 10.5298 5.49908 10.3161C5.81868 10.1025 6.19444 9.9885 6.57883 9.9885C7.09388 9.98945 7.58754 10.1946 7.95163 10.559C8.31571 10.9234 8.52051 11.4174 8.52114 11.9326H8.52233ZM15.4627 5.1554C15.4627 4.77088 15.5767 4.39493 15.7903 4.07521C16.0038 3.75549 16.3074 3.5063 16.6625 3.35915C17.0176 3.212 17.4084 3.17347 17.7854 3.24849C18.1624 3.3235 18.5087 3.50869 18.7805 3.78059C19.0523 4.05249 19.2374 4.39901 19.3124 4.77614C19.3874 5.15328 19.3489 5.54413 19.2018 5.89938C19.0547 6.25464 18.8056 6.55828 18.486 6.77191C18.1664 6.98555 17.7906 7.09955 17.4062 7.09955C16.8914 7.09829 16.398 6.89303 16.0342 6.52862C15.6704 6.16422 15.4658 5.67043 15.4651 5.1554H15.4627Z" fill="#707070" stroke="#707070" stroke-width="0.23"/>
</svg>
