<svg width="18" height="18" viewBox="0 0 18 18" fill="none" xmlns="http://www.w3.org/2000/svg">
<g clip-path="url(#clip0_832_4726)">
<path d="M8.99998 1.25C7.46718 1.25 5.9688 1.70451 4.69433 2.55609C3.41985 3.40767 2.42651 4.61814 1.83994 6.03427C1.25336 7.45039 1.09988 9.00864 1.39892 10.512C1.69795 12.0153 2.43607 13.3961 3.51992 14.48C4.60377 15.5639 5.98469 16.3021 7.48804 16.6011C8.99138 16.9001 10.5496 16.7466 11.9658 16.16C13.3819 15.5735 14.5923 14.5801 15.4439 13.3056C16.2954 12.0312 16.75 10.5328 16.75 8.99996C16.7476 6.94528 15.9303 4.97544 14.4774 3.52256C13.0245 2.06968 11.0547 1.25241 8.99998 1.25ZM8.99998 15.9132C7.63244 15.9132 6.29561 15.5077 5.15854 14.7479C4.02147 13.9882 3.13523 12.9084 2.61189 11.6449C2.08856 10.3815 1.95163 8.99123 2.21842 7.64996C2.48522 6.30869 3.14375 5.07667 4.11075 4.10967C5.07775 3.14267 6.30978 2.4841 7.65105 2.2173C8.99231 1.95051 10.3826 2.08736 11.646 2.6107C12.9095 3.13404 13.9893 4.02036 14.7491 5.15743C15.5089 6.2945 15.9144 7.63131 15.9144 8.99885C15.9126 10.8321 15.1835 12.5898 13.8872 13.8861C12.5909 15.1824 10.8332 15.9114 8.99998 15.9132Z" fill="#3682F9" stroke="#3682F9" stroke-width="0.5"/>
<path d="M6.43692 8.35822C6.57201 8.35822 6.70407 8.31821 6.81639 8.24316C6.92871 8.16811 7.01625 8.06142 7.06795 7.93661C7.11965 7.81181 7.13317 7.67446 7.10682 7.54197C7.08047 7.40947 7.01541 7.28786 6.91989 7.19234C6.82437 7.09682 6.70267 7.03166 6.57018 7.0053C6.43768 6.97895 6.30035 6.99251 6.17555 7.04421C6.05074 7.09591 5.94407 7.18341 5.86902 7.29573C5.79397 7.40805 5.75391 7.54014 5.75391 7.67523C5.75391 7.85638 5.82587 8.03016 5.95396 8.15826C6.08205 8.28635 6.25577 8.35822 6.43692 8.35822Z" fill="#3682F9" stroke="#3682F9" stroke-width="0.5"/>
<path d="M11.56 8.35822C11.6951 8.35822 11.8271 8.31821 11.9394 8.24316C12.0518 8.16811 12.1393 8.06142 12.191 7.93661C12.2427 7.81181 12.2562 7.67446 12.2299 7.54197C12.2035 7.40947 12.1385 7.28786 12.0429 7.19234C11.9474 7.09682 11.8257 7.03166 11.6932 7.0053C11.5607 6.97895 11.4234 6.99251 11.2986 7.04421C11.1738 7.09591 11.0671 7.18341 10.9921 7.29573C10.917 7.40805 10.877 7.54014 10.877 7.67523C10.877 7.85638 10.9489 8.03016 11.077 8.15826C11.2051 8.28635 11.3788 8.35822 11.56 8.35822Z" fill="#3682F9" stroke="#3682F9" stroke-width="0.5"/>
<path d="M5.90234 10.5117H11.9892C11.9892 11.1262 11.7451 11.7156 11.3107 12.1502C10.8763 12.5848 10.2871 12.8291 9.6726 12.8294H8.22005C7.60536 12.8294 7.01584 12.5852 6.58118 12.1506C6.14653 11.7159 5.90234 11.1264 5.90234 10.5117V10.5117Z" stroke="#3682F9" stroke-linecap="round" stroke-linejoin="round"/>
</g>
<defs>
<clipPath id="clip0_832_4726">
<rect width="16" height="16" fill="white" transform="translate(1 1)"/>
</clipPath>
</defs>
</svg>
