<svg width="15" height="20" viewBox="0 0 15 20" fill="none" xmlns="http://www.w3.org/2000/svg">
<path d="M6.66969 0H0V20H7.18693C11.6243 20 15 18.1351 15 14.1081C15 11.4054 13.3938 9.89189 11.216 9.37838V9.24324C12.931 8.67568 13.9655 6.7027 13.9655 4.91892C13.9655 1.16216 10.8076 0 6.66969 0ZM6.37024 8.13513H4.02904V3.05405H6.42468C8.84755 3.05405 10.0454 3.75676 10.0454 5.51351C10.0454 7.13514 8.98367 8.13513 6.37024 8.13513ZM6.83303 16.9189H4.02904V11.1081H6.83303C9.66425 11.1081 11.0799 11.9189 11.0799 13.8649C11.0799 15.9459 9.58258 16.9189 6.83303 16.9189Z" fill="#3682F9"/>
</svg>
