<svg width="20" height="20" viewBox="0 0 20 20" fill="none" xmlns="http://www.w3.org/2000/svg">
<path d="M17.5 0V10.8481C17.5 12.0064 17.2273 13.0552 16.6818 13.9945C16.1364 14.918 15.3 15.6538 14.1727 16.2017C13.0455 16.7339 11.6273 17 9.91818 17C7.48182 17 5.63636 16.4365 4.38182 15.3094C3.12727 14.1667 2.5 12.6639 2.5 10.8011V0H4.95455V10.8715C4.95455 12.2334 5.37273 13.2901 6.20909 14.0414C7.06364 14.7928 8.34545 15.1685 10.0545 15.1685C11.8182 15.1685 13.0909 14.7693 13.8727 13.971C14.6727 13.157 15.0727 12.116 15.0727 10.8481V0H17.5Z" fill="#3682F9"/>
<path d="M0 18H20V20H0V18Z" fill="#3682F9"/>
</svg>
