<svg width="323" height="186" viewBox="0 0 323 186" fill="none" xmlns="http://www.w3.org/2000/svg">
<g clip-path="url(#clip0_800_9130)">
<path d="M168.239 101.48H162.326C154.592 101.48 148.322 107.77 148.322 115.529V156.524C148.322 164.283 154.592 170.572 162.326 170.572H168.239C175.973 170.572 182.243 164.283 182.243 156.524V115.529C182.243 107.77 175.973 101.48 168.239 101.48Z" fill="#3682F9"/>
<path d="M162.326 101.48H168.239C171.332 101.476 174.338 102.503 176.786 104.4C178.304 105.574 179.566 107.049 180.494 108.733C181.422 110.416 181.996 112.273 182.18 114.188C182.184 114.227 182.188 114.267 182.191 114.306C182.211 114.537 182.225 114.769 182.234 115.002C182.241 115.178 182.244 115.354 182.244 115.53V156.524C182.244 160.211 180.8 163.75 178.223 166.378C175.645 169.007 172.141 170.513 168.466 170.572H168.24H162.326C159.54 170.573 156.818 169.741 154.507 168.181C152.195 166.622 150.4 164.406 149.351 161.818L149.317 161.735C148.777 160.378 148.452 158.945 148.354 157.488C148.354 157.447 148.349 157.406 148.346 157.365C148.343 157.323 148.34 157.256 148.337 157.202C148.331 157.049 148.326 156.899 148.322 156.751C148.322 156.675 148.322 156.599 148.322 156.523V115.529C148.322 111.803 149.798 108.23 152.424 105.595C155.05 102.961 158.612 101.48 162.326 101.48ZM168.239 168.565C171.423 168.565 174.476 167.297 176.727 165.039C178.978 162.78 180.242 159.717 180.242 156.524V115.529C180.242 112.336 178.978 109.273 176.727 107.014C174.476 104.756 171.423 103.487 168.239 103.487H162.326C159.142 103.487 156.089 104.756 153.838 107.014C151.587 109.273 150.323 112.336 150.323 115.529V156.524C150.323 159.717 151.587 162.78 153.838 165.039C156.089 167.297 159.142 168.565 162.326 168.565H168.239Z" fill="#F1F8FE"/>
<path d="M250.399 22.0767H80.0202C72.2862 22.0767 66.0166 28.3665 66.0166 36.1255V128.681C66.0166 136.44 72.2862 142.73 80.0202 142.73H250.399C258.133 142.73 264.403 136.44 264.403 128.681V36.1255C264.403 28.3665 258.133 22.0767 250.399 22.0767Z" fill="#3682F9"/>
<path d="M80.0202 24.0836C76.8368 24.0836 73.7838 25.3523 71.5327 27.6106C69.2817 29.8689 68.0171 32.9318 68.0171 36.1255V128.681C68.0171 131.875 69.2817 134.937 71.5327 137.196C73.7838 139.454 76.8368 140.723 80.0202 140.723H250.399C253.583 140.723 256.636 139.454 258.887 137.196C261.138 134.937 262.402 131.875 262.402 128.681V36.1255C262.402 32.9318 261.138 29.8689 258.887 27.6106C256.636 25.3523 253.583 24.0836 250.399 24.0836H80.0202ZM80.0202 22.0767H250.399C254.113 22.0767 257.675 23.5568 260.301 26.1915C262.927 28.8261 264.403 32.3995 264.403 36.1255V128.681C264.403 132.407 262.927 135.98 260.301 138.615C257.675 141.25 254.113 142.73 250.399 142.73H80.0202C76.3062 142.73 72.7443 141.25 70.1182 138.615C67.492 135.98 66.0166 132.407 66.0166 128.681V36.1255C66.0166 32.3995 67.492 28.8261 70.1182 26.1915C72.7443 23.5568 76.3062 22.0767 80.0202 22.0767V22.0767Z" fill="#F1F8FE"/>
<path d="M243.529 35.4822H86.8448C82.4254 35.4822 78.8428 39.0764 78.8428 43.5101V121.295C78.8428 125.729 82.4254 129.323 86.8448 129.323H243.529C247.949 129.323 251.531 125.729 251.531 121.295V43.5101C251.531 39.0764 247.949 35.4822 243.529 35.4822Z" fill="#F1F8FE"/>
<path d="M202.126 158.321H128.98C121.362 158.321 115.186 164.517 115.186 172.16C115.186 179.803 121.362 185.999 128.98 185.999H202.126C209.744 185.999 215.921 179.803 215.921 172.16C215.921 164.517 209.744 158.321 202.126 158.321Z" fill="#3682F9"/>
<path d="M128.98 158.321H202.126C205.784 158.321 209.293 159.779 211.88 162.374C214.467 164.969 215.921 168.49 215.921 172.16C215.921 172.216 215.921 172.272 215.921 172.327C215.877 175.94 214.427 179.392 211.881 181.946C209.335 184.5 205.894 185.954 202.293 185.998H182.579C182.314 185.998 182.059 185.892 181.872 185.704C181.684 185.516 181.579 185.261 181.579 184.994C181.579 184.728 181.684 184.473 181.872 184.285C182.059 184.097 182.314 183.991 182.579 183.991H202.126C204.458 183.991 206.738 183.296 208.677 181.996C210.616 180.696 212.128 178.849 213.02 176.687C213.913 174.525 214.146 172.147 213.692 169.852C213.237 167.557 212.114 165.449 210.465 163.794C209.373 162.692 208.073 161.818 206.642 161.223C205.21 160.628 203.675 160.324 202.126 160.328H128.98C126.647 160.328 124.367 161.022 122.428 162.322C120.488 163.622 118.976 165.47 118.084 167.632C117.191 169.794 116.958 172.173 117.413 174.469C117.868 176.764 118.991 178.872 120.641 180.527C121.734 181.629 123.033 182.503 124.465 183.098C125.897 183.693 127.432 183.997 128.981 183.993H171.576C171.841 183.993 172.096 184.099 172.283 184.287C172.471 184.475 172.576 184.73 172.576 184.996C172.576 185.263 172.471 185.518 172.283 185.706C172.096 185.894 171.841 186 171.576 186H128.98C125.35 186 121.866 184.565 119.284 182.006C116.702 179.446 115.229 175.969 115.186 172.327C115.186 172.272 115.186 172.216 115.186 172.16C115.186 168.49 116.639 164.969 119.226 162.374C121.813 159.779 125.322 158.321 128.98 158.321Z" fill="#F1F8FE"/>
<path d="M165.96 76.9302H149.927C146.95 76.9302 144.095 78.1165 141.99 80.2281C139.886 82.3397 138.703 85.2036 138.703 88.1899C138.703 91.1761 139.886 94.04 141.99 96.1516C144.095 98.2632 146.95 99.4495 149.927 99.4495H165.96C168.936 99.4495 171.791 98.2633 173.896 96.1518C176.001 94.0403 177.183 91.1765 177.184 88.1904V88.1813V88.0027V87.9094V87.809V87.7197V87.6194V87.519V87.4397V87.3324V87.2531V87.2441V87.1748V87.1487V87.1407V87.0805V87.0624V86.9932V86.9671V86.9591V86.9059V86.8979V86.8627V86.8547V86.8055L177.179 86.7624V86.7544V86.7293V86.7213L177.172 86.6691V86.661V86.653V86.645V86.637L177.165 86.5848V86.5768V86.5687V86.5607V86.5527V86.5446L177.157 86.4925V86.4844V86.4774V86.4694V86.4614L177.147 86.4001V86.3911V86.3821L177.133 86.2948L177.118 86.2085C176.758 84.1984 176.045 86.2998 176.045 86.2998L175.045 86.8015C175.045 86.8015 174.883 86.399 174.707 86.4614C174.568 86.5102 174.545 86.8015 174.545 86.8015L174.292 86.8547C174.292 86.8547 173.865 85.4236 174.095 86.991C174.324 88.5584 174.099 90.1589 173.446 91.6013C172.793 93.0436 171.739 94.2668 170.412 95.1247C169.084 95.9826 167.539 96.4389 165.96 96.439H149.927C148.847 96.439 147.778 96.2256 146.78 95.8111C145.782 95.3965 144.876 94.7889 144.112 94.0229C143.349 93.2569 142.743 92.3475 142.33 91.3467C141.917 90.3458 141.704 89.2731 141.704 88.1899C141.704 87.1066 141.917 86.0339 142.33 85.033C142.743 84.0322 143.349 83.1228 144.112 82.3568C144.876 81.5908 145.782 80.9832 146.78 80.5686C147.778 80.1541 148.847 79.9407 149.927 79.9407H165.96C166.358 79.9407 166.739 79.7821 167.021 79.4998C167.302 79.2175 167.46 78.8347 167.46 78.4355C167.46 78.0363 167.302 77.6534 167.021 77.3711C166.739 77.0888 166.358 76.9302 165.96 76.9302Z" fill="#3682F9"/>
<path d="M164.892 87.6534H180.925C183.902 87.6534 186.756 86.4672 188.861 84.3556C190.966 82.244 192.148 79.3801 192.148 76.3938C192.148 73.4076 190.966 70.5437 188.861 68.4321C186.756 66.3205 183.902 65.1342 180.925 65.1342H164.892C161.915 65.1342 159.061 66.3204 156.956 68.4319C154.851 70.5433 153.668 73.4071 153.668 76.3933V76.4024V76.581V76.6743V76.7746V76.864V76.9643V77.0647V77.1439V77.2513V77.3306V77.3396V77.4088V77.4349V77.443V77.5032V77.5212V77.5905V77.6166V77.6246V77.6778V77.6858V77.7209V77.729V77.7781L153.673 77.8213V77.8293V77.8544V77.8624L153.68 77.9146V77.9226V77.9307V77.9387V77.9467L153.687 77.9989V78.0069V78.015V78.023V78.031V78.039L153.695 78.0912V78.0992V78.1063V78.1143V78.1223L153.705 78.1835V78.1926V78.2016L153.719 78.2889L153.734 78.3752L154.176 79.3034C154.176 79.3034 154.812 79.8158 155.218 79.8532C155.624 79.8907 156.028 79.7647 156.342 79.5031C156.655 79.2415 156.89 78.4582 156.89 78.4582L156.825 78.0992C156.825 78.0992 156.868 77.8213 156.757 77.5926C156.527 76.0253 156.753 74.4248 157.406 72.9824C158.059 71.5401 159.112 70.3169 160.44 69.459C161.767 68.6011 163.313 68.1448 164.892 68.1447H180.925C182.005 68.1447 183.074 68.358 184.072 68.7726C185.069 69.1872 185.976 69.7948 186.739 70.5608C187.503 71.3268 188.108 72.2362 188.522 73.237C188.935 74.2378 189.148 75.3105 189.148 76.3938C189.148 77.4771 188.935 78.5498 188.522 79.5506C188.108 80.5515 187.503 81.4608 186.739 82.2269C185.976 82.9929 185.069 83.6005 184.072 84.015C183.074 84.4296 182.005 84.643 180.925 84.643H164.892C164.494 84.643 164.112 84.8016 163.831 85.0838C163.55 85.3661 163.391 85.749 163.391 86.1482C163.391 86.5474 163.55 86.9303 163.831 87.2126C164.112 87.4948 164.494 87.6534 164.892 87.6534Z" fill="#3682F9"/>
</g>
<g filter="url(#filter0_b_800_9130)">
<path d="M286.5 0H218.5C212.425 0 207.5 4.92487 207.5 11V49C207.5 55.0751 212.425 60 218.5 60H286.5C292.575 60 297.5 55.0751 297.5 49V11C297.5 4.92487 292.575 0 286.5 0Z" fill="white" fill-opacity="0.5"/>
</g>
<g filter="url(#filter1_b_800_9130)">
<path d="M84.5 60H35.5C29.4249 60 24.5 64.9249 24.5 71V99C24.5 105.075 29.4249 110 35.5 110H84.5C90.5751 110 95.5 105.075 95.5 99V71C95.5 64.9249 90.5751 60 84.5 60Z" fill="white" fill-opacity="0.5"/>
</g>
<g filter="url(#filter2_b_800_9130)">
<path d="M37.5 95.5H11.5C5.42487 95.5 0.5 100.425 0.5 106.5V113.5C0.5 119.575 5.42487 124.5 11.5 124.5H37.5C43.5751 124.5 48.5 119.575 48.5 113.5V106.5C48.5 100.425 43.5751 95.5 37.5 95.5Z" fill="white" fill-opacity="0.5"/>
</g>
<g filter="url(#filter3_b_800_9130)">
<path d="M265.5 45.5H239.5C233.425 45.5 228.5 50.4249 228.5 56.5V63.5C228.5 69.5751 233.425 74.5 239.5 74.5H265.5C271.575 74.5 276.5 69.5751 276.5 63.5V56.5C276.5 50.4249 271.575 45.5 265.5 45.5Z" fill="white" fill-opacity="0.5"/>
</g>
<g filter="url(#filter4_b_800_9130)">
<path d="M311.417 86.9268H254.584C248.509 86.9268 243.584 91.8516 243.584 97.9268V114.153C243.584 120.228 248.509 125.153 254.584 125.153H311.417C317.492 125.153 322.417 120.228 322.417 114.153V97.9268C322.417 91.8516 317.492 86.9268 311.417 86.9268Z" fill="white" fill-opacity="0.5"/>
</g>
<defs>
<filter id="filter0_b_800_9130" x="187.5" y="-20" width="130" height="100" filterUnits="userSpaceOnUse" color-interpolation-filters="sRGB">
<feFlood flood-opacity="0" result="BackgroundImageFix"/>
<feGaussianBlur in="BackgroundImageFix" stdDeviation="10"/>
<feComposite in2="SourceAlpha" operator="in" result="effect1_backgroundBlur_800_9130"/>
<feBlend mode="normal" in="SourceGraphic" in2="effect1_backgroundBlur_800_9130" result="shape"/>
</filter>
<filter id="filter1_b_800_9130" x="4.5" y="40" width="111" height="90" filterUnits="userSpaceOnUse" color-interpolation-filters="sRGB">
<feFlood flood-opacity="0" result="BackgroundImageFix"/>
<feGaussianBlur in="BackgroundImageFix" stdDeviation="10"/>
<feComposite in2="SourceAlpha" operator="in" result="effect1_backgroundBlur_800_9130"/>
<feBlend mode="normal" in="SourceGraphic" in2="effect1_backgroundBlur_800_9130" result="shape"/>
</filter>
<filter id="filter2_b_800_9130" x="-19.5" y="75.5" width="88" height="69" filterUnits="userSpaceOnUse" color-interpolation-filters="sRGB">
<feFlood flood-opacity="0" result="BackgroundImageFix"/>
<feGaussianBlur in="BackgroundImageFix" stdDeviation="10"/>
<feComposite in2="SourceAlpha" operator="in" result="effect1_backgroundBlur_800_9130"/>
<feBlend mode="normal" in="SourceGraphic" in2="effect1_backgroundBlur_800_9130" result="shape"/>
</filter>
<filter id="filter3_b_800_9130" x="208.5" y="25.5" width="88" height="69" filterUnits="userSpaceOnUse" color-interpolation-filters="sRGB">
<feFlood flood-opacity="0" result="BackgroundImageFix"/>
<feGaussianBlur in="BackgroundImageFix" stdDeviation="10"/>
<feComposite in2="SourceAlpha" operator="in" result="effect1_backgroundBlur_800_9130"/>
<feBlend mode="normal" in="SourceGraphic" in2="effect1_backgroundBlur_800_9130" result="shape"/>
</filter>
<filter id="filter4_b_800_9130" x="223.584" y="66.9268" width="118.833" height="78.226" filterUnits="userSpaceOnUse" color-interpolation-filters="sRGB">
<feFlood flood-opacity="0" result="BackgroundImageFix"/>
<feGaussianBlur in="BackgroundImageFix" stdDeviation="10"/>
<feComposite in2="SourceAlpha" operator="in" result="effect1_backgroundBlur_800_9130"/>
<feBlend mode="normal" in="SourceGraphic" in2="effect1_backgroundBlur_800_9130" result="shape"/>
</filter>
<clipPath id="clip0_800_9130">
<rect width="198.386" height="163.923" fill="white" transform="translate(66.0166 22.0767)"/>
</clipPath>
</defs>
</svg>
