<svg width="105" height="95" viewBox="0 0 105 95" fill="none" xmlns="http://www.w3.org/2000/svg">
<path d="M69.8557 81.0847L17.1397 61.9286C16.0245 61.5233 14.7806 62.1042 14.3754 63.2193L12.9018 67.2744C12.4966 68.3895 13.0774 69.6335 14.1926 70.0387L66.9086 89.1949C68.0238 89.6001 69.2677 89.0193 69.6729 87.9041L71.1465 83.8491C71.5517 82.7339 70.9709 81.49 69.8557 81.0847ZM92.7014 43.4811C89.3433 42.2608 85.6288 43.9952 84.4085 47.3533C84.0815 48.2531 83.9804 49.1631 84.0543 50.065L72.8812 52.2308C70.506 52.6875 68.2237 51.1122 67.8142 48.7255L64.053 26.9021C65.8141 26.2797 67.309 24.9293 67.9997 23.0285C69.22 19.6704 67.4856 15.9558 64.1275 14.7355C60.7693 13.5152 57.0548 15.2497 55.8345 18.6078C55.1438 20.5086 55.423 22.5037 56.3737 24.1116L39.4794 38.4291C37.6332 39.9961 34.8593 39.7341 33.3441 37.8637L26.1807 29.0347C26.7991 28.3987 27.3231 27.6279 27.65 26.7282C28.8703 23.3701 27.1359 19.6555 23.7777 18.4353C20.4196 17.215 16.6924 18.9448 15.4721 22.3029C14.2518 25.6611 15.9863 29.3756 19.3444 30.5959C19.6739 30.7156 20.0218 30.7847 20.357 30.8491L20.6408 58.6103L69.3017 76.2929L87.3418 55.1903C87.6402 55.3562 87.9513 55.5266 88.2808 55.6463C91.6389 56.8666 95.3534 55.1321 96.5737 51.774C97.794 48.4159 96.0595 44.7013 92.7014 43.4811Z" fill="#FFC700"/>
</svg>
