<svg width="442" height="49" viewBox="0 0 442 49" fill="none" xmlns="http://www.w3.org/2000/svg">
<path d="M146 8C146 3.58172 149.582 0 154 0H288C292.418 0 296 3.58172 296 8V49H146V8Z" fill="#3682F9"/>
<path d="M0 21C0 16.5817 3.58172 13 8 13H138C142.418 13 146 16.5817 146 21V49H0V21Z" fill="#70A7FF"/>
<path d="M223.825 30.16H219.481V14.392H216.025V10.6H223.825V30.16Z" fill="white"/>
<path d="M72.7701 21.06C73.9701 21.06 75.0034 21.28 75.8701 21.72C76.7501 22.16 77.4234 22.7667 77.8901 23.54C78.3567 24.3133 78.5901 25.1933 78.5901 26.18C78.5901 26.7667 78.4767 27.34 78.2501 27.9C78.0367 28.4467 77.6634 29.0733 77.1301 29.78C76.6101 30.4733 75.8701 31.3133 74.9101 32.3L72.5701 34.72H78.9101V37.8H67.2501V35.72L72.5901 30.22C73.5101 29.2733 74.1434 28.5 74.4901 27.9C74.8367 27.2867 75.0101 26.7267 75.0101 26.22C75.0101 25.5933 74.8234 25.1067 74.4501 24.76C74.0901 24.4 73.5301 24.22 72.7701 24.22C72.0634 24.22 71.5034 24.46 71.0901 24.94C70.6901 25.42 70.4901 25.9933 70.4901 26.66H66.9101C66.9101 25.6067 67.1567 24.6533 67.6501 23.8C68.1567 22.9467 68.8501 22.28 69.7301 21.8C70.6234 21.3067 71.6367 21.06 72.7701 21.06Z" fill="white"/>
<path d="M296 29C296 24.5817 299.582 21 304 21H434C438.418 21 442 24.5817 442 29V49H296V29Z" fill="#70A7FF"/>
<path d="M369.312 26.554C370.32 26.554 371.214 26.74 371.994 27.112C372.774 27.484 373.38 28.006 373.812 28.678C374.244 29.338 374.46 30.1 374.46 30.964C374.46 31.504 374.34 32.002 374.1 32.458C373.872 32.914 373.566 33.286 373.182 33.574C372.81 33.862 372.414 34.042 371.994 34.114C372.462 34.186 372.912 34.366 373.344 34.654C373.788 34.942 374.148 35.32 374.424 35.788C374.712 36.256 374.856 36.79 374.856 37.39C374.856 38.314 374.616 39.124 374.136 39.82C373.656 40.504 373.002 41.032 372.174 41.404C371.358 41.788 370.44 41.98 369.42 41.98C367.824 41.98 366.546 41.566 365.586 40.738C364.626 39.91 364.086 38.782 363.966 37.354H367.188C367.248 37.954 367.464 38.416 367.836 38.74C368.22 39.064 368.748 39.226 369.42 39.226C370.092 39.226 370.632 39.058 371.04 38.722C371.46 38.386 371.67 37.948 371.67 37.408C371.67 36.808 371.436 36.346 370.968 36.022C370.512 35.698 369.894 35.536 369.114 35.536H367.656V32.872H369.114C369.774 32.872 370.29 32.71 370.662 32.386C371.046 32.05 371.238 31.6 371.238 31.036C371.238 30.496 371.064 30.07 370.716 29.758C370.38 29.446 369.906 29.29 369.294 29.29C368.694 29.29 368.232 29.494 367.908 29.902C367.584 30.31 367.422 30.796 367.422 31.36H364.2C364.2 30.436 364.416 29.614 364.848 28.894C365.28 28.162 365.886 27.592 366.666 27.184C367.446 26.764 368.328 26.554 369.312 26.554Z" fill="white"/>
</svg>
