<svg width="39" height="39" viewBox="0 0 39 39" fill="none" xmlns="http://www.w3.org/2000/svg">
<path d="M19.5 39C30.2696 39 39 30.2696 39 19.5C39 8.73045 30.2696 0 19.5 0C8.73045 0 0 8.73045 0 19.5C0 30.2696 8.73045 39 19.5 39Z" fill="#FCCD1D"/>
<path d="M19.5 34C27.5081 34 34 27.5081 34 19.5C34 11.4919 27.5081 5 19.5 5C11.4919 5 5 11.4919 5 19.5C5 27.5081 11.4919 34 19.5 34Z" fill="#F9A215"/>
<path d="M21.38 11.5701C20.3836 11.298 19.3366 11.2676 18.3261 11.4815C17.3156 11.6955 16.3707 12.1475 15.57 12.8001C14.8702 13.4071 14.3102 14.1585 13.9287 15.0027C13.5472 15.8469 13.3532 16.7637 13.36 17.6901H17.5C17.5 15.4501 20.87 15.3101 21.5 16.6901C22.5 18.7901 13.5 23.6901 13.5 23.6901V27.6901H25.5V23.6901H21.5C22.8973 23.0408 24.0442 21.9529 24.7662 20.5918C25.4883 19.2307 25.746 17.6711 25.5 16.1501C25.2757 15.0922 24.7769 14.112 24.0537 13.3081C23.3305 12.5041 22.4084 11.9047 21.38 11.5701V11.5701Z" fill="#FCCD1D"/>
</svg>
