<svg width="39" height="39" viewBox="0 0 39 39" fill="none" xmlns="http://www.w3.org/2000/svg">
<path d="M19.5 39C30.2696 39 39 30.2696 39 19.5C39 8.73045 30.2696 0 19.5 0C8.73045 0 0 8.73045 0 19.5C0 30.2696 8.73045 39 19.5 39Z" fill="#FCCD1D"/>
<path d="M19.5 34C27.5081 34 34 27.5081 34 19.5C34 11.4919 27.5081 5 19.5 5C11.4919 5 5 11.4919 5 19.5C5 27.5081 11.4919 34 19.5 34Z" fill="#F9A215"/>
<path d="M24.0399 19.5C24.5918 19.0942 25.0442 18.5682 25.3629 17.9619C25.6817 17.3555 25.8585 16.6847 25.8799 16C25.8799 13.24 23.0199 11 19.4999 11C15.9799 11 13.1299 13.24 13.1299 16H17.0499C17.1125 15.5468 17.3287 15.1289 17.6622 14.8158C17.9957 14.5027 18.4265 14.3134 18.8827 14.2794C19.3389 14.2455 19.793 14.369 20.1692 14.6293C20.5453 14.8897 20.8209 15.2711 20.9499 15.71C21.1199 16.94 20.1799 18.44 18.9499 18.44V20.56C21.1699 20.56 21.7899 24.06 19.6699 24.88C19.3714 24.9774 19.0541 25.0031 18.7438 24.955C18.4335 24.907 18.1389 24.7866 17.8838 24.6035C17.6287 24.4205 17.4202 24.1799 17.2754 23.9013C17.1305 23.6227 17.0532 23.314 17.0499 23H13.1299C13.1299 25.76 15.9799 28 19.4999 28C23.0199 28 25.8799 25.76 25.8799 23C25.8585 22.3153 25.6817 21.6445 25.3629 21.0381C25.0442 20.4318 24.5918 19.9058 24.0399 19.5V19.5Z" fill="#FCCD1D"/>
</svg>
