<svg width="24" height="24" viewBox="0 0 24 24" fill="none" xmlns="http://www.w3.org/2000/svg">
<path d="M12.159 10.9407C13.0034 11.4282 14.0832 11.1389 14.5707 10.2945C15.0582 9.45006 14.7689 8.37029 13.9245 7.88275C13.0801 7.39522 12.0003 7.68455 11.5128 8.52898C11.0252 9.37341 11.3145 10.4532 12.159 10.9407Z" stroke="#3682F9" stroke-width="1.3"/>
<path d="M7.55159 6.05582C5.23484 9.7687 7.88858 12.9968 7.51046 13.6027C6.83374 14.6871 6.26101 15.4919 4.82987 17.7851C4.20651 18.784 4.47701 20.276 5.66381 21.0161C6.55737 21.5734 8.01312 21.5496 9.01824 19.939L11.4415 16.0559C11.8357 15.4241 15.7635 16.7674 18.2727 12.7464C20.5897 9.03359 19.2165 5.26626 16.5362 3.59378C13.8558 1.9213 9.86835 2.34295 7.55159 6.05582Z" stroke="#3682F9" stroke-width="1.3"/>
</svg>
