<svg width="24" height="24" viewBox="0 0 24 24" fill="none" xmlns="http://www.w3.org/2000/svg">
<g clip-path="url(#clip0_5331_116213)">
<path d="M3.97253 17.6871C3.81361 18.2828 3.67956 19.2632 3.94226 19.4837C4.43306 19.8999 6.5887 18.8351 7.17139 19.1432C8.65739 19.9363 10.3172 20.3474 12.0016 20.3399C17.1669 20.3399 21.3528 16.6092 21.3528 12.0049C21.3528 7.40069 17.1658 3.66998 12.0016 3.66998C6.83735 3.66998 2.65039 7.40069 2.65039 12.0049C2.65035 13.0993 2.88866 14.1805 3.34875 15.1734" stroke="#707070" stroke-width="1.3" stroke-miterlimit="10" stroke-linecap="round"/>
<path d="M8.28501 13.2724C8.79191 13.2724 9.20283 12.8614 9.20283 12.3545C9.20283 11.8476 8.79191 11.4367 8.28501 11.4367C7.77811 11.4367 7.36719 11.8476 7.36719 12.3545C7.36719 12.8614 7.77811 13.2724 8.28501 13.2724Z" fill="#707070"/>
<path d="M12.0008 13.2724C12.5077 13.2724 12.9187 12.8614 12.9187 12.3545C12.9187 11.8476 12.5077 11.4367 12.0008 11.4367C11.4939 11.4367 11.083 11.8476 11.083 12.3545C11.083 12.8614 11.4939 13.2724 12.0008 13.2724Z" fill="#707070"/>
<path d="M15.7157 13.2724C16.2226 13.2724 16.6335 12.8614 16.6335 12.3545C16.6335 11.8476 16.2226 11.4367 15.7157 11.4367C15.2088 11.4367 14.7979 11.8476 14.7979 12.3545C14.7979 12.8614 15.2088 13.2724 15.7157 13.2724Z" fill="#707070"/>
</g>
<defs>
<clipPath id="clip0_5331_116213">
<rect width="20" height="20" fill="white" transform="translate(2 2)"/>
</clipPath>
</defs>
</svg>
