<svg width="24" height="24" viewBox="0 0 24 24" fill="none" xmlns="http://www.w3.org/2000/svg">
<path d="M18.429 22C18.1774 21.9996 17.9341 21.9081 17.742 21.7415L12 16.4843L6.25651 21.7415C6.0648 21.9077 5.82205 21.9993 5.57102 22C5.41531 21.9998 5.2616 21.964 5.12102 21.8954C4.9354 21.805 4.77856 21.6625 4.66865 21.4844C4.55874 21.3063 4.50028 21.1 4.50002 20.8892V4.22154C4.49762 3.63586 4.72176 3.0731 5.1233 2.65666C5.52483 2.24021 6.07098 2.00407 6.64201 2L17.3565 2C17.9278 2.00366 18.4743 2.23963 18.8762 2.65612C19.278 3.0726 19.5024 3.63559 19.5 4.22154V20.8892C19.5 21.0994 19.4421 21.3054 19.333 21.4834C19.224 21.6614 19.0681 21.8042 18.8835 21.8954C18.7415 21.9647 18.5862 22.0005 18.429 22ZM18.2031 3.30469H5.80078V20.3984L11.3138 15.3439C11.5055 15.1773 11.7487 15.0859 12 15.0859C12.2513 15.0859 12.4945 15.1773 12.6862 15.3439L18.2031 20.3906V3.30469Z" fill="#707070"/>
</svg>
