<svg width="24" height="24" viewBox="0 0 24 24" fill="none" xmlns="http://www.w3.org/2000/svg">
<g clip-path="url(#clip0_5331_124516)">
<rect x="2.65" y="2.65" width="7.7" height="7.7" rx="1.85" stroke="#3682F9" stroke-width="1.3"/>
<rect x="2.65" y="13.65" width="7.7" height="7.7" rx="1.85" stroke="#3682F9" stroke-width="1.3"/>
<rect x="13.65" y="13.65" width="7.7" height="7.7" rx="1.85" stroke="#3682F9" stroke-width="1.3"/>
<path d="M22.0004 7.35546C22.0004 6.99647 21.7094 6.70546 21.3504 6.70546C20.9914 6.70546 20.7004 6.99647 20.7004 7.35546H22.0004ZM20.7004 4.25C20.7004 4.60899 20.9914 4.9 21.3504 4.9C21.7094 4.9 22.0004 4.60899 22.0004 4.25H20.7004ZM15.4504 3.2999H19.7503V1.9999H15.4504V3.2999ZM19.5504 9.6999H15.4504V10.9999H19.5504V9.6999ZM14.3004 8.5499V4.4499H13.0004V8.5499H14.3004ZM20.7004 7.35546V8.5499H22.0004V7.35546H20.7004ZM15.4504 9.6999C14.8153 9.6999 14.3004 9.18503 14.3004 8.5499H13.0004C13.0004 9.903 14.0973 10.9999 15.4504 10.9999V9.6999ZM19.5504 10.9999C20.9035 10.9999 22.0004 9.903 22.0004 8.5499H20.7004C20.7004 9.18503 20.1855 9.6999 19.5504 9.6999V10.9999ZM19.7503 3.2999C20.275 3.2999 20.7004 3.72528 20.7004 4.25H22.0004C22.0004 3.00731 20.993 1.9999 19.7503 1.9999V3.2999ZM15.4504 1.9999C14.0973 1.9999 13.0004 3.09681 13.0004 4.4499H14.3004C14.3004 3.81478 14.8153 3.2999 15.4504 3.2999V1.9999Z" fill="#3682F9"/>
</g>
<defs>
<clipPath id="clip0_5331_124516">
<rect width="20" height="20" fill="white" transform="translate(2 2)"/>
</clipPath>
</defs>
</svg>
