<svg width="24" height="24" viewBox="0 0 24 24" fill="none" xmlns="http://www.w3.org/2000/svg">
<path fill-rule="evenodd" clip-rule="evenodd" d="M11.9967 3.3C9.54031 3.3 7.54902 5.29129 7.54902 7.74767C7.54902 10.2041 9.54031 12.1953 11.9967 12.1953C14.4531 12.1953 16.4444 10.2041 16.4444 7.74767C16.4444 5.29129 14.4531 3.3 11.9967 3.3ZM6.24902 7.74767C6.24902 4.57332 8.82234 2 11.9967 2C15.171 2 17.7444 4.57332 17.7444 7.74767C17.7444 10.922 15.171 13.4953 11.9967 13.4953C8.82234 13.4953 6.24902 10.922 6.24902 7.74767Z" fill="#707070"/>
<path fill-rule="evenodd" clip-rule="evenodd" d="M5.23886 17.5858C5.07318 17.8195 5.0002 18.0757 5.0002 18.3673C5.0002 18.762 5.13254 19.1179 5.51318 19.4455C5.92107 19.7967 6.6446 20.1391 7.87043 20.3752C8.22294 20.4431 8.45366 20.7839 8.38577 21.1364C8.31788 21.4889 7.97708 21.7197 7.62457 21.6518C6.29114 21.395 5.31601 20.9911 4.66506 20.4308C3.98687 19.847 3.7002 19.1262 3.7002 18.3673C3.7002 17.8379 3.83954 17.3118 4.17834 16.8339C4.51272 16.3623 5.01283 15.9775 5.67151 15.6741C6.97042 15.0759 8.99777 14.7433 12.0002 14.7433C15.0026 14.7433 17.0299 15.0759 18.3289 15.6741C18.9875 15.9775 19.4877 16.3623 19.822 16.8339C20.1608 17.3118 20.3002 17.8379 20.3002 18.3673C20.3002 18.8968 20.1607 19.4229 19.8218 19.9007C19.4873 20.3722 18.9871 20.7568 18.3284 21.0601C17.0294 21.658 15.0021 21.9903 12.0002 21.9903C11.7026 21.9903 11.4149 21.9874 11.1371 21.9815C10.7782 21.9739 10.4934 21.6767 10.501 21.3178C10.5086 20.9589 10.8057 20.6742 11.1647 20.6818C11.4327 20.6875 11.7112 20.6903 12.0002 20.6903C14.9487 20.6903 16.7464 20.3572 17.7848 19.8792C18.2948 19.6444 18.5914 19.3884 18.7615 19.1485C18.9272 18.9149 19.0002 18.6589 19.0002 18.3673C19.0002 18.0757 18.9272 17.8195 18.7615 17.5858C18.5914 17.3459 18.2949 17.0898 17.785 16.8549C16.7468 16.3767 14.9491 16.0433 12.0002 16.0433C9.05123 16.0433 7.25359 16.3767 6.21535 16.8549C5.70545 17.0898 5.40895 17.3459 5.23886 17.5858Z" fill="#707070"/>
</svg>
