<svg width="24" height="24" viewBox="0 0 24 24" fill="none" xmlns="http://www.w3.org/2000/svg">
<path d="M22 2H2V22H22V2Z" fill="#707070"/>
<path d="M9.80518 12.2508H10.4164L10.1163 11.5776L9.80518 12.2508Z" fill="white"/>
<path d="M18.6288 10.7398H17.8509C17.2508 7.55707 14.428 5.1499 11.0311 5.1499C7.20075 5.1499 4.09277 8.21922 4.09277 12.0019C4.09277 15.7846 7.19705 18.8539 11.0311 18.8539C14.428 18.8539 17.2508 16.4468 17.8509 13.264H18.6288C19.3326 13.264 19.9068 12.7007 19.9068 12.0019C19.9068 11.3032 19.3363 10.7398 18.6288 10.7398ZM8.29355 13.0994C8.05276 13.2677 7.78234 13.3518 7.47488 13.3518C7.10444 13.3518 6.77846 13.2201 6.50063 12.9567C6.2228 12.6933 6.08203 12.3787 6.08203 12.0056C6.08203 11.6324 6.2228 11.3178 6.50063 11.0544C6.77846 10.791 7.10444 10.6593 7.47488 10.6593C7.78234 10.6593 8.05647 10.7435 8.29355 10.9117C8.53434 11.08 8.69363 11.3032 8.77883 11.5812H8.06388C8.01943 11.4751 7.81568 11.2446 7.47488 11.2446C7.04517 11.2446 6.80068 11.6727 6.80068 12.0056C6.80068 12.4043 7.09333 12.8031 7.48599 12.8031C7.85643 12.8031 8.0009 12.5507 8.06017 12.4373H8.77512C8.69363 12.708 8.53434 12.9311 8.29355 13.0994ZM10.8014 13.3518L10.6458 12.9567H9.57897L9.42339 13.3518H8.77512L9.94571 10.7691H10.2754L11.446 13.3518H10.8014ZM13.5649 11.1605H12.2572V11.7714H13.3463V12.2214H12.2572V13.3482H11.609V10.6447H13.5649V11.1605ZM15.895 13.3518H13.9094V10.7691H15.8653V11.2227H14.4947V11.8336H15.6468V12.2873H14.4947V12.9019H15.8987V13.3518H15.895Z" fill="white"/>
</svg>
