<svg width="24" height="24" viewBox="0 0 24 24" fill="none" xmlns="http://www.w3.org/2000/svg">
<g clip-path="url(#clip0_969_42005)">
<path d="M5.65188 2C3.6289 2 2 3.6289 2 5.65188V18.3481C2 20.3711 3.6289 22 5.65188 22H12.5331V14.1813H10.4656V11.3663H12.5331V8.96126C12.5331 7.07176 13.7547 5.33688 16.5688 5.33688C17.7081 5.33688 18.5506 5.44626 18.5506 5.44626L18.4844 8.07502C18.4844 8.07502 17.6251 8.0669 16.6875 8.0669C15.6727 8.0669 15.51 8.53446 15.51 9.31066V11.3663H18.565L18.4319 14.1813H15.51V22H18.3481C20.3711 22 22 20.3711 22 18.3482V5.6519C22 3.62892 20.3711 2.00002 18.3481 2.00002H5.65186L5.65188 2Z" fill="#707070"/>
</g>
<defs>
<clipPath id="clip0_969_42005">
<rect width="20" height="20" fill="white" transform="translate(2 2)"/>
</clipPath>
</defs>
</svg>
