<svg width="24" height="24" viewBox="0 0 24 24" fill="none" xmlns="http://www.w3.org/2000/svg">
<path d="M22 2H2V22H22V2Z" fill="#707070"/>
<path d="M12.0018 4.83887C7.68619 4.83887 4.18555 7.58991 4.18555 10.9848C4.18555 13.1432 5.60062 15.0419 7.73805 16.1357L7.14906 19.1575L10.5275 17.021C11.0053 17.0942 11.4943 17.1308 11.9981 17.1308C16.3137 17.1308 19.8144 14.3797 19.8144 10.9848C19.8181 7.59357 16.3174 4.83887 12.0018 4.83887Z" fill="white"/>
<path d="M6.5045 9.52148C6.41559 9.52148 6.33409 9.55442 6.27112 9.60929C6.24148 9.6349 6.21555 9.66782 6.20073 9.7044C6.18591 9.74098 6.1748 9.78123 6.1748 9.82147C6.1748 9.86171 6.18591 9.90195 6.20073 9.93488C6.22666 9.98975 6.26741 10.0337 6.31928 10.0666C6.37484 10.0995 6.43782 10.1178 6.5045 10.1178H7.30835V12.8067C7.30835 12.8908 7.34168 12.9749 7.40466 13.0371C7.46763 13.0993 7.55284 13.1322 7.63804 13.1322H7.71212C7.79732 13.1322 7.88253 13.0993 7.9455 13.0371C8.00848 12.9749 8.04181 12.8945 8.04181 12.8067V10.1178H8.83455C8.92346 10.1178 9.00496 10.0849 9.06793 10.03C9.09757 10.0044 9.11979 9.97146 9.13832 9.93488C9.15313 9.89829 9.16424 9.85805 9.16424 9.82147C9.16424 9.78123 9.15684 9.74098 9.13832 9.7044C9.11239 9.64953 9.07163 9.60563 9.01977 9.57271C8.96421 9.53978 8.90123 9.52148 8.83455 9.52148H6.5045Z" fill="#707070"/>
<path d="M9.50131 12.3783H11.0201L11.2905 12.9637C11.3165 13.0222 11.3609 13.0698 11.4128 13.1027C11.5054 13.1612 11.6276 13.1685 11.7239 13.1246L11.7906 13.0954C11.8499 13.0698 11.898 13.0259 11.9314 12.9747L12.0277 12.8247L10.6274 9.78095C10.62 9.74437 10.6052 9.70779 10.583 9.67852C10.5719 9.66023 10.5571 9.64193 10.5385 9.62364C10.5089 9.59071 10.483 9.56877 10.457 9.55048C10.4089 9.52121 10.3533 9.50291 10.294 9.49926C10.2644 9.4956 10.2533 9.49561 10.2385 9.49561C10.1755 9.49561 10.1162 9.51389 10.0607 9.54682C10.0199 9.57242 9.98659 9.60535 9.96066 9.64559C9.94584 9.66388 9.94213 9.6712 9.93472 9.68217C9.9162 9.71144 9.90138 9.7407 9.89397 9.77363L9.88286 9.79924L8.5604 12.66C8.54188 12.7003 8.53076 12.7478 8.53076 12.7954C8.53076 12.8576 8.54928 12.9161 8.58262 12.971C8.61596 13.0259 8.66412 13.0661 8.72339 13.0917L8.79007 13.121C8.88638 13.1649 9.00863 13.1576 9.10124 13.099C9.1568 13.0661 9.19755 13.0186 9.22348 12.96L9.50131 12.3783ZM16.1544 11.6028L17.1879 12.9966C17.2176 13.0368 17.262 13.0734 17.3065 13.0954C17.4139 13.1466 17.5509 13.1356 17.6473 13.0661L17.7065 13.0222C17.751 12.9929 17.7843 12.9527 17.8066 12.9051C17.8288 12.8612 17.8399 12.81 17.8399 12.7588C17.8399 12.6893 17.8177 12.6235 17.7769 12.5686L16.6656 11.0723L17.5917 10.1175C17.651 10.0553 17.6843 9.9785 17.6843 9.89436C17.6843 9.85046 17.6769 9.80656 17.6584 9.76632C17.6399 9.72608 17.6139 9.68949 17.5843 9.65656L17.5287 9.60535C17.4361 9.51755 17.2916 9.49195 17.1731 9.5395C17.1324 9.55779 17.0953 9.5834 17.062 9.61266L15.7173 10.9992V9.83948C15.7173 9.75534 15.6839 9.6712 15.621 9.60901C15.558 9.54682 15.4765 9.51389 15.3876 9.51389H15.3135C15.2283 9.51389 15.1431 9.54682 15.0801 9.60901C15.0171 9.6712 14.9838 9.75168 14.9838 9.83948V12.8832L15.0246 12.9564C15.0394 12.982 15.0579 13.0076 15.0801 13.0295C15.1431 13.0917 15.2246 13.1246 15.3135 13.1246H15.3876C15.4728 13.1246 15.558 13.0917 15.621 13.0295C15.6839 12.9673 15.7173 12.8869 15.7173 12.7991V12.0454L16.1544 11.6028ZM12.1944 12.9125L12.2277 12.9673C12.2537 13.0149 12.2907 13.0515 12.3389 13.0807C12.3833 13.1064 12.4352 13.1246 12.487 13.1283C12.4982 13.1283 12.5093 13.1283 12.5204 13.1283H14.4393C14.5282 13.1283 14.6097 13.0954 14.6726 13.0405C14.6986 13.0186 14.7171 12.993 14.7356 12.96L14.8282 12.7917L14.6986 12.6454C14.6763 12.6235 14.6541 12.6052 14.6282 12.5869C14.5726 12.5539 14.5096 12.5357 14.443 12.5357H12.9279V9.83948C12.9279 9.75534 12.8945 9.6712 12.8316 9.60901C12.7686 9.54682 12.6871 9.51389 12.5982 9.51389H12.5241C12.4352 9.51389 12.3537 9.54682 12.2907 9.60901C12.2277 9.6712 12.1944 9.75168 12.1944 9.83948V12.9125V12.9125ZM10.7497 11.793H9.77173L10.2607 10.7358L10.7497 11.793Z" fill="#707070"/>
</svg>
