<svg width="24" height="24" viewBox="0 0 24 24" fill="none" xmlns="http://www.w3.org/2000/svg">
<g clip-path="url(#clip0_969_34993)">
<path d="M22 18.0004C22 18.5257 21.8964 19.0459 21.6953 19.5312C21.4943 20.0165 21.1995 20.4575 20.828 20.8289C20.4565 21.2003 20.0154 21.4948 19.5301 21.6958C19.0447 21.8967 18.5245 22.0001 17.9991 22H5.99937C4.93865 21.9998 3.92142 21.5784 3.17141 20.8284C2.4214 20.0783 2.00004 19.0611 2 18.0004V6.00026C2 4.93946 2.42131 3.92208 3.1713 3.17184C3.92128 2.42159 4.93853 1.99991 5.99937 1.99951H17.9991C19.0602 1.99951 20.0779 2.42102 20.8282 3.1713C21.5785 3.92159 22 4.9392 22 6.00026V18.0004Z" fill="#707070"/>
<path d="M20.563 12.6832C20.5643 13.4019 20.28 14.0915 19.7727 14.6006C19.2654 15.1096 18.5767 15.3963 17.8581 15.3976H6.14215C5.78632 15.397 5.4341 15.3263 5.1056 15.1895C4.77709 15.0528 4.47874 14.8527 4.22759 14.6006C3.97643 14.3485 3.77739 14.0495 3.64182 13.7205C3.50626 13.3915 3.43683 13.039 3.4375 12.6832V6.24367C3.43683 5.88784 3.50626 5.53537 3.64182 5.20638C3.77738 4.87738 3.97642 4.57831 4.22758 4.32624C4.47873 4.07417 4.77708 3.87405 5.10558 3.73728C5.43409 3.60052 5.78632 3.52981 6.14215 3.52917H17.859C18.5777 3.53049 19.2664 3.81721 19.7736 4.32627C20.2809 4.83533 20.5652 5.52503 20.5639 6.24367L20.563 12.6832Z" fill="white"/>
<path d="M14.1075 14.9337L12.367 14.8248V14.7797L12.0021 14.8024L11.6333 14.7794V14.8256L9.89258 14.9345L11.555 17.6407C11.5684 17.663 11.5835 17.6843 11.6002 17.7043C11.6404 17.7746 11.6984 17.833 11.7684 17.8738C11.8384 17.9145 11.9179 17.9361 11.9989 17.9364C12.0798 17.9367 12.1595 17.9157 12.2298 17.8755C12.3 17.8353 12.3585 17.7773 12.3993 17.7073C12.4175 17.6871 12.433 17.6646 12.4455 17.6404L14.1075 14.9337Z" fill="white"/>
<path d="M7.24008 8.24796C6.90268 8.27273 6.58584 8.41949 6.34876 8.66082V6.9978H5.2998V11.3661H6.35929V11.024C6.45467 11.1687 6.58588 11.2864 6.74016 11.3654C6.89445 11.4445 7.06656 11.4823 7.23978 11.4752C7.23978 11.4752 8.7174 11.4209 8.7174 9.84526C8.71785 9.84526 8.66355 8.24796 7.24008 8.24796ZM7.0092 10.5535C6.87593 10.5536 6.74562 10.5141 6.63477 10.4401C6.52393 10.3661 6.43751 10.2609 6.38646 10.1378C6.33541 10.0147 6.32202 9.87921 6.34797 9.74848C6.37392 9.61776 6.43806 9.49767 6.53227 9.4034C6.62648 9.30913 6.74653 9.24492 6.87724 9.21888C7.00795 9.19283 7.14344 9.20614 7.26659 9.25711C7.38974 9.30807 7.49501 9.39441 7.56908 9.50521C7.64315 9.616 7.6827 9.74628 7.68273 9.87955C7.68257 10.0581 7.61159 10.2293 7.48535 10.3556C7.35911 10.4819 7.18792 10.553 7.00935 10.5532L7.0092 10.5535Z" fill="#707070"/>
<path d="M9.05469 6.90018V7.91089C9.05469 7.91089 9.53329 7.88909 9.53329 8.78038V11.3661H10.5439V8.54124C10.5439 8.54124 10.5872 6.90018 9.05469 6.90018Z" fill="#707070"/>
<path d="M13.0147 8.26132C13.0147 8.26132 11.2824 8.26132 11.2824 9.87922C11.2824 9.87922 11.2265 11.4752 13.0147 11.4752C13.0147 11.4752 14.7871 11.4726 14.7871 9.87922C14.7871 9.87922 14.8449 8.26132 13.0147 8.26132ZM13.0147 10.5532C12.8814 10.5532 12.7511 10.5137 12.6403 10.4396C12.5295 10.3656 12.4432 10.2604 12.3922 10.1373C12.3411 10.0141 12.3278 9.87868 12.3538 9.74797C12.3798 9.61727 12.4439 9.49721 12.5382 9.40297C12.6324 9.30873 12.7524 9.24454 12.8831 9.21853C13.0138 9.19251 13.1493 9.20583 13.2724 9.25681C13.3956 9.30778 13.5008 9.39413 13.5749 9.50491C13.6489 9.6157 13.6885 9.74596 13.6885 9.87922C13.6885 10.0577 13.6176 10.229 13.4915 10.3553C13.3654 10.4817 13.1943 10.5528 13.0157 10.5532H13.0147Z" fill="#707070"/>
<path d="M17.6796 8.3672V8.6605C17.5709 8.5339 17.4358 8.43259 17.2838 8.36364C17.1318 8.29469 16.9666 8.25977 16.7997 8.26132C16.7997 8.26132 15.3164 8.19875 15.3164 9.86809C15.3164 9.86809 15.3 11.4234 16.759 11.4234C16.759 11.4234 17.354 11.4476 17.6796 11.0239V11.2687C17.6796 11.2687 17.7533 12.0347 17.0115 12.0347H16.759V12.9636H17.1666C17.1666 12.9636 18.6987 12.98 18.6987 11.3257V8.3672H17.6796ZM17.053 10.5532C16.9198 10.5532 16.7895 10.5138 16.6786 10.4398C16.5678 10.3658 16.4813 10.2606 16.4303 10.1375C16.3792 10.0144 16.3658 9.87888 16.3918 9.74816C16.4178 9.61743 16.4819 9.49734 16.5761 9.40307C16.6703 9.3088 16.7904 9.24459 16.9211 9.21855C17.0518 9.19251 17.1873 9.20581 17.3104 9.25678C17.4336 9.30775 17.5388 9.39409 17.6129 9.50488C17.687 9.61568 17.7265 9.74595 17.7266 9.87922C17.7266 10.0579 17.6556 10.2292 17.5293 10.3556C17.403 10.482 17.2317 10.5531 17.053 10.5532Z" fill="#707070"/>
</g>
<defs>
<clipPath id="clip0_969_34993">
<rect width="20" height="20" fill="white" transform="translate(2 2)"/>
</clipPath>
</defs>
</svg>
