<svg width="24" height="24" viewBox="0 0 24 24" fill="none" xmlns="http://www.w3.org/2000/svg">
<path fill-rule="evenodd" clip-rule="evenodd" d="M2 2H22V22H2V2ZM5.98936 13.8168C5.98936 16.7828 8.39345 19.1869 11.3595 19.1869C13.6755 19.1869 15.6489 17.7214 16.4021 15.6672H17.2093C18.5842 15.6672 19.699 14.5525 19.699 13.1775C19.699 11.8026 18.5842 10.6878 17.2093 10.6878H16.7296H5.98936V13.8168ZM16.6814 14.5375H17.2101C17.9616 14.5375 18.5709 13.9282 18.5709 13.1767C18.5709 12.4252 17.9616 11.8159 17.2101 11.8159H16.7305V13.8168C16.7296 14.0612 16.713 14.3014 16.6814 14.5375ZM8.23218 9.0244H11.8125H12.2731C14.2499 9.0244 15.8534 7.42167 15.8534 5.44403H12.2731H11.8117C9.83491 5.44403 8.23218 7.04676 8.23218 9.0244Z" fill="#717070"/>
</svg>
