<svg width="24" height="24" viewBox="0 0 24 24" fill="none" xmlns="http://www.w3.org/2000/svg">
<g clip-path="url(#clip0_402_3380)">
<path d="M21.9941 2H2.00586C2.00262 2 2 2.00262 2 2.00586V21.9941C2 21.9974 2.00262 22 2.00586 22H21.9941C21.9974 22 22 21.9974 22 21.9941V2.00586C22 2.00262 21.9974 2 21.9941 2Z" fill="#707070"/>
<path d="M9.77344 17.7812C9.34375 17.7812 9.38281 17.625 9.26562 17.2344L8.01562 13.1328L17.5859 7.50781" fill="#EEEEEE"/>
<path d="M9.77344 17.7812C10.0469 17.7812 10.2031 17.625 10.3984 17.4688L12.1562 15.7891L9.96875 14.4609" fill="#CCCCCC"/>
<path d="M9.96883 14.4607L15.2423 18.3279C15.7891 18.6795 16.2579 18.4842 16.4141 17.7811L18.5626 7.70293C18.7579 6.84356 18.211 6.45293 17.6251 6.72637L5.08602 11.5701C4.2657 11.8826 4.2657 12.3904 4.92977 12.5857L8.17195 13.6014L15.5938 8.87481C15.9454 8.67949 16.2579 8.75762 16.0235 9.03106" fill="white"/>
</g>
<defs>
<clipPath id="clip0_402_3380">
<rect width="20" height="20" fill="white" transform="translate(2 2)"/>
</clipPath>
</defs>
</svg>
