<svg width="24" height="24" viewBox="0 0 24 24" fill="none" xmlns="http://www.w3.org/2000/svg">
<path d="M22 2H2V22H22V2Z" fill="#707070"/>
<path d="M6.83059 9.06788C8.01311 9.06788 8.97172 8.12118 8.97172 6.95337C8.97172 5.78556 8.01311 4.83887 6.83059 4.83887C5.64807 4.83887 4.68945 5.78556 4.68945 6.95337C4.68945 8.12118 5.64807 9.06788 6.83059 9.06788Z" fill="white"/>
<path d="M12.002 9.06788C13.1845 9.06788 14.1431 8.12118 14.1431 6.95337C14.1431 5.78556 13.1845 4.83887 12.002 4.83887C10.8195 4.83887 9.86084 5.78556 9.86084 6.95337C9.86084 8.12118 10.8195 9.06788 12.002 9.06788Z" fill="white"/>
<path d="M14.1281 17.3901C14.3176 16.2373 13.5249 15.1512 12.3576 14.9641C11.1904 14.777 10.0906 15.5598 9.90112 16.7126C9.71168 17.8653 10.5044 18.9515 11.6716 19.1385C12.8389 19.3256 13.9387 18.5428 14.1281 17.3901Z" fill="white"/>
<path d="M14.1277 12.3417C14.3171 11.189 13.5244 10.1028 12.3572 9.91575C11.1899 9.72867 10.0901 10.5115 9.90063 11.6642C9.71119 12.817 10.5039 13.9031 11.6711 14.0902C12.8384 14.2773 13.9382 13.4945 14.1277 12.3417Z" fill="white"/>
<path d="M17.1729 9.06788C18.3554 9.06788 19.314 8.12118 19.314 6.95337C19.314 5.78556 18.3554 4.83887 17.1729 4.83887C15.9904 4.83887 15.0317 5.78556 15.0317 6.95337C15.0317 8.12118 15.9904 9.06788 17.1729 9.06788Z" fill="white"/>
</svg>
