<svg width="24" height="24" viewBox="0 0 24 24" fill="none" xmlns="http://www.w3.org/2000/svg">
<path d="M22 5.89829C21.2645 6.21901 20.4744 6.43571 19.6438 6.53366C20.5008 6.029 21.142 5.23472 21.4477 4.29903C20.6425 4.7697 19.7612 5.10099 18.8422 5.27852C18.2242 4.62916 17.4057 4.19876 16.5136 4.05413C15.6216 3.9095 14.706 4.05874 13.909 4.47868C13.1119 4.89861 12.4781 5.56575 12.1058 6.37651C11.7336 7.18727 11.6437 8.0963 11.8503 8.96246C10.2187 8.88184 8.62259 8.46452 7.16553 7.73757C5.70847 7.01063 4.42301 5.99031 3.39258 4.74283C3.04025 5.34093 2.83766 6.03438 2.83766 6.7729C2.83727 7.43774 3.00364 8.09239 3.32201 8.67878C3.64038 9.26516 4.10091 9.76515 4.66273 10.1344C4.01117 10.114 3.37397 9.94072 2.80419 9.62903V9.68104C2.80413 10.6135 3.13189 11.5173 3.73186 12.239C4.33184 12.9607 5.16707 13.4559 6.09583 13.6406C5.4914 13.8016 4.85769 13.8253 4.24258 13.71C4.50462 14.5123 5.01506 15.2139 5.70243 15.7166C6.3898 16.2192 7.21969 16.4978 8.07593 16.5132C6.62242 17.6361 4.82735 18.2452 2.97948 18.2425C2.65215 18.2426 2.32509 18.2238 2 18.1862C3.87569 19.373 6.05914 20.0028 8.28909 20.0004C15.8378 20.0004 19.9644 13.8478 19.9644 8.51171C19.9644 8.33835 19.96 8.16326 19.9521 7.9899C20.7548 7.41865 21.4476 6.71126 21.9982 5.90089L22 5.89829Z" fill="#707070"/>
</svg>
