<svg width="24" height="24" viewBox="0 0 24 24" fill="none" xmlns="http://www.w3.org/2000/svg">
<path d="M21.5826 7.18973C21.4687 6.76571 21.2455 6.37903 20.9353 6.06838C20.625 5.75774 20.2386 5.53403 19.8147 5.41964C18.2545 5 12 5 12 5C12 5 5.74554 5 4.18527 5.41741C3.76121 5.53143 3.37461 5.75501 3.0643 6.06571C2.75399 6.37642 2.53089 6.7633 2.41741 7.1875C2 8.75 2 12.0089 2 12.0089C2 12.0089 2 15.2679 2.41741 16.8281C2.64732 17.6897 3.32589 18.3683 4.18527 18.5982C5.74554 19.0179 12 19.0179 12 19.0179C12 19.0179 18.2545 19.0179 19.8147 18.5982C20.6763 18.3683 21.3527 17.6897 21.5826 16.8281C22 15.2679 22 12.0089 22 12.0089C22 12.0089 22 8.75 21.5826 7.18973ZM10.0134 15V9.01786L15.192 11.9866L10.0134 15Z" fill="#707070"/>
</svg>
