<svg width="24" height="24" viewBox="0 0 24 24" fill="none" xmlns="http://www.w3.org/2000/svg">
<path d="M12 21.5C17.2467 21.5 21.5 17.2467 21.5 12C21.5 6.75329 17.2467 2.5 12 2.5C6.75329 2.5 2.5 6.75329 2.5 12C2.5 17.2467 6.75329 21.5 12 21.5Z" fill="#80ACF5"/>
<path d="M10.1965 16.1434C10.5585 16.1434 10.852 15.6345 10.852 15.0068C10.852 14.379 10.5585 13.8701 10.1965 13.8701C9.83449 13.8701 9.54102 14.379 9.54102 15.0068C9.54102 15.6345 9.83449 16.1434 10.1965 16.1434Z" stroke="#313131" stroke-width="0.6"/>
<path d="M9.18761 12.1661C9.10714 12.5135 8.92544 12.8293 8.66548 13.0735C8.40552 13.3178 8.07897 13.4795 7.72713 13.5382C7.37528 13.5969 7.01393 13.5501 6.68876 13.4035C6.36359 13.257 6.0892 13.0173 5.90028 12.7149C5.71136 12.4124 5.6164 12.0608 5.6274 11.7043C5.6384 11.3479 5.75487 11.0027 5.96208 10.7124C6.16929 10.4221 6.45793 10.1998 6.79152 10.0734C7.12512 9.94708 7.48867 9.92244 7.83624 10.0026C8.06712 10.0559 8.28523 10.1541 8.47812 10.2917C8.671 10.4293 8.83487 10.6035 8.96037 10.8044C9.08586 11.0053 9.17053 11.229 9.20952 11.4626C9.24851 11.6963 9.24106 11.9353 9.18761 12.1661Z" fill="white"/>
<path d="M8.32174 12.7068C8.27341 12.9151 8.16437 13.1045 8.00842 13.2509C7.85246 13.3973 7.6566 13.4942 7.44558 13.5294C7.23455 13.5645 7.01785 13.5364 6.82286 13.4484C6.62787 13.3605 6.46334 13.2168 6.35008 13.0353C6.23681 12.8539 6.1799 12.643 6.18652 12.4293C6.19315 12.2155 6.26302 12.0085 6.38731 11.8344C6.51159 11.6603 6.68471 11.527 6.88478 11.4512C7.08484 11.3755 7.30288 11.3607 7.51132 11.4088C7.64983 11.4407 7.78068 11.4997 7.89639 11.5822C8.01209 11.6648 8.11039 11.7693 8.18565 11.8898C8.26092 12.0104 8.31168 12.1446 8.33503 12.2848C8.35838 12.4249 8.35387 12.5683 8.32174 12.7068Z" fill="#313131"/>
<path d="M15.0792 12.1651C14.9987 12.5125 14.817 12.8283 14.5571 13.0725C14.2971 13.3167 13.9706 13.4784 13.6187 13.5371C13.2669 13.5959 12.9055 13.549 12.5804 13.4025C12.2552 13.2559 11.9808 13.0163 11.7919 12.7138C11.603 12.4114 11.508 12.0597 11.519 11.7033C11.53 11.3469 11.6465 11.0017 11.8537 10.7114C12.0609 10.4211 12.3495 10.1987 12.6831 10.0724C13.0167 9.94601 13.3803 9.92138 13.7278 10.0016C13.9587 10.0548 14.1768 10.1531 14.3697 10.2906C14.5626 10.4282 14.7265 10.6024 14.852 10.8033C14.9775 11.0042 15.0621 11.2279 15.1011 11.4616C15.1401 11.6952 15.1327 11.9343 15.0792 12.1651Z" fill="white"/>
<path d="M14.2133 12.7057C14.165 12.9141 14.056 13.1034 13.9 13.2498C13.7441 13.3963 13.5482 13.4932 13.3372 13.5283C13.1262 13.5635 12.9095 13.5353 12.7145 13.4474C12.5195 13.3595 12.3549 13.2157 12.2417 13.0343C12.1284 12.8529 12.0715 12.642 12.0781 12.4282C12.0848 12.2145 12.1546 12.0075 12.2789 11.8334C12.4032 11.6593 12.5763 11.5259 12.7764 11.4502C12.9764 11.3744 13.1945 11.3597 13.4029 11.4077C13.5414 11.4397 13.6723 11.4986 13.788 11.5812C13.9037 11.6637 14.002 11.7682 14.0773 11.8888C14.1525 12.0093 14.2033 12.1435 14.2266 12.2837C14.25 12.4239 14.2455 12.5673 14.2133 12.7057Z" fill="#313131"/>
</svg>
