<svg width="84" height="84" viewBox="0 0 84 84" fill="none" xmlns="http://www.w3.org/2000/svg">
<path opacity="0.996" d="M42 0C50.3068 0 58.4271 2.46326 65.3339 7.07827C72.2408 11.6933 77.624 18.2528 80.8029 25.9273C83.9818 33.6018 84.8135 42.0466 83.193 50.1938C81.5724 58.341 77.5723 65.8247 71.6985 71.6985C65.8247 77.5723 58.341 81.5724 50.1938 83.193C42.0466 84.8135 33.6018 83.9818 25.9273 80.8029C18.2528 77.624 11.6933 72.2408 7.07827 65.3339C2.46326 58.4271 0 50.3068 0 42C0 30.8609 4.42499 20.178 12.3015 12.3015C20.178 4.42499 30.8609 0 42 0V0Z" fill="#3682F9"/>
<mask id="mask0_788_2317" style="mask-type:alpha" maskUnits="userSpaceOnUse" x="0" y="0" width="84" height="84">
<path opacity="0.996" d="M42 0C50.3068 0 58.4271 2.46326 65.3339 7.07827C72.2408 11.6933 77.624 18.2528 80.8029 25.9273C83.9818 33.6018 84.8135 42.0466 83.193 50.1938C81.5724 58.341 77.5723 65.8247 71.6985 71.6985C65.8247 77.5723 58.341 81.5724 50.1938 83.193C42.0466 84.8135 33.6018 83.9818 25.9273 80.8029C18.2528 77.624 11.6933 72.2408 7.07827 65.3339C2.46326 58.4271 0 50.3068 0 42C0 30.8609 4.42499 20.178 12.3015 12.3015C20.178 4.42499 30.8609 0 42 0V0Z" fill="#3682F9"/>
</mask>
<g mask="url(#mask0_788_2317)">
<path d="M82.475 -0.74324L28.6566 30.3288C19.9871 35.3342 17.0165 46.4197 22.0218 55.0891C27.027 63.7584 38.1127 66.7286 46.7823 61.7233L100.601 30.6512C109.27 25.6458 112.241 14.5603 107.235 5.89094C102.23 -2.7784 91.1446 -5.74863 82.475 -0.74324Z" fill="#35363E"/>
<path d="M32.0636 45.3677C32.3413 45.2073 32.5653 44.9682 32.7071 44.6806C32.8489 44.3929 32.9022 44.0697 32.8603 43.7517C32.8184 43.4337 32.6832 43.1353 32.4716 42.8943C32.2601 42.6532 31.9819 42.4803 31.672 42.3973C31.3622 42.3144 31.0348 42.3253 30.7311 42.4285C30.4275 42.5317 30.1613 42.7226 29.9661 42.9771C29.771 43.2317 29.6558 43.5384 29.635 43.8584C29.6142 44.1784 29.6887 44.4975 29.8493 44.7751C29.9557 44.9595 30.0974 45.121 30.2663 45.2506C30.4352 45.3802 30.628 45.4752 30.8336 45.5302C31.0393 45.5852 31.2537 45.5992 31.4648 45.5713C31.6758 45.5434 31.8793 45.4743 32.0636 45.3677Z" fill="white"/>
<path d="M42.5108 39.336C42.7886 39.1756 43.0125 38.9365 43.1544 38.6488C43.2962 38.3612 43.3495 38.0379 43.3076 37.72C43.2657 37.402 43.1304 37.1036 42.9189 36.8625C42.7074 36.6214 42.4291 36.4485 42.1193 36.3656C41.8095 36.2827 41.4821 36.2935 41.1784 36.3967C40.8747 36.4999 40.6085 36.6909 40.4134 36.9454C40.2183 37.1999 40.103 37.5066 40.0822 37.8267C40.0614 38.1467 40.136 38.4657 40.2965 38.7434C40.403 38.9277 40.5447 39.0893 40.7136 39.2189C40.8825 39.3484 41.0753 39.4434 41.2809 39.4985C41.4865 39.5535 41.701 39.5675 41.912 39.5396C42.1231 39.5117 42.3265 39.4425 42.5108 39.336Z" fill="white"/>
<path fill-rule="evenodd" clip-rule="evenodd" d="M32.0532 50.5428C31.8485 50.1883 31.97 49.735 32.3245 49.5303L45.7692 41.768C45.9394 41.6697 46.1417 41.6431 46.3316 41.694C46.5215 41.7448 46.6834 41.869 46.7816 42.0393C47.2667 42.8795 47.5816 43.807 47.7082 44.7688C47.8348 45.7307 47.7708 46.708 47.5197 47.6451C47.2686 48.5822 46.8354 49.4607 46.2448 50.2304C45.6542 51.0001 44.9178 51.6459 44.0776 52.131L42.1449 53.2468C40.4481 54.2265 38.4316 54.4919 36.539 53.9848C34.6465 53.4777 33.0329 52.2396 32.0532 50.5428ZM33.748 50.4201C34.536 51.458 35.6505 52.2121 36.9227 52.553C38.4355 52.9583 40.0474 52.7461 41.4037 51.9631L43.3364 50.8472C44.008 50.4595 44.5967 49.9432 45.0687 49.328C45.5408 48.7127 45.8871 48.0106 46.0878 47.2615C46.2885 46.5124 46.3397 45.7312 46.2385 44.9623C46.1697 44.4396 46.0314 43.9297 45.828 43.4457L33.748 50.4201Z" fill="white"/>
</g>
</svg>
