<svg width="84" height="84" viewBox="0 0 84 84" fill="none" xmlns="http://www.w3.org/2000/svg">
<path opacity="0.996" d="M42 0C50.3068 0 58.4271 2.46326 65.3339 7.07827C72.2408 11.6933 77.624 18.2528 80.8029 25.9273C83.9818 33.6018 84.8135 42.0466 83.193 50.1938C81.5724 58.341 77.5723 65.8247 71.6985 71.6985C65.8247 77.5723 58.341 81.5724 50.1938 83.193C42.0466 84.8135 33.6018 83.9818 25.9273 80.8029C18.2528 77.624 11.6933 72.2408 7.07827 65.3339C2.46326 58.4271 0 50.3068 0 42C0 30.8609 4.42499 20.178 12.3015 12.3015C20.178 4.42499 30.8609 0 42 0V0Z" fill="#E3E3E3"/>
<mask id="mask0_788_1549" style="mask-type:alpha" maskUnits="userSpaceOnUse" x="0" y="0" width="84" height="84">
<path opacity="0.996" d="M42 0C50.3068 0 58.4271 2.46326 65.3339 7.07827C72.2408 11.6933 77.624 18.2528 80.8029 25.9273C83.9818 33.6018 84.8135 42.0466 83.193 50.1938C81.5724 58.341 77.5723 65.8247 71.6985 71.6985C65.8247 77.5723 58.341 81.5724 50.1938 83.193C42.0466 84.8135 33.6018 83.9818 25.9273 80.8029C18.2528 77.624 11.6933 72.2408 7.07827 65.3339C2.46326 58.4271 0 50.3068 0 42C0 30.8609 4.42499 20.178 12.3015 12.3015C20.178 4.42499 30.8609 0 42 0V0Z" fill="#E3E3E3"/>
</mask>
<g mask="url(#mask0_788_1549)">
<path d="M84.8789 70.227L11.1369 51.1758L11.1912 50.8581C14.7412 29.9446 33.4726 17.0871 53.0341 22.1403L55.6466 22.8155C75.371 27.9105 88.4579 49.1388 84.8789 70.227Z" fill="#35363E"/>
<path d="M32.4687 43.543C33.2075 43.303 33.6118 42.5094 33.3718 41.7707C33.1317 41.0319 32.3382 40.6275 31.5994 40.8676C30.8606 41.1076 30.4563 41.9012 30.6964 42.6399C30.9364 43.3787 31.7299 43.7831 32.4687 43.543Z" fill="white"/>
<path d="M42.2558 43.3221C42.9946 43.082 43.3989 42.2885 43.1589 41.5497C42.9188 40.8109 42.1253 40.4066 41.3865 40.6467C40.6477 40.8867 40.2434 41.6802 40.4835 42.419C40.7235 43.1578 41.517 43.5621 42.2558 43.3221Z" fill="white"/>
<path fill-rule="evenodd" clip-rule="evenodd" d="M37.7463 50.1018C37.5455 49.8042 37.6241 49.4003 37.9217 49.1995L41.5147 46.776C41.8122 46.5753 42.2162 46.6538 42.417 46.9514C42.6177 47.249 42.5392 47.653 42.2416 47.8537L38.6486 50.2772C38.351 50.4779 37.947 50.3994 37.7463 50.1018Z" fill="white"/>
<path fill-rule="evenodd" clip-rule="evenodd" d="M39.6481 38.988C39.5372 38.6466 39.724 38.2799 40.0654 38.169L50.2197 34.8697C50.5611 34.7588 50.9277 34.9456 51.0387 35.287C51.1496 35.6284 50.9628 35.9951 50.6214 36.106L40.4671 39.4053C40.1257 39.5162 39.759 39.3294 39.6481 38.988Z" fill="white"/>
<path fill-rule="evenodd" clip-rule="evenodd" d="M23.5148 35.4205C23.6377 35.0832 24.0107 34.9094 24.348 35.0323L34.3829 38.6878C34.7202 38.8106 34.894 39.1837 34.7711 39.5209C34.6482 39.8582 34.2752 40.032 33.9379 39.9092L23.9031 36.2537C23.5658 36.1308 23.392 35.7578 23.5148 35.4205Z" fill="white"/>
<path fill-rule="evenodd" clip-rule="evenodd" d="M37.9583 40.6991C38.2403 40.9211 38.2889 41.3298 38.0669 41.6118L37.1361 42.794L38.5844 43.204C38.9298 43.3017 39.1305 43.661 39.0328 44.0064C38.935 44.3518 38.5758 44.5525 38.2304 44.4548L35.8477 43.7803C35.639 43.7212 35.4735 43.562 35.4065 43.3557C35.3396 43.1494 35.3799 42.9233 35.514 42.7529L37.0455 40.8077C37.2676 40.5256 37.6762 40.477 37.9583 40.6991Z" fill="white"/>
</g>
</svg>
