<svg width="84" height="84" viewBox="0 0 84 84" fill="none" xmlns="http://www.w3.org/2000/svg">
<path opacity="0.996" d="M42 0C50.3068 0 58.4271 2.46326 65.3339 7.07827C72.2408 11.6933 77.624 18.2528 80.8029 25.9273C83.9818 33.6018 84.8135 42.0466 83.193 50.1938C81.5724 58.341 77.5723 65.8247 71.6985 71.6985C65.8247 77.5723 58.341 81.5724 50.1938 83.193C42.0466 84.8135 33.6018 83.9818 25.9273 80.8029C18.2528 77.624 11.6933 72.2408 7.07827 65.3339C2.46326 58.4271 0 50.3068 0 42C0 30.8609 4.42499 20.178 12.3015 12.3015C20.178 4.42499 30.8609 0 42 0V0Z" fill="#3682F9"/>
<mask id="mask0_788_2301" style="mask-type:alpha" maskUnits="userSpaceOnUse" x="0" y="0" width="84" height="84">
<path opacity="0.996" d="M42 0C50.3068 0 58.4271 2.46326 65.3339 7.07827C72.2408 11.6933 77.624 18.2528 80.8029 25.9273C83.9818 33.6018 84.8135 42.0466 83.193 50.1938C81.5724 58.341 77.5723 65.8247 71.6985 71.6985C65.8247 77.5723 58.341 81.5724 50.1938 83.193C42.0466 84.8135 33.6018 83.9818 25.9273 80.8029C18.2528 77.624 11.6933 72.2408 7.07827 65.3339C2.46326 58.4271 0 50.3068 0 42C0 30.8609 4.42499 20.178 12.3015 12.3015C20.178 4.42499 30.8609 0 42 0V0Z" fill="#3682F9"/>
</mask>
<g mask="url(#mask0_788_2301)">
<path d="M49.4164 61.0279C47.432 62.1929 45.0975 62.6127 42.8316 62.2118C40.3888 61.6849 38.238 60.2484 36.8155 58.1937C34.7269 59.5659 32.1945 60.0921 29.7322 59.6656C27.4797 59.189 25.4709 57.9249 24.0665 56.1004C22.081 57.266 19.7449 57.6855 17.4779 57.2836C15.2253 56.8071 13.2165 55.543 11.8122 53.7184C9.8267 54.8841 7.4906 55.3036 5.22356 54.9016C-1.54667 53.5856 -5.48815 44.5731 -3.58301 34.772C-1.67786 24.9709 5.35275 18.0912 12.1201 19.4066C14.3726 19.8831 16.3815 21.1472 17.7857 22.9718C19.7712 21.8061 22.1073 21.3866 24.3744 21.7886C26.6269 22.2652 28.6357 23.5292 30.0401 25.3538C32.0256 24.1882 34.3617 23.7687 36.6287 24.1706C39.0715 24.6976 41.2223 26.1341 42.6448 28.1887C44.7343 26.816 47.2678 26.29 49.731 26.7174C51.9836 27.1939 53.9924 28.458 55.3967 30.2826C57.381 29.1176 59.7156 28.6978 61.9815 29.0987C68.7487 30.4141 72.6914 39.4258 70.7861 49.2279C68.8807 59.03 61.8493 65.9085 55.082 64.5931C52.8295 64.1166 50.8206 62.8525 49.4164 61.0279Z" fill="#80ACF5"/>
<path d="M40.7044 47.1737C43.4385 47.1737 45.655 45.632 45.655 43.7302C45.655 41.8285 43.4385 40.2867 40.7044 40.2867C37.9703 40.2867 35.7539 41.8285 35.7539 43.7302C35.7539 45.632 37.9703 47.1737 40.7044 47.1737Z" fill="white"/>
<path d="M40.9188 47.1737C42.5829 47.1737 43.9319 45.632 43.9319 43.7302C43.9319 41.8285 42.5829 40.2867 40.9188 40.2867C39.2548 40.2867 37.9058 41.8285 37.9058 43.7302C37.9058 45.632 39.2548 47.1737 40.9188 47.1737Z" fill="#35363E"/>
<path d="M54.4793 48.0353C57.2134 48.0353 59.4299 46.4936 59.4299 44.5918C59.4299 42.69 57.2134 41.1483 54.4793 41.1483C51.7452 41.1483 49.5288 42.69 49.5288 44.5918C49.5288 46.4936 51.7452 48.0353 54.4793 48.0353Z" fill="white"/>
<path d="M54.6942 41.1483C55.549 41.209 56.3452 41.605 56.9095 42.2499C57.4738 42.8948 57.7605 43.7365 57.7072 44.5918C57.7605 45.4471 57.4738 46.2888 56.9095 46.9337C56.3452 47.5787 55.549 47.9746 54.6942 48.0353C53.8394 47.9746 53.0432 47.5787 52.4789 46.9337C51.9145 46.2888 51.6278 45.4471 51.6811 44.5918C51.6278 43.7365 51.9145 42.8948 52.4789 42.2499C53.0432 41.605 53.8394 41.209 54.6942 41.1483V41.1483Z" fill="#35363E"/>
<path fill-rule="evenodd" clip-rule="evenodd" d="M43.4108 49.9114C43.7023 49.624 44.1716 49.6273 44.4589 49.9188C44.8432 50.3086 45.301 50.6181 45.8059 50.8294C46.3108 51.0406 46.8527 51.1494 47.4 51.1494C47.9473 51.1494 48.4891 51.0406 48.9941 50.8294C49.4989 50.6181 49.9568 50.3086 50.341 49.9188C50.6284 49.6273 51.0976 49.624 51.3892 49.9114C51.6807 50.1987 51.684 50.668 51.3966 50.9595C50.8745 51.4891 50.2524 51.9098 49.5662 52.1968C48.8801 52.4839 48.1437 52.6318 47.4 52.6318C46.6562 52.6318 45.9198 52.4839 45.2337 52.1968C44.5476 51.9098 43.9254 51.4891 43.4033 50.9595C43.1159 50.668 43.1193 50.1987 43.4108 49.9114Z" fill="#35363D"/>
</g>
</svg>
