<svg width="84" height="84" viewBox="0 0 84 84" fill="none" xmlns="http://www.w3.org/2000/svg">
<path opacity="0.996" d="M42 0C50.3068 0 58.4271 2.46326 65.3339 7.07827C72.2408 11.6933 77.624 18.2528 80.8029 25.9273C83.9818 33.6018 84.8135 42.0466 83.193 50.1938C81.5724 58.341 77.5723 65.8247 71.6985 71.6985C65.8247 77.5723 58.341 81.5724 50.1938 83.193C42.0466 84.8135 33.6018 83.9818 25.9273 80.8029C18.2528 77.624 11.6933 72.2408 7.07827 65.3339C2.46326 58.4271 0 50.3068 0 42C0 30.8609 4.42499 20.178 12.3015 12.3015C20.178 4.42499 30.8609 0 42 0V0Z" fill="#3682F9"/>
<path d="M40.8733 60.9007C51.1009 60.9007 59.392 52.606 59.392 42.374C59.392 32.142 51.1009 23.8473 40.8733 23.8473C30.6456 23.8473 22.3545 32.142 22.3545 42.374C22.3545 52.606 30.6456 60.9007 40.8733 60.9007Z" fill="#80ACF5"/>
<path fill-rule="evenodd" clip-rule="evenodd" d="M37.2088 47.1299C37.0746 47.3758 36.9687 47.766 36.9687 48.2376C36.9687 48.7092 37.0746 49.0994 37.2088 49.3452C37.2728 49.4624 37.3249 49.5195 37.3568 49.5466C37.3887 49.5195 37.4408 49.4624 37.5047 49.3452C37.6389 49.0994 37.7449 48.7092 37.7449 48.2376C37.7449 47.766 37.6389 47.3758 37.5047 47.1299C37.4408 47.0128 37.3887 46.9557 37.3568 46.9286C37.3249 46.9557 37.2728 47.0128 37.2088 47.1299ZM37.3913 46.9058C37.3914 46.9058 37.3907 46.9061 37.3892 46.9066C37.3906 46.906 37.3913 46.9058 37.3913 46.9058ZM37.3244 46.9066C37.3229 46.9061 37.3222 46.9058 37.3222 46.9058C37.3222 46.9058 37.323 46.906 37.3244 46.9066ZM37.3222 49.5694C37.3222 49.5694 37.3229 49.5691 37.3243 49.5686C37.323 49.5692 37.3222 49.5694 37.3222 49.5694ZM37.3892 49.5686C37.3907 49.5691 37.3914 49.5694 37.3913 49.5694C37.3913 49.5694 37.3906 49.5692 37.3892 49.5686ZM35.9077 46.4197C36.167 45.9447 36.6469 45.4277 37.3568 45.4277C38.0667 45.4277 38.5466 45.9447 38.8059 46.4197C39.0804 46.9226 39.2272 47.5667 39.2272 48.2376C39.2272 48.9085 39.0804 49.5526 38.8059 50.0555C38.5466 50.5305 38.0667 51.0475 37.3568 51.0475C36.6469 51.0475 36.167 50.5305 35.9077 50.0555C35.6332 49.5526 35.4863 48.9085 35.4863 48.2376C35.4863 47.5667 35.6332 46.9226 35.9077 46.4197Z" fill="#35363E"/>
<path d="M35.3912 42.6961C35.2344 43.3735 34.8803 43.9891 34.3737 44.4653C33.867 44.9415 33.2306 45.2567 32.5448 45.3713C31.859 45.4858 31.1547 45.3944 30.5208 45.1087C29.8869 44.8229 29.352 44.3557 28.9837 43.766C28.6153 43.1763 28.43 42.4907 28.4513 41.7957C28.4726 41.1007 28.6994 40.4277 29.1031 39.8616C29.5068 39.2955 30.0693 38.8619 30.7194 38.6154C31.3696 38.369 32.0782 38.3208 32.7557 38.477C33.2059 38.5808 33.6312 38.7723 34.0073 39.0406C34.3834 39.3088 34.703 39.6486 34.9478 40.0404C35.1925 40.4322 35.3577 40.8684 35.4338 41.3241C35.5099 41.7798 35.4954 42.246 35.3912 42.6961Z" fill="white"/>
<path d="M33.704 43.7502C33.6099 44.1566 33.3975 44.526 33.0936 44.8117C32.7897 45.0974 32.4079 45.2866 31.9965 45.3553C31.5851 45.424 31.1625 45.3693 30.7822 45.1979C30.4019 45.0265 30.0809 44.7463 29.8599 44.3925C29.6389 44.0388 29.5277 43.6275 29.5403 43.2105C29.553 42.7936 29.689 42.3898 29.9312 42.0501C30.1733 41.7105 30.5107 41.4503 30.9008 41.3024C31.2908 41.1544 31.7159 41.1255 32.1224 41.2191C32.3925 41.2813 32.6477 41.3962 32.8734 41.5571C33.0991 41.718 33.2908 41.9218 33.4377 42.1569C33.5846 42.3919 33.6837 42.6536 33.7294 42.927C33.7751 43.2004 33.7664 43.4801 33.704 43.7502Z" fill="#35363E"/>
<path d="M46.8756 42.6963C46.7188 43.3737 46.3647 43.9894 45.8581 44.4656C45.3514 44.9417 44.715 45.257 44.0292 45.3715C43.3434 45.486 42.6391 45.3946 42.0052 45.1089C41.3713 44.8232 40.8364 44.3559 40.468 43.7663C40.0997 43.1766 39.9144 42.4909 39.9357 41.7959C39.9569 41.101 40.1837 40.4279 40.5875 39.8619C40.9912 39.2958 41.5537 38.8621 42.2038 38.6157C42.8539 38.3692 43.5626 38.3211 44.2401 38.4773C44.6902 38.5811 45.1156 38.7726 45.4917 39.0408C45.8678 39.3091 46.1874 39.6488 46.4322 40.0406C46.6769 40.4325 46.8421 40.8687 46.9181 41.3243C46.9942 41.78 46.9798 42.2462 46.8756 42.6963Z" fill="white"/>
<path d="M45.1883 43.7504C45.0943 44.1568 44.8819 44.5262 44.578 44.8119C44.2741 45.0976 43.8923 45.2868 43.4809 45.3555C43.0694 45.4243 42.6469 45.3695 42.2666 45.1982C41.8863 45.0268 41.5653 44.7465 41.3443 44.3928C41.1232 44.039 41.012 43.6277 41.0247 43.2108C41.0374 42.7938 41.1734 42.39 41.4156 42.0504C41.6577 41.7107 41.9951 41.4505 42.3851 41.3026C42.7751 41.1547 43.2003 41.1257 43.6067 41.2193C43.8768 41.2816 44.132 41.3964 44.3577 41.5573C44.5834 41.7182 44.7752 41.922 44.9221 42.1571C45.069 42.3922 45.1681 42.6539 45.2138 42.9273C45.2595 43.2007 45.2508 43.4804 45.1883 43.7504Z" fill="#35363E"/>
</svg>
