<svg width="84" height="84" viewBox="0 0 84 84" fill="none" xmlns="http://www.w3.org/2000/svg">
<path opacity="0.996" d="M42 0C50.3068 0 58.4271 2.46326 65.3339 7.07827C72.2408 11.6933 77.624 18.2528 80.8029 25.9273C83.9818 33.6018 84.8135 42.0466 83.193 50.1938C81.5724 58.341 77.5723 65.8247 71.6985 71.6985C65.8247 77.5723 58.341 81.5724 50.1938 83.193C42.0466 84.8135 33.6018 83.9818 25.9273 80.8029C18.2528 77.624 11.6933 72.2408 7.07827 65.3339C2.46326 58.4271 0 50.3068 0 42C0 30.8609 4.42499 20.178 12.3015 12.3015C20.178 4.42499 30.8609 0 42 0V0Z" fill="#E3E3E3"/>
<mask id="mask0_788_1580" style="mask-type:alpha" maskUnits="userSpaceOnUse" x="0" y="0" width="84" height="84">
<path opacity="0.996" d="M42 0C50.3068 0 58.4271 2.46326 65.3339 7.07827C72.2408 11.6933 77.624 18.2528 80.8029 25.9273C83.9818 33.6018 84.8135 42.0466 83.193 50.1938C81.5724 58.341 77.5723 65.8247 71.6985 71.6985C65.8247 77.5723 58.341 81.5724 50.1938 83.193C42.0466 84.8135 33.6018 83.9818 25.9273 80.8029C18.2528 77.624 11.6933 72.2408 7.07827 65.3339C2.46326 58.4271 0 50.3068 0 42C0 30.8609 4.42499 20.178 12.3015 12.3015C20.178 4.42499 30.8609 0 42 0V0Z" fill="#E3E3E3"/>
</mask>
<g mask="url(#mask0_788_1580)">
<path d="M49.4159 61.028C47.4315 62.193 45.097 62.6127 42.8311 62.2119C40.3883 61.6849 38.2375 60.2484 36.815 58.1938C34.7264 59.5659 32.1941 60.0921 29.7317 59.6656C27.4792 59.1891 25.4704 57.925 24.0661 56.1005C22.0805 57.2661 19.7444 57.6856 17.4774 57.2836C15.2248 56.8071 13.216 55.5431 11.8117 53.7185C9.82621 54.8842 7.49011 55.3037 5.22308 54.9016C-1.54715 53.5856 -5.48864 44.5732 -3.5835 34.7721C-1.67835 24.9709 5.35226 18.0912 12.1196 19.4067C14.3721 19.8831 16.381 21.1472 17.7852 22.9718C19.7708 21.8061 22.1069 21.3866 24.3739 21.7887C26.6264 22.2652 28.6352 23.5293 30.0396 25.3538C32.0251 24.1882 34.3612 23.7687 36.6282 24.1707C39.071 24.6976 41.2219 26.1341 42.6443 28.1888C44.7338 26.8161 47.2673 26.2901 49.7305 26.7175C51.9831 27.194 53.9919 28.4581 55.3962 30.2827C57.3805 29.1176 59.7151 28.6979 61.981 29.0987C68.7483 30.4142 72.6909 39.4258 70.7856 49.2279C68.8802 59.03 61.8488 65.9086 55.0815 64.5931C52.829 64.1167 50.8201 62.8526 49.4159 61.028Z" fill="#707070"/>
<path d="M40.7044 47.1737C43.4385 47.1737 45.655 45.632 45.655 43.7302C45.655 41.8285 43.4385 40.2867 40.7044 40.2867C37.9703 40.2867 35.7539 41.8285 35.7539 43.7302C35.7539 45.632 37.9703 47.1737 40.7044 47.1737Z" fill="white"/>
<path d="M40.9193 47.1737C42.5834 47.1737 43.9324 45.632 43.9324 43.7302C43.9324 41.8284 42.5834 40.2867 40.9193 40.2867C39.2552 40.2867 37.9062 41.8284 37.9062 43.7302C37.9062 45.632 39.2552 47.1737 40.9193 47.1737Z" fill="#35363E"/>
<path d="M54.4789 48.0353C57.213 48.0353 59.4294 46.4936 59.4294 44.5918C59.4294 42.69 57.213 41.1483 54.4789 41.1483C51.7447 41.1483 49.5283 42.69 49.5283 44.5918C49.5283 46.4936 51.7447 48.0353 54.4789 48.0353Z" fill="white"/>
<path d="M54.6942 41.1483C55.549 41.209 56.3452 41.6049 56.9095 42.2498C57.4738 42.8947 57.7605 43.7365 57.7072 44.5918C57.7605 45.4471 57.4738 46.2888 56.9095 46.9337C56.3452 47.5786 55.549 47.9745 54.6942 48.0353C53.8394 47.9745 53.0432 47.5786 52.4789 46.9337C51.9145 46.2888 51.6278 45.4471 51.6811 44.5918C51.6278 43.7365 51.9145 42.8947 52.4789 42.2498C53.0432 41.6049 53.8394 41.209 54.6942 41.1483V41.1483Z" fill="#35363E"/>
<path fill-rule="evenodd" clip-rule="evenodd" d="M43.4113 49.9114C43.7028 49.624 44.1721 49.6273 44.4594 49.9188C44.8437 50.3086 45.3015 50.6181 45.8064 50.8294C46.3113 51.0406 46.8532 51.1494 47.4005 51.1494C47.9477 51.1494 48.4896 51.0406 48.9945 50.8294C49.4994 50.6181 49.9572 50.3086 50.3415 49.9188C50.6289 49.6273 51.0981 49.624 51.3896 49.9114C51.6812 50.1987 51.6845 50.668 51.3971 50.9595C50.875 51.4891 50.2528 51.9098 49.5667 52.1968C48.8806 52.4839 48.1442 52.6318 47.4005 52.6318C46.6567 52.6318 45.9203 52.4839 45.2342 52.1968C44.5481 51.9098 43.9259 51.4891 43.4038 50.9595C43.1164 50.668 43.1198 50.1987 43.4113 49.9114Z" fill="#35363D"/>
</g>
</svg>
